<svg width="352" height="411" viewBox="0 0 352 411" fill="none" xmlns="http://www.w3.org/2000/svg">
<g clip-path="url(#clip0_40_354)">
<path d="M194.229 285.615C199.262 286.89 200.988 290.549 201.668 295.046C202.254 298.952 203.023 302.828 203.531 306.738C203.959 310.169 204.595 313.677 204.381 317.099C204.108 321.32 201.814 324.723 198.406 327.355C190.51 333.425 181.177 337.346 171.316 338.736C170.068 338.923 168.831 339.159 167.595 339.395C167.304 339.485 167.023 339.605 166.757 339.751C167.864 343.83 168.771 347.962 170.22 351.895C170.546 352.79 172.8 353.581 174.06 353.438C183.545 352.383 189.743 346.922 193.428 338.332L195.832 332.738C199.235 344.285 184.151 358.796 170.715 357.385C170.462 358.342 170.226 359.35 169.928 360.339C168.598 364.702 164.173 366.91 159.854 366.068C155.535 365.227 151.064 365.107 146.672 364.583C144.393 364.307 141.909 364.331 139.915 363.391C130.031 358.718 121.603 352.445 117.712 341.576C117.465 340.836 116.444 340.245 115.65 339.909C113.155 338.837 110.584 337.942 108.03 336.977C101.635 334.577 97.7091 329.751 95.6396 323.527C93.1275 315.982 90.8965 308.349 88.9466 300.627C88.2592 297.902 87.9902 294.603 88.9194 292.072C89.9698 289.2 92.5752 286.901 94.7872 283.982C91.5973 279.51 89.626 273.722 88.8046 267.458C87.9131 260.795 89.9615 255.454 95.5213 251.52C99.1629 248.949 102.589 246.039 106.402 243.764C111.337 240.811 116.591 239.581 121.95 242.874C118.829 243.746 115.629 244.299 112.77 245.55C110.916 246.351 109.355 248.021 107.921 249.542C105.339 252.289 103.175 255.45 100.438 258.009C95.3215 262.787 96.2321 268.696 96.8979 274.57C97.1888 276.396 97.7263 278.174 98.4955 279.855C99.5556 282.436 101.123 284.397 104.161 285.164C106.808 285.838 109.26 287.26 111.798 288.351L111.485 289.079C107.706 288.723 103.91 288.36 100.102 288.1C96.107 287.803 95.6643 288.228 94.8623 292.102C94.2633 294.971 94.7917 297.519 95.9802 300.244C99.3382 307.941 103.614 315.303 104.631 323.916C105.098 327.922 108.243 330.269 111.653 331.913C115.853 333.946 120.155 335.744 124.502 337.435C129.88 339.531 131.547 339.017 135.401 334.654C135.706 334.315 135.998 333.959 136.501 333.363C137.494 336.264 135.768 338.021 134.597 339.89C133.123 342.199 130.627 342.192 128.332 342.189C126.037 342.186 123.739 341.749 120.826 341.443C121.509 342.643 121.835 343.627 122.489 344.288C129.236 351.184 136.694 356.425 147.008 356.393C150.886 356.385 154.823 357.557 158.639 358.55C162.18 359.476 165.037 358.275 165.196 354.671C165.264 350.825 164.93 346.983 164.2 343.206C163.845 341.081 162.332 339.715 159.98 338.932C157.363 338.054 155.04 336.301 152.776 334.428C164.517 338.586 174.108 332.814 183.871 328.25C187.458 326.526 190.883 324.482 194.106 322.146C197.495 319.734 198.97 316.169 198.477 311.974C198.122 308.802 197.556 305.647 197.195 302.473C196.979 300.554 196.604 298.534 196.969 296.668C197.76 292.568 197.816 288.78 194.229 285.615Z" fill="url(#paint0_linear_40_354)"/>
<path d="M71.8898 189.284C70.1659 188.543 68.2313 188.086 66.7794 186.993C65.0867 185.707 63.4378 185.721 61.9494 186.617C59.2684 188.141 56.7597 189.951 54.4669 192.014C51.9977 194.365 52.7429 196.601 55.4325 198.74C57.9888 200.797 60.3112 203.128 62.3576 205.693C67.162 211.677 73.7846 212.9 80.8168 213.258C81.4515 213.22 82.0833 213.144 82.7092 213.032C78.1504 208.586 74.4422 204.404 79.9914 198.798C80.1998 199.243 80.3871 199.456 80.3342 199.579C78.2485 204.683 81.0814 207.404 85.1398 209.516C87.8929 210.946 90.537 212.749 93.4612 213.619C95.7453 214.256 98.1664 214.207 100.423 213.477C106.985 211.224 113.403 208.496 119.861 205.925C121.048 205.546 122.175 205.004 123.211 204.314C127.593 200.907 127.688 199.667 124.145 195.455C122.797 193.854 121.427 192.276 119.588 190.122C121.435 190.782 122.701 191.143 123.885 191.677C125.515 192.416 127.251 194.176 128.635 193.909C131.639 193.258 134.511 192.104 137.13 190.494C141.819 187.714 144.618 183.564 144.702 177.892C144.771 177.116 144.938 176.353 145.197 175.619C147.622 166.849 147.622 166.849 144.496 159.156C145.696 159.43 146.801 160.019 147.696 160.863C148.592 161.707 149.245 162.776 149.587 163.958C151.916 170.774 151.247 177.806 149.865 184.621C148.699 190.507 143.716 193.35 138.659 195.598C135.944 196.809 132.998 197.509 129.729 198.578C129.713 198.469 129.946 198.309 129.729 198.578C130.296 205.449 126.174 209.063 120.631 211.659C116.334 213.675 111.913 215.46 107.699 217.651C100.278 221.502 93.3243 221.095 86.7853 215.855C85.2196 214.599 83.9425 214.634 82.0634 215.272C73.9631 217.975 66.3595 216.039 59.1444 212.107C57.9529 211.455 57.1617 210.05 56.2316 208.952C54.2836 206.682 52.5937 204.135 50.3775 202.149C46.8014 198.944 46.2056 195.726 49.0124 191.763C49.3963 191.224 49.7229 190.641 50.0501 190.116C43.4354 181.894 45.6794 166.343 54.5896 161.121C53.0368 164.336 51.5336 167.051 50.3753 169.908C49.3617 172.335 48.8753 174.949 48.9485 177.577C49.0216 180.205 49.6526 182.788 50.7997 185.154C51.8448 187.43 53.043 188.243 55.5114 186.735C57.8687 185.294 60.534 184.346 63.031 183.2C61.4982 178.945 59.6852 174.855 58.59 170.585C57.7232 166.81 57.1978 162.965 57.0202 159.096C56.4726 151.383 60.4443 146.303 66.9357 142.725C70.2483 140.92 73.4013 138.882 76.5711 136.864C79.7408 134.846 82.5705 134.711 85.7527 137.062C81.2935 136.192 79.4765 138.944 77.068 141.035C74.0958 143.627 70.6398 145.662 67.3513 147.883C63.088 150.763 61.6751 154.862 62.3029 159.762C62.9656 164.949 63.6106 170.148 64.5809 175.284C65.5702 180.524 67.5103 185.366 72.5519 188.319L71.8898 189.284Z" fill="url(#paint1_linear_40_354)"/>
<path d="M155.988 173.901C161.882 174.252 167.322 176.235 172.495 179.162L172.938 178.604L171.406 175.999C163.654 162.824 157.549 149.049 156.72 133.534C156.549 130.251 156.955 126.963 157.92 123.82C161.425 112.641 170.508 108.876 182.783 107.676C188.358 107.129 193.355 108.947 197.797 112.144C199.424 113.318 200.338 113.109 201.753 111.941C208.486 106.399 216.059 104.32 224.595 106.904C225.986 107.413 227.348 107.998 228.675 108.657L228.484 109.958C227.347 109.99 225.937 110.468 225.115 109.975C218.915 106.264 211.643 106.462 205.763 110.728C205.137 111.182 204.559 111.714 203.892 112.131C201.743 113.529 201.489 114.904 203.301 117.002C206.614 120.836 207.437 128.661 205.178 131.984C200.5 138.853 194.428 141.559 187.898 139.399C185.555 138.621 184.059 138.605 183.354 141.353C179.612 155.963 177.848 170.617 183.424 185.109C186.111 192.137 189.725 198.841 192.929 205.685C193.203 206.092 193.516 206.471 193.864 206.816C194.105 206.281 194.288 205.722 194.41 205.148C195.402 190.695 204.738 183.538 217.162 179.097C218.533 178.608 219.994 178.412 221.357 177.881C223.852 176.93 224.731 178.133 225.06 180.849C223.182 181.31 221.244 181.746 219.353 182.322C212.489 184.288 206.041 187.441 201.615 193.149C196.549 199.712 195.113 207.613 197.096 215.544C201.298 232.331 197.585 247.803 190.432 262.868C190.008 263.751 188.883 264.302 188.077 265.027C187.925 263.903 187.351 262.629 187.674 261.683C189.492 256.363 191.806 251.199 193.443 245.826C197.549 232.318 196.255 219.33 189.815 206.63C185.452 198.025 180.375 190.224 172.777 184.085C168.466 180.603 163.411 178.159 158.005 176.943C156.991 176.704 156.163 175.664 155.245 174.996C155.504 174.6 155.746 174.26 155.988 173.901ZM198.793 114.151C190.66 108.119 182.374 108.198 173.645 111.493C165.777 114.454 161.239 119.906 159.617 128.151C157.995 136.397 159.645 144.54 162.164 152.168C164.683 159.796 168.806 166.997 172.479 174.285C173.919 177.117 176.09 179.579 178.364 182.833C178.101 178.825 177.813 175.791 177.718 172.75C177.364 161.561 177.842 150.458 181.879 139.825C182.5 138.189 182.002 137.576 180.475 136.761C178.706 135.846 177.156 134.557 175.934 132.984C174.712 131.411 173.847 129.591 173.399 127.65C173.001 126.039 172.515 123.966 175.438 123.173C175.827 124.778 176.323 126.356 176.922 127.895C177.96 130.143 178.96 132.494 180.481 134.372C181.824 136.028 183.445 136.109 184.597 133.547C187.278 127.589 190.741 122.113 195.573 117.6C196.712 116.542 197.682 115.348 198.788 114.149L198.793 114.151ZM185.279 136.46C189.921 138.676 196.165 137.472 199.967 133.924C203.009 131.084 204.933 123.374 203.458 119.898C201.524 115.338 200.511 115.143 196.978 118.654C196.159 119.469 195.304 120.263 194.471 121.065C190.034 125.336 187.616 130.772 185.274 136.457L185.279 136.46Z" fill="url(#paint2_linear_40_354)"/>
<path d="M46.8465 329.887C52.3337 332.556 56.6168 336.521 60.1996 341.334C60.6237 341.897 61.9647 342.156 62.7698 341.995C69.2122 340.685 75.7065 339.461 82.0337 337.741C84.1944 337.141 86.1107 335.206 87.8325 333.561C90.1876 331.313 92.2485 328.761 94.9027 325.817C94.9259 332.36 98.5074 336.201 103.607 339.034C103.474 339.344 103.389 339.676 103.277 339.995L62.3148 346.226C63.9691 353.667 63.7892 361.213 58.3991 367.586C56.8149 369.442 54.5296 370.775 52.5524 372.335L51.564 371.359C52.7645 369.908 53.7449 368.173 55.1937 367.045C62.2425 361.55 63.2582 354.509 60.7516 347.045C60.5715 346.504 59.3747 345.895 58.7426 345.978C45.7463 347.706 33.0521 350.413 22.7976 359.382C18.7118 362.986 16.4764 367.892 14.6448 372.965C14.0652 374.594 13.2878 376.145 12.3301 377.584C12.2674 373.066 14.1643 369.169 16.1439 365.301C22.7519 352.405 34.3738 347.131 47.7405 344.542C51.3466 343.84 54.9778 343.301 59.0001 342.62C58.4777 341.666 58.2527 340.935 57.7773 340.432C56.3638 338.834 54.8336 337.344 53.1994 335.972C50.9953 334.238 48.6351 331.657 46.2266 331.536C44.3054 331.446 42.3548 334.641 40.2071 336.097C35.9001 339.034 31.5992 342.032 27.0547 344.563C19.7028 348.652 13.5481 353.764 10.8532 362.012C9.7487 365.394 9.29129 368.996 8.53021 372.494C8.49004 372.806 8.3699 373.103 8.18144 373.355C7.99298 373.607 7.74259 373.807 7.45447 373.934C8.34296 369.299 8.97673 364.592 10.1781 360.041C11.4286 355.301 15.3339 352.28 18.8306 349.324C22.5662 346.166 27.0615 343.912 31.0501 341.022C35.4721 337.816 39.6924 334.328 44.5956 330.505C34.8664 324.852 25.7132 326.049 16.5554 328.025C18.8407 325.969 21.2604 324.973 25.3119 324.887C31.3591 324.734 37.3729 324.997 42.9134 327.866C44.5928 328.74 45.7149 328.373 46.8641 326.894C55.3684 315.961 60.7981 303.815 61.5553 289.863C62.1722 278.451 51.3018 265.02 39.5525 262.489C37.1206 261.964 34.6211 261.758 31.4156 261.307C36.5707 260.985 41.0351 259.733 45.4208 262.087C46.9572 262.926 48.5415 263.675 50.1655 264.329C54.5036 266.041 57.2863 269.248 59.2195 273.294C60.8488 276.69 62.8003 280.06 63.6429 283.663C64.42 286.946 64.2242 290.56 63.9392 293.983C62.8424 307.027 56.3201 317.613 48.3395 327.49C47.9648 327.963 47.5757 328.367 47.221 328.823C47.0639 329.166 46.9385 329.522 46.8465 329.887Z" fill="url(#paint3_linear_40_354)"/>
<path d="M261.772 188.889C261.85 190.273 261.947 191.317 261.96 192.363C262.011 196.14 262.513 196.552 266.397 196.059C271.233 195.448 274.672 192.581 277.907 189.246C275.939 193.411 272.872 196.387 268.433 197.86C267.696 198.107 266.923 198.229 266.146 198.221C263.413 198.163 260.798 197.826 258.64 200.443C257.949 201.282 255.562 201.023 254.043 200.808C252.148 200.539 250.349 199.576 248.454 199.275C241.363 198.168 238.151 193.128 235.674 187.174C235.138 185.884 234.262 184.334 233.115 183.771C228.24 181.391 226.128 177.642 226.399 172.303C226.518 169.887 226.33 167.46 226.308 165.034C226.268 160.951 227.125 157.406 231.541 156.355C231.435 153.309 231.262 150.526 231.266 147.756C231.236 146.277 231.656 144.823 232.47 143.587C233.284 142.352 234.454 141.393 235.826 140.836C239.625 139.212 243.533 137.853 247.52 136.767C248.796 136.409 250.375 137.119 251.83 137.776C245.562 137.53 241.669 141.984 237.254 144.996C233.14 147.794 233.755 154.788 237.824 157.526C238.301 157.993 238.731 158.505 239.108 159.055C237.275 158.73 236.081 158.528 234.89 158.301C231.739 157.695 229.8 159.285 230.035 162.456C230.36 167.175 230.825 171.878 231.236 176.589C231.26 176.782 231.299 176.973 231.352 177.16C232.403 181.252 241.43 185.677 245.374 184.055C245.598 183.961 245.899 184.058 246.2 184.067C244.644 186.861 244.644 186.861 236.912 186.139C239.366 190.124 241.978 193.092 246.062 194.511C249.054 195.603 252.102 196.536 255.193 197.307C255.778 197.381 256.372 197.326 256.933 197.143C257.494 196.961 258.007 196.657 258.436 196.252C260.872 193.538 260.218 189.496 257.324 187.345C256.736 186.795 256.183 186.208 255.669 185.587C263.785 187.94 270.639 185.304 277.563 183.346C278.992 183.001 280.285 182.238 281.277 181.153C282.269 180.068 282.914 178.712 283.129 177.258C283.865 173.508 284.707 169.779 285.501 166.042L286.304 165.797C286.609 167.197 287.201 168.625 287.146 170.022C287.05 172.518 286.48 174.994 286.251 177.49C285.861 181.717 283.736 184.819 279.728 185.893C274.811 187.211 269.719 187.902 264.697 188.814C263.725 188.909 262.748 188.934 261.772 188.889Z" fill="url(#paint4_linear_40_354)"/>
<path d="M156.618 322.861C155.943 313.584 148.972 309.661 142.945 305.974C135.559 301.436 131.548 294.803 127.685 287.808C124.973 282.901 122.849 277.662 120.596 272.514C117.258 264.902 117.607 257.422 121.737 250.171C124.065 246.098 128.81 244.37 133.432 245.938C127.862 249.366 126.362 254.892 127.091 260.692C127.868 266.245 129.272 271.691 131.277 276.927C135.362 288.082 141.286 298.354 148.233 307.942C150.011 310.4 152.606 312.302 154.969 314.287C157.776 316.654 158.381 318.671 156.618 322.861Z" fill="url(#paint5_linear_40_354)"/>
<path d="M317.435 135.997C317.584 138.897 315.852 139.547 314.25 140C312.336 140.578 310.316 140.704 308.345 140.37C306.375 140.036 304.509 139.251 302.893 138.075C301.148 136.837 300.583 137.444 299.371 138.566C295.407 142.241 291.327 145.802 287.16 149.269C286.475 149.844 285.252 149.768 284.273 149.995L283.886 148.934C285.939 147.387 288.063 145.928 290.033 144.282C292.63 142.106 295.053 139.729 297.645 137.551C299.46 136.029 299.113 134.916 297.589 133.341C291.965 127.537 291.197 121.828 294.875 114.834C297.01 110.766 303.606 107.639 308.486 108.385C309.903 108.601 311.313 108.877 313.016 109.178C313.401 106.807 313.758 104.619 314.103 102.459L314.723 102.491C314.637 104.071 314.462 105.646 314.2 107.207C313.8 109.052 313.996 110.145 316.031 111.019C329.865 116.965 333.652 137.696 328.676 146.708C324.825 153.66 318.71 157.514 311.572 159.793C305.777 161.647 299.718 162.684 293.768 164.014C293.072 164.159 292.326 163.902 291.609 163.828L291.566 162.998C292.211 162.725 292.884 162.525 293.573 162.402C301.142 161.849 308.21 159.337 314.819 155.854C323.91 151.097 329.359 144.16 328.339 133.06C327.417 123.029 322.445 114.955 313.731 111.249C313.416 111.561 313.165 111.931 312.99 112.338C311.584 120.036 308.213 126.833 303.667 133.131C302.007 135.43 302.34 136.588 305.188 137.178C307.373 137.628 309.761 137.31 312.038 137.103C313.753 136.964 315.406 136.438 317.435 135.997ZM312.413 110.891C309.415 109.888 306.15 110.038 303.257 111.313C300.364 112.587 298.049 114.895 296.766 117.784C294.258 123.264 296.115 130.912 300.807 133.735C306.577 127.246 310.575 119.378 312.413 110.891Z" fill="url(#paint6_linear_40_354)"/>
<path d="M137.977 153.488C140.479 156.402 141.491 159.273 140.069 162.759C137.764 168.415 134.006 172.984 128.229 174.84C120.049 177.464 111.63 179.344 103.269 181.339C101.858 181.671 100.194 181.114 98.7024 180.778C95.8774 180.134 93.0785 179.357 90.2712 178.613C86.4167 177.591 82.6211 177.228 78.8828 180.023C80.3197 177.063 81.7791 176.073 84.3616 176.764C89.9984 178.274 95.4617 177.368 101.004 176.249C109.679 174.497 118.208 172.347 126.174 168.407C130.798 166.119 134.732 163.046 136.702 158.064C137.205 156.746 137.465 155.329 137.977 153.488Z" fill="url(#paint7_linear_40_354)"/>
<path d="M187.845 292.321C187.009 297.867 186.407 303.577 179.045 305.417L183.79 301.24L183.272 300.497C182.506 300.803 181.719 301.041 180.95 301.339C175.791 303.352 170.993 301.455 167.95 296.804C166.61 294.757 164.298 293.332 162.282 291.502C162.914 291.507 164.079 291.171 164.673 291.603C166.54 292.899 168.241 294.418 169.738 296.127C171.579 298.352 173.496 300 176.581 299.67C179.9 299.327 183.063 298.651 184.25 295.019C186.294 288.788 187.63 282.461 185.507 275.948C185.094 274.545 184.37 273.253 183.389 272.168C182.409 271.082 181.197 270.231 179.843 269.677C173.586 267.044 167.385 264.278 161.076 261.795C156.736 260.088 153.541 261.62 151.816 266.06C151.08 267.958 150.586 269.94 150.345 271.961C150.125 273.833 150.378 275.781 150.428 277.673L149.452 277.92L147.404 270.881C145.041 271.952 142.652 273.082 140.202 274.179L139.862 273.494C140.584 272.957 141.336 272.461 142.112 272.006C146 269.986 149.191 267.342 150.981 263.177C152.935 258.632 157.421 258.125 161.329 259.436C167.484 261.511 173.579 263.769 179.642 266.102C185.534 268.374 189.246 274.333 189.033 280.851C189.011 282.11 188.895 283.366 188.686 284.609C188.168 287.291 188.713 289.46 190.414 291.833C193.279 295.823 193.909 300.452 191.46 305.013C190.405 306.982 188.859 308.601 185.755 307.958C188.741 305.436 190.556 302.468 190.257 298.781C190.079 296.598 189.271 294.463 188.753 292.305L187.845 292.321Z" fill="url(#paint8_linear_40_354)"/>
<path d="M120.983 285.486C120.556 287.098 120.45 288.2 119.993 289.132C116.728 295.696 119.102 301.536 122.082 307.396C124.75 312.901 128.656 317.714 133.493 321.459C142.771 328.53 152.208 329.167 162.205 323.423C164.815 321.925 167.385 320.359 169.92 318.753C170.767 318.143 171.573 317.479 172.335 316.766L172.991 318.088C172.855 318.517 172.651 318.922 172.387 319.287C161.673 329.562 150.759 333.364 136.109 326.529C126.275 321.916 119.855 314.26 116.616 303.836C114.528 297.052 115.853 291.222 120.983 285.486Z" fill="url(#paint9_linear_40_354)"/>
<path d="M48.0734 221.175C56.1217 225.117 62.1234 237.184 54.2771 246.675C56.3497 246.088 58.0238 245.425 59.7371 245.216C61.4505 245.007 63.2224 245.179 64.9693 245.188L65.0112 246.094C64.438 246.203 63.8617 246.304 63.2916 246.42C60.6643 246.94 57.9019 247.155 55.4356 248.067C52.6563 249.074 51.8725 251.68 51.8359 254.48C51.7937 257.633 54.5977 257.912 56.5409 258.881C57.5037 259.404 58.6322 259.533 59.6882 259.24C60.7443 258.947 61.6452 258.256 62.2008 257.311C63.555 255.178 64.387 252.682 65.2242 250.276C65.6363 249.052 65.5138 247.654 65.6732 245.896C68.7986 252.098 64.3418 260.166 58.0351 260.481C56.987 260.48 55.9592 260.192 55.0634 259.647C51.8822 257.811 51.3595 257.935 49.6077 261.362C47.8319 258.956 45.9009 257.974 42.6908 259.023C39.2733 260.142 36.1625 258.393 33.9662 255.711C32.7529 254.091 31.7824 252.302 31.0855 250.401C29.8902 247.515 30.6522 246.111 33.6921 245.414C37.919 244.433 41.4991 245.991 44.6678 248.697C45.2049 249.211 45.7059 249.761 46.1674 250.344L46.9191 249.982C46.5023 249.093 46.3183 247.853 45.6225 247.376C39.1049 242.958 37.5383 237.305 41.1647 230.27C42.0641 228.553 43.1159 226.921 44.3076 225.392C45.4331 223.865 46.8209 222.54 48.0734 221.175ZM48.5923 222.477C47.0376 224.618 45.6595 226.925 43.8465 228.841C40.7956 232.058 40.6508 235.967 40.8319 239.913C40.9727 242.936 45.3894 247.136 47.8633 247.033C54.189 246.777 58.4483 240.349 56.5225 234.264C55.17 229.605 52.3978 225.485 48.5923 222.477ZM39.959 258.547C40.9593 258.241 43.6045 258.211 44.4298 256.999C44.9523 256.063 45.2756 255.03 45.3792 253.963C45.4829 252.896 45.3647 251.82 45.0322 250.801C43.4396 246.597 35.8604 244.766 32.2539 247.358C31.9988 247.58 31.8009 247.859 31.6768 248.174C31.5528 248.488 31.5062 248.828 31.5412 249.164C32.8441 253.054 35.1417 256.178 39.959 258.547ZM49.2093 258.083L50.6172 258.054C50.6029 256.36 50.2894 254.596 50.6591 252.998C51.0933 251.117 52.1281 249.373 52.9035 247.569L52.4612 246.871C51.0425 247.708 48.4954 248.44 48.4125 249.4C48.1464 252.203 48.8542 255.146 49.1895 258.055L49.2093 258.083Z" fill="url(#paint10_linear_40_354)"/>
<path d="M95.8433 159.671C93.2717 159.575 90.9627 159.324 88.6748 159.438C87.1138 159.484 85.5799 159.023 84.3027 158.124C83.0255 157.225 82.0736 155.937 81.5893 154.452C81.3471 153.457 80.8762 152.531 80.2141 151.749C79.9671 153.076 79.7117 154.394 79.3316 156.444C77.8423 150.819 81.0193 147.706 84.2926 143.957C78.34 145.204 75.8192 148.605 74.9158 153.614L74.1461 153.53C74.0792 152.417 73.7881 151.264 73.9881 150.209C74.7243 146.326 79.0412 142.613 83.4503 142.389C85.5484 142.289 86.8019 141.394 88.1537 140.035C89.7394 138.341 91.5177 136.838 93.4524 135.557C97.1649 133.264 101.081 133.508 104.801 135.715C108.634 137.997 112.356 140.466 116.12 142.864C119.102 144.779 120.574 147.568 119.269 150.458C117.282 154.843 116.465 159.268 117.378 164.049L116.602 164.173C116.401 163.268 116.148 162.366 116.009 161.45C115.826 160.401 115.779 159.36 115.639 158.063C113.712 158.96 112.039 159.738 110.363 160.508L109.944 159.935C110.594 159.351 111.255 158.773 111.897 158.18C112.949 157.329 113.935 156.4 114.848 155.401C119.658 149.389 118.837 146.238 111.927 142.85C108.98 141.399 106.209 139.568 103.405 137.843C99.6042 135.499 95.8294 135.855 92.5931 138.575C89.6946 141.142 87.0079 143.939 84.5589 146.938C82.3235 149.542 82.6113 152.443 84.294 155.317C85.8201 157.964 88.0789 157.844 90.6203 157.509C92.8089 157.213 94.7403 157.84 95.8433 159.671Z" fill="url(#paint11_linear_40_354)"/>
<path d="M74.8952 167.799C75.0112 169.581 74.9336 171.399 75.2792 173.134C76.1851 177.652 76.4004 182.596 78.4783 186.528C82.2264 193.612 89.5576 194.809 96.8419 194.743C99.8864 194.714 102.976 193.752 105.937 192.944C110.295 191.747 113.927 189.465 116.005 185.22C116.282 184.709 116.605 184.223 116.97 183.77C117.072 183.637 117.297 183.6 117.465 183.52C116.335 191.064 110.56 194.614 104.97 196.359C95.1966 199.428 86.236 197.86 78.8384 190.589C72.3205 184.179 72.5055 176.09 73.8652 167.908L74.8952 167.799Z" fill="url(#paint12_linear_40_354)"/>
<path d="M46.135 189.987C44.6996 190.714 43.9494 191.147 43.1548 191.49C36.861 194.196 31.7527 198.083 30.0537 205.135C29.7003 206.839 29.6295 208.589 29.8441 210.315C30.2092 213.967 29.8152 215.415 27.0475 218.564C22.9534 215.384 24.7632 203.971 27.822 198.949C31.4074 193.057 40.7709 188.182 46.135 189.987Z" fill="url(#paint13_linear_40_354)"/>
<path d="M151.049 304.192C157.754 304.442 164.234 304.506 170.642 305.002C175.525 305.397 180.171 307.272 183.96 310.377C185.205 311.362 185.941 312.985 186.911 314.315L186.325 314.748C184.81 313.463 183.359 312.085 181.774 310.89C177.352 307.6 172.282 306.81 166.896 307.033C163.276 307.177 159.644 306.979 155.739 306.931C158.979 309.96 162.921 310.703 167.092 310.37C172.707 309.923 177.332 312 181.51 315.457C181.987 315.939 182.418 316.463 182.797 317.025C182.405 317.11 182.172 317.238 182.098 317.175C177.456 313.321 172.382 312.2 166.231 312.772C160.459 313.304 154.97 311.008 151.567 305.569C151.344 305.131 151.17 304.669 151.049 304.192Z" fill="url(#paint14_linear_40_354)"/>
<path d="M257.598 140.414C249.767 146.473 252.153 154.114 253.528 161.467C254.194 165.025 255.447 168.469 256.614 172.617C253.604 169.687 250.628 167.641 249.929 163.776C249.126 159.314 247.826 154.9 247.431 150.404C246.95 144.571 252 139.581 257.598 140.414Z" fill="url(#paint15_linear_40_354)"/>
<path d="M21.4286 268.266C18.1317 272.602 17.5375 277.541 17.4243 282.763C17.2402 291.5 22.5392 299.359 30.7644 301.752C37.205 303.62 44.0408 298.414 43.3628 291.786C43.1506 289.741 41.4509 287.793 40.2852 285.916C39.3342 284.365 38.1818 282.944 36.7622 280.964C42.3726 282.107 46.0833 287.64 45.6609 292.888C45.2943 297.43 43.933 301.336 39.2509 302.977C33.5233 304.955 28.3769 303.441 23.9399 299.568C16.1607 292.787 14.4725 284.126 16.9407 274.532C17.5446 272.153 19.3196 270.074 20.5637 267.843L21.4286 268.266Z" fill="url(#paint16_linear_40_354)"/>
<path d="M175.227 259.625C173.945 257.044 172.953 254.792 171.734 252.669C168.613 247.224 163.66 245.114 157.588 245.207C152.107 245.25 146.763 246.928 142.241 250.028C137.812 253.071 133.669 256.543 129.851 259.481C130.436 258.546 131.18 256.684 132.484 255.405C139.624 248.427 147.556 242.855 158.015 242.34C167.46 241.895 175.342 249.647 175.227 259.625Z" fill="url(#paint17_linear_40_354)"/>
<path d="M203.15 330.587C212.55 326.425 221.8 331.733 223.822 341.52C224.574 345.141 224.627 348.367 221.224 350.855C217.717 353.42 214.021 354.141 209.997 352.538C207.112 351.387 205.604 349.064 205.438 346.012C205.308 343.527 205.685 341.158 209.079 339.547C209.119 341.226 209.572 342.696 209.086 343.723C208.008 346.025 207.405 348.329 209.239 350.214C210.074 351.107 211.145 351.746 212.327 352.057C213.509 352.369 214.755 352.341 215.922 351.976C218.566 351.21 220.759 349.914 221.505 347.044C223.586 339.059 216.27 331.183 208.711 330.649C207.142 330.552 205.543 330.613 203.15 330.587Z" fill="url(#paint18_linear_40_354)"/>
<path d="M168.689 289.993C163.844 287.454 161.582 283.095 161.038 277.305C158.55 278.475 156.207 279.574 153.878 280.685L153.477 279.802C157.807 278.39 160.467 273.527 165.85 274.286C166.62 274.348 167.383 274.478 168.13 274.677C173.5 276.483 178.168 286.12 176.147 291.442C175.293 293.694 173.915 295.557 170.795 295.586C174.934 292.049 176.222 288.138 173.084 283.117C171.948 285.597 170.488 287.342 167.921 285.597C166.418 284.577 164.905 283.109 166.22 281.01C166.513 280.534 167.733 280.633 168.579 281.085C167.958 281.497 167.334 281.914 166.717 282.334C167.527 283.075 168.251 284.002 169.2 284.466C169.585 284.632 170.809 283.953 171.046 283.402C171.987 281.212 169.948 276.866 167.669 276.502C166.383 276.292 164.59 276.612 163.708 277.425C163.002 278.079 162.788 280.112 163.28 281.047C164.873 284.129 166.886 287.03 168.689 289.993Z" fill="url(#paint19_linear_40_354)"/>
<path d="M234.621 231.049C234.965 237.629 232.046 242.235 228.181 246.447C227.103 247.626 226.114 248.895 225.084 250.126C224.963 250.277 224.833 250.42 224.696 250.556C223.019 252.169 214.144 253.34 211.823 252.603C208.627 251.597 206.031 250.303 204.964 246.705C204.404 244.835 202.555 245.036 201.031 245.909C200.128 246.416 199.334 247.083 197.849 247.307C198.347 246.443 198.663 245.412 199.369 244.745C201.404 242.825 202.822 240.344 203.441 237.615C205.343 229.103 213.391 225.401 223.406 226.198C225.341 226.357 227.276 226.593 229.198 226.829L229.087 227.898C226.253 227.631 223.397 227 220.59 227.157C211.795 227.652 207.155 230.199 204.711 237.273C203.983 239.364 203.41 241.509 202.776 243.59C205.122 246.012 207.475 248.33 209.701 250.765C211.713 252.961 214.152 252.215 216.486 251.861C217.956 251.629 219.321 250.783 220.76 250.298C225.22 248.777 228.305 245.657 230.515 241.666C231.985 239.012 233.967 236.496 233.637 233.132C233.589 232.61 234.132 232.038 234.621 231.049Z" fill="url(#paint20_linear_40_354)"/>
<path d="M107.641 237.871C98.081 237.727 95.4138 230.149 91.5862 222.999C94.9161 223.796 97.7802 224.392 100.581 225.209C100.943 225.366 101.264 225.606 101.517 225.908C101.77 226.211 101.949 226.568 102.039 226.952C102.553 231.277 104.193 234.943 107.641 237.871Z" fill="url(#paint21_linear_40_354)"/>
<path d="M70.9202 161.08C75.2948 160.804 79.0687 162.87 81.5269 166.831C83.1907 169.513 85.2329 171.652 88.9707 172.371C86.0373 168.453 83.8462 164.46 80.6546 161.585C78.1091 159.273 74.38 158.254 70.9179 156.57C72.3487 156.62 73.9274 156.385 75.3257 156.777C79.0896 157.841 82.3814 160.15 84.663 163.327C87.2357 166.786 89.9233 170.155 92.5412 173.538C89.7261 175.144 85.196 174.085 81.9437 170.791C81.203 170.035 80.3423 169.233 79.9898 168.283C78.5324 164.295 75.4837 162.401 71.5164 161.641C71.3229 161.59 71.1702 161.296 70.9202 161.08Z" fill="url(#paint22_linear_40_354)"/>
<path d="M278.283 175.074L280.856 169.088L280.073 168.194C278.886 172.58 275.859 171.786 272.961 171.549C269.215 171.246 269.294 167.506 267.307 165.637L267.828 165.119C268.622 166.031 269.58 166.842 270.185 167.87C271.985 170.927 275.844 171.349 277.999 168.533C278.918 167.285 279.697 165.939 280.32 164.52C282.528 159.678 281.744 157.369 277.156 154.674C275.576 153.747 273.956 152.867 272.455 151.829C268.538 149.137 265.964 149.724 263.7 153.901C263.292 154.658 263.009 155.507 262.508 156.674L261.372 153.503C262.633 152.472 263.905 151.579 264.999 150.508C267.074 148.469 269.324 148.561 271.637 149.821C274.115 151.14 276.552 152.537 278.986 153.944C282.877 156.181 283.994 159.204 282.185 163.235C281.377 164.869 281.249 166.758 281.831 168.486C282.731 171.454 281.257 173.865 278.283 175.074Z" fill="url(#paint23_linear_40_354)"/>
<path d="M111.184 134.469C119.395 127.85 129.16 131.413 131.41 141.437C133.04 148.727 133.498 155.971 130.535 163.145C130.712 159.175 131.341 155.247 130.947 151.443C130.532 147.389 129.755 143.161 128.079 139.491C125.265 133.303 120.43 131.625 113.855 133.568C112.954 133.835 112.075 134.167 111.184 134.469Z" fill="url(#paint24_linear_40_354)"/>
<path d="M106.398 159.019L105.417 153.156C101.9 155.215 98.407 156.923 94.2266 155.139C96.7727 154.705 99.1526 154.421 101.462 153.86C103.14 153.452 104.778 152.431 104.196 150.449C103.895 149.451 102.308 148.039 101.519 148.163C99.8841 148.425 98.3809 149.561 96.8811 150.439C96.7701 150.505 96.9839 151.675 97.328 151.848C98.0226 152.088 98.7506 152.217 99.4853 152.23L99.7444 150.344L100.216 150.147C100.35 150.838 100.723 152.109 100.559 152.197C99.4902 152.676 98.1796 153.394 97.1905 153.128C94.7771 152.471 95.4938 150.553 96.3014 148.673C91.6883 149.475 89.9515 152.35 89.8512 156.893C88.3058 154.453 88.5264 152.715 90.2594 150.542C92.7125 147.461 99.0709 145.196 102.371 146.475C108.54 148.828 106.285 154.398 106.398 159.019Z" fill="url(#paint25_linear_40_354)"/>
<path d="M210.511 145.179C209.831 148.134 208.96 149.777 205.924 150.451C199.78 151.818 195.374 156.064 192.632 161.705C189.954 167.213 187.73 172.949 185.735 177.59C186.257 171.301 189.406 164.859 193.301 158.643C195.954 154.405 198.906 150.472 203.214 147.916C205.418 146.58 208.064 146.062 210.511 145.179Z" fill="url(#paint26_linear_40_354)"/>
<path d="M136.372 275.666C141.726 277.967 147.172 280.054 152.387 282.676C154.401 283.79 156.034 285.483 157.072 287.537C159.329 292.186 161.263 296.985 162.862 301.899C161.407 299.942 159.765 298.094 158.548 295.998C157.096 293.472 156.001 290.781 154.756 288.159C154.132 286.788 153.22 285.568 152.083 284.581C150.945 283.594 149.608 282.864 148.163 282.44C146.015 281.837 143.929 281.034 141.932 280.041C139.833 278.904 137.972 277.33 136.01 275.948L136.372 275.666Z" fill="url(#paint27_linear_40_354)"/>
<path d="M243.861 160.216C241.217 167.725 242.88 173.685 248.527 178.579C254.536 183.781 260.861 180.709 267.199 179.405C262.944 182.194 258.423 183.593 253.352 182.404C245.967 180.669 240.574 174.178 240.624 167.039C240.632 164.423 241.37 162.158 243.861 160.216Z" fill="url(#paint28_linear_40_354)"/>
<path d="M133.317 272.71C132.776 267.137 135.043 262.79 138.874 259.147C141.987 256.153 145.658 255.301 150 256.99C141.321 258.987 136.791 265.248 133.317 272.71Z" fill="url(#paint29_linear_40_354)"/>
<path d="M149.579 217.327C150.466 216.103 151.177 215.083 151.939 214.079C156.901 218.679 158.822 232.817 155.021 238.96C156.19 231.046 155.093 223.711 149.579 217.327Z" fill="url(#paint30_linear_40_354)"/>
<path d="M275.881 138.028C276.511 136.561 277.208 135.117 277.775 133.622C279.36 129.343 279.83 125.106 278.254 120.597C277.816 119.344 279.154 117.47 279.702 115.752C284.658 119.303 281.212 134.376 276.549 138.423L275.881 138.028Z" fill="url(#paint31_linear_40_354)"/>
<path d="M60.4851 137.93C59.8536 138.927 59.3876 140.483 58.5487 140.738C57.9355 140.849 57.3051 140.821 56.7045 140.655C56.1038 140.489 55.5482 140.19 55.079 139.78C52.1599 136.832 53.1193 132.43 56.875 130.613C60.9912 128.621 66.3725 130.09 68.2264 133.937C68.8257 135.184 68.6963 136.784 68.9205 138.225L67.8699 138.338C67.7604 137.619 67.69 136.897 67.5285 136.181C66.6025 131.901 61.2185 129.302 57.3982 131.491C56.259 132.149 54.8901 133.622 54.876 134.732C54.8522 136.264 56.0328 137.811 56.6962 139.352L59.7805 137.798L60.4851 137.93Z" fill="url(#paint32_linear_40_354)"/>
<path d="M117.034 167.758C115.522 167.425 113.988 167.172 112.506 166.725C111.77 166.468 111.096 166.062 110.526 165.532C106.259 161.795 101.621 162.167 96.6798 163.982C94.4738 164.791 92.0435 164.971 89.7154 165.429L89.4723 164.519L92.4603 163.691C93.6757 163.357 95.0446 163.286 96.0782 162.652C101.549 159.295 106.309 160.852 111.085 164.231C112.846 165.476 115.089 166.027 117.107 166.895L117.034 167.758Z" fill="url(#paint33_linear_40_354)"/>
<path d="M120.092 168.184C123.494 161.743 125.823 155.793 122.964 149.001C129.755 151.825 126.258 164.624 120.092 168.184Z" fill="url(#paint34_linear_40_354)"/>
<path d="M271.56 176.402C267.196 175.104 261.129 176.853 258.732 170.255C264.932 172.285 271.666 171.152 275.684 177.255C272.016 173.141 267.07 173.051 262.251 172.56L261.992 173.267L271.56 176.402Z" fill="url(#paint35_linear_40_354)"/>
<path d="M10.8406 393.047C11.8868 392.089 12.9895 391.161 14.0403 390.192C15.9136 388.46 16.0129 385.705 14.2292 384.381C12.8575 383.366 11.4928 383.059 10.3508 384.934C10.0515 384.317 9.9313 383.637 9.53681 383.315C8.53524 382.561 7.26714 381.306 6.35872 381.486C5.21841 381.719 3.92861 382.979 3.39334 384.151C1.91713 387.379 3.59362 390.326 4.7942 393.258C2.01572 390.485 1.067 385.948 2.65015 382.899C4.37821 379.557 7.15154 379.125 9.91193 381.631C10.4768 382.146 11.411 382.231 12.0885 382.661C13.4756 383.537 15.6952 384.319 15.9458 385.493C16.2831 387.084 15.4133 389.196 14.4614 390.702C13.7609 391.816 12.0786 392.292 10.8406 393.047Z" fill="url(#paint36_linear_40_354)"/>
<path d="M314.241 98.2115C313.536 96.7225 312.713 94.212 311.252 92.1507C309.825 90.044 307.992 88.2428 305.861 86.8527C304.083 85.7782 303.286 84.814 303.672 82.8549C308.948 83.9491 314.539 92.6629 314.241 98.2115Z" fill="url(#paint37_linear_40_354)"/>
<path d="M278.782 148.84C273.125 138.391 265.276 142.693 257.663 144.983C261.641 141.219 270.714 139.81 275.158 142.132C277.744 143.478 278.707 145.636 278.782 148.84Z" fill="url(#paint38_linear_40_354)"/>
<path d="M78.9803 220.099C79.2604 223.004 79.5043 225.506 79.7504 228.003L80.4574 227.996C81.237 225.769 82.0116 223.544 82.7811 221.32L83.3112 221.459L81.4076 232.559C78.1513 230.189 76.685 223.698 78.9803 220.099Z" fill="url(#paint39_linear_40_354)"/>
<path d="M114.678 344.915C112.395 348.855 110.558 352.023 108.742 355.156L107.502 354.706C108.083 351.15 108.668 347.596 109.256 344.043L109.827 344.041C109.829 345.824 109.838 347.604 109.837 349.494C111.597 348.233 110.941 344.964 114.678 344.915Z" fill="url(#paint40_linear_40_354)"/>
<path d="M119.373 221.229L117.539 216.064C119.732 216.867 121.881 222.846 120.582 224.349C120.33 224.64 119.133 224.576 118.771 224.237C117.154 222.716 115.619 221.11 114.173 219.425C113.838 219.04 113.91 218.297 113.79 217.719C114.374 217.837 115.121 217.765 115.523 218.115C116.718 219.2 117.779 220.436 118.891 221.612L119.373 221.229Z" fill="url(#paint41_linear_40_354)"/>
<path d="M10.2576 331.698C1.73994 339.194 0.640968 349.13 1.06265 360.265C-1.9469 350.016 2.28518 337.247 10.2576 331.698Z" fill="url(#paint42_linear_40_354)"/>
<path d="M268.269 160.108L267.578 157.819C270.552 156.434 273.032 157.157 274.338 159.799C275.961 163.078 275.133 165.918 271.685 167.538C276.139 165.26 272.838 162.287 272.677 159.636C272.643 159.108 271.327 158.143 270.857 158.277C269.939 158.523 269.183 159.397 268.269 160.108Z" fill="url(#paint43_linear_40_354)"/>
<path d="M90.3642 318.742L82.7592 323.465L82.9798 323.94L90.1196 323L90.2252 323.788L80.4853 325.538L80.1801 324.773C82.6003 321.665 85.4927 319.362 90.3642 318.742Z" fill="url(#paint44_linear_40_354)"/>
<path d="M226.705 235.772C221.567 240.128 214.538 239.378 208.88 242.376L208.457 241.56C209.642 240.832 210.883 240.199 212.169 239.667C216.881 238.102 221.635 236.663 226.374 235.186C226.417 235.183 226.461 235.19 226.501 235.207C226.541 235.225 226.576 235.251 226.604 235.285C226.662 235.386 226.66 235.493 226.705 235.772Z" fill="url(#paint45_linear_40_354)"/>
<path d="M230.086 185.419C229.794 186.378 229.508 187.34 229.144 188.541L231.236 187.892L231.686 188.587C230.287 189.571 228.914 190.611 227.461 191.496C227.207 191.565 226.94 191.574 226.682 191.522C226.423 191.471 226.18 191.36 225.972 191.199C225.745 191.019 225.754 190.23 225.929 189.912C226.982 188.258 228.13 186.665 229.25 185.047L230.086 185.419Z" fill="url(#paint46_linear_40_354)"/>
<path d="M263.821 147.008L255.124 152.087C255.15 148.927 260.223 145.861 263.821 147.008Z" fill="url(#paint47_linear_40_354)"/>
<path d="M71.9981 223.314L73.9688 219.968L74.5041 220.199L71.9225 226.205C69.6846 224.52 69.4384 221.389 71.751 218.045C71.6418 220.085 71.563 221.611 71.4704 223.125L71.9981 223.314Z" fill="url(#paint48_linear_40_354)"/>
<path d="M220.562 169.636L222.429 170.68L222.407 171.482C220.608 171.635 218.813 171.794 217.021 171.958L216.517 170.784C218.279 169.537 220.037 168.29 221.791 167.044L222.53 167.951L220.562 169.636Z" fill="url(#paint49_linear_40_354)"/>
<path d="M264.772 168.849C264.174 163.2 261.969 158.695 256.126 156.78C263.619 159.194 265.281 161.526 264.772 168.849Z" fill="url(#paint50_linear_40_354)"/>
<path d="M188.408 253.334C186.646 247.503 187.024 246.447 190.953 244.876C190.171 247.477 189.344 250.229 188.408 253.334Z" fill="url(#paint51_linear_40_354)"/>
<path d="M233.831 192.141L236.768 193.853C234.647 195.422 232.805 196.786 230.957 198.149L230.311 197.573C231.485 195.756 232.664 193.941 233.831 192.141Z" fill="url(#paint52_linear_40_354)"/>
<path d="M80.6801 313.146C79.9777 313.187 79.1306 313.254 78.2836 313.277C77.6658 313.223 77.0515 313.135 76.4436 313.013C79.7676 310.636 82.3835 308.474 86.841 308.005C84.6915 310.424 80.4372 308.989 80.6801 313.146Z" fill="url(#paint53_linear_40_354)"/>
<path d="M22.1319 343.709C19.9763 346.112 15.4418 344.798 15.982 349.311C14.8672 344.792 15.385 344.31 22.1319 343.709Z" fill="url(#paint54_linear_40_354)"/>
<path d="M150.547 212.815C148.895 213.221 147.874 213.619 146.866 213.605C146.602 213.599 145.963 211.853 146.193 211.628C146.883 210.955 147.783 210.538 148.743 210.447C149.175 210.43 149.649 211.585 150.547 212.815Z" fill="url(#paint55_linear_40_354)"/>
<path d="M54.4065 254.83C55.7113 253.831 56.965 252.759 58.3355 251.857C59.706 250.956 61.1299 250.299 62.537 249.534L62.9672 250.156C60.2904 251.928 57.622 253.709 54.9621 255.5L54.4065 254.83Z" fill="url(#paint56_linear_40_354)"/>
<path d="M198.347 213.519C202.275 216.983 202.467 218.099 200.086 220.704L198.347 213.519Z" fill="url(#paint57_linear_40_354)"/>
<path d="M30.8499 220.445C30.6824 218.813 30.2565 217.768 30.603 217.168C30.9495 216.569 32.0721 216.436 32.8536 216.093C33.0548 216.864 33.6086 217.775 33.3686 218.363C33.1047 219.036 32.1287 219.447 30.8499 220.445Z" fill="url(#paint58_linear_40_354)"/>
<path d="M34.4202 323.455C37.3123 320.651 38.2133 320.931 40.9051 325.411C38.9822 324.026 37.2705 321.87 34.4202 323.455Z" fill="url(#paint59_linear_40_354)"/>
<path d="M65.7705 285.427C66.137 284.21 66.5058 282.988 66.8769 281.761L65.2194 279.64L65.5887 279.209L68.3797 280.935L66.3802 285.588L65.7705 285.427Z" fill="url(#paint60_linear_40_354)"/>
<path d="M201.603 194.698L208.75 188.738L209.189 189.193L202.211 195.365L201.603 194.698Z" fill="url(#paint61_linear_40_354)"/>
<path d="M33.4173 356.233C32.6182 358.668 32.6182 358.668 26.6004 358.606L33.4173 356.233Z" fill="url(#paint62_linear_40_354)"/>
<path d="M50.8126 369.196C49.3065 369.513 48.371 369.993 47.6811 369.753C47.2099 369.595 47.0825 368.43 46.7986 367.719C47.5503 367.445 48.3459 366.849 49.0099 367.001C49.5545 367.121 49.9308 368.075 50.8126 369.196Z" fill="url(#paint63_linear_40_354)"/>
<path d="M173.336 186.577C168.744 186.931 168.526 186.774 168.079 183.15L173.336 186.577Z" fill="url(#paint64_linear_40_354)"/>
<path d="M162.15 162.634L164.449 166.863C160.975 166.372 160.455 165.413 162.15 162.634Z" fill="url(#paint65_linear_40_354)"/>
<path d="M277.528 115.896C276.425 116.279 275.465 116.874 275.196 116.645C274.621 116.101 274.284 115.352 274.258 114.561C274.258 114.237 275.578 113.498 275.904 113.683C276.498 114.014 276.821 114.87 277.528 115.896Z" fill="url(#paint66_linear_40_354)"/>
<path d="M93.9185 230.293C94.0463 231.826 94.1664 233.362 94.3191 235.191L98.6663 237.059C93.9648 236.65 92.5073 235.053 93.9185 230.293Z" fill="url(#paint67_linear_40_354)"/>
<path d="M331.35 146.684L332.078 140.8C334.075 143.383 333.73 145.278 331.35 146.684Z" fill="url(#paint68_linear_40_354)"/>
<path d="M214.869 247.315L210.082 244.802C210.265 244.449 210.446 244.089 210.629 243.736L215.521 246.181C215.308 246.559 215.089 246.935 214.869 247.315Z" fill="url(#paint69_linear_40_354)"/>
<path d="M32.4567 202.451C33.8641 200.652 35.0899 199.143 36.4912 197.373C36.5327 200.213 35.5707 201.906 32.4567 202.451Z" fill="url(#paint70_linear_40_354)"/>
<path d="M160.789 132.213C163.126 135.349 163.17 137.195 161.022 139.773L160.789 132.213Z" fill="url(#paint71_linear_40_354)"/>
<path d="M49.4622 228.54C51.594 233.674 48.1969 237.992 47.7934 242.753L46.968 242.608C47.8002 237.917 48.6316 233.228 49.4622 228.54Z" fill="url(#paint72_linear_40_354)"/>
<path d="M36.4188 250.138C39.9483 250.323 41.6792 251.682 42.4524 254.944L36.4188 250.138Z" fill="url(#paint73_linear_40_354)"/>
</g>
<defs>
<linearGradient id="paint0_linear_40_354" x1="160.099" y1="259.101" x2="119.116" y2="354.457" gradientUnits="userSpaceOnUse">
<stop stop-color="#C64D68"/>
<stop offset="1" stop-color="#9F3C52"/>
</linearGradient>
<linearGradient id="paint1_linear_40_354" x1="112.622" y1="145.333" x2="79.9797" y2="221.285" gradientUnits="userSpaceOnUse">
<stop stop-color="#C64D68"/>
<stop offset="1" stop-color="#9F3C52"/>
</linearGradient>
<linearGradient id="paint2_linear_40_354" x1="213.396" y1="102.024" x2="150.315" y2="248.798" gradientUnits="userSpaceOnUse">
<stop stop-color="#C64D68"/>
<stop offset="1" stop-color="#9F3C52"/>
</linearGradient>
<linearGradient id="paint3_linear_40_354" x1="77.9345" y1="276.014" x2="30.8592" y2="385.547" gradientUnits="userSpaceOnUse">
<stop stop-color="#C64D68"/>
<stop offset="1" stop-color="#9F3C52"/>
</linearGradient>
<linearGradient id="paint4_linear_40_354" x1="266.679" y1="144.146" x2="243.646" y2="197.739" gradientUnits="userSpaceOnUse">
<stop stop-color="#C64D68"/>
<stop offset="1" stop-color="#9F3C52"/>
</linearGradient>
<linearGradient id="paint5_linear_40_354" x1="152.919" y1="254.312" x2="128.628" y2="310.831" gradientUnits="userSpaceOnUse">
<stop stop-color="#C64D68"/>
<stop offset="1" stop-color="#9F3C52"/>
</linearGradient>
<linearGradient id="paint6_linear_40_354" x1="322.486" y1="105.827" x2="296.631" y2="165.987" gradientUnits="userSpaceOnUse">
<stop stop-color="#C64D68"/>
<stop offset="1" stop-color="#9F3C52"/>
</linearGradient>
<linearGradient id="paint7_linear_40_354" x1="120.417" y1="145.941" x2="101.577" y2="189.777" gradientUnits="userSpaceOnUse">
<stop stop-color="#C64D68"/>
<stop offset="1" stop-color="#9F3C52"/>
</linearGradient>
<linearGradient id="paint8_linear_40_354" x1="176.268" y1="264.641" x2="161.909" y2="298.052" gradientUnits="userSpaceOnUse">
<stop stop-color="#C64D68"/>
<stop offset="1" stop-color="#9F3C52"/>
</linearGradient>
<linearGradient id="paint9_linear_40_354" x1="148.271" y1="297.214" x2="135.731" y2="326.391" gradientUnits="userSpaceOnUse">
<stop stop-color="#C64D68"/>
<stop offset="1" stop-color="#9F3C52"/>
</linearGradient>
<linearGradient id="paint10_linear_40_354" x1="59.0149" y1="225.878" x2="43.7776" y2="261.331" gradientUnits="userSpaceOnUse">
<stop stop-color="#C64D68"/>
<stop offset="1" stop-color="#9F3C52"/>
</linearGradient>
<linearGradient id="paint11_linear_40_354" x1="104.845" y1="135.6" x2="93.3051" y2="162.45" gradientUnits="userSpaceOnUse">
<stop stop-color="#C64D68"/>
<stop offset="1" stop-color="#9F3C52"/>
</linearGradient>
<linearGradient id="paint12_linear_40_354" x1="96.4668" y1="174.495" x2="87.1478" y2="196.178" gradientUnits="userSpaceOnUse">
<stop stop-color="#C64D68"/>
<stop offset="1" stop-color="#9F3C52"/>
</linearGradient>
<linearGradient id="paint13_linear_40_354" x1="39.9666" y1="187.336" x2="26.6235" y2="218.382" gradientUnits="userSpaceOnUse">
<stop stop-color="#C64D68"/>
<stop offset="1" stop-color="#9F3C52"/>
</linearGradient>
<linearGradient id="paint14_linear_40_354" x1="171.28" y1="303.903" x2="166.484" y2="315.061" gradientUnits="userSpaceOnUse">
<stop stop-color="#C64D68"/>
<stop offset="1" stop-color="#9F3C52"/>
</linearGradient>
<linearGradient id="paint15_linear_40_354" x1="260.044" y1="141.465" x2="248.208" y2="169.004" gradientUnits="userSpaceOnUse">
<stop stop-color="#C64D68"/>
<stop offset="1" stop-color="#9F3C52"/>
</linearGradient>
<linearGradient id="paint16_linear_40_354" x1="35.8012" y1="274.392" x2="24.4418" y2="300.823" gradientUnits="userSpaceOnUse">
<stop stop-color="#C64D68"/>
<stop offset="1" stop-color="#9F3C52"/>
</linearGradient>
<linearGradient id="paint17_linear_40_354" x1="160.28" y1="241.541" x2="149.028" y2="267.723" gradientUnits="userSpaceOnUse">
<stop stop-color="#C64D68"/>
<stop offset="1" stop-color="#9F3C52"/>
</linearGradient>
<linearGradient id="paint18_linear_40_354" x1="216.936" y1="331.054" x2="208.059" y2="351.708" gradientUnits="userSpaceOnUse">
<stop stop-color="#C64D68"/>
<stop offset="1" stop-color="#9F3C52"/>
</linearGradient>
<linearGradient id="paint19_linear_40_354" x1="169.314" y1="275.162" x2="162.136" y2="291.864" gradientUnits="userSpaceOnUse">
<stop stop-color="#C64D68"/>
<stop offset="1" stop-color="#9F3C52"/>
</linearGradient>
<linearGradient id="paint20_linear_40_354" x1="223.605" y1="224.425" x2="211.288" y2="253.083" gradientUnits="userSpaceOnUse">
<stop stop-color="#C64D68"/>
<stop offset="1" stop-color="#9F3C52"/>
</linearGradient>
<linearGradient id="paint21_linear_40_354" x1="101.66" y1="225.673" x2="97.7219" y2="234.836" gradientUnits="userSpaceOnUse">
<stop stop-color="#C64D68"/>
<stop offset="1" stop-color="#9F3C52"/>
</linearGradient>
<linearGradient id="paint22_linear_40_354" x1="83.7917" y1="160.256" x2="79.317" y2="170.667" gradientUnits="userSpaceOnUse">
<stop stop-color="#C64D68"/>
<stop offset="1" stop-color="#9F3C52"/>
</linearGradient>
<linearGradient id="paint23_linear_40_354" x1="276.269" y1="151.767" x2="268.128" y2="170.709" gradientUnits="userSpaceOnUse">
<stop stop-color="#C64D68"/>
<stop offset="1" stop-color="#9F3C52"/>
</linearGradient>
<linearGradient id="paint24_linear_40_354" x1="127.488" y1="133.385" x2="117.166" y2="157.4" gradientUnits="userSpaceOnUse">
<stop stop-color="#C64D68"/>
<stop offset="1" stop-color="#9F3C52"/>
</linearGradient>
<linearGradient id="paint25_linear_40_354" x1="101.831" y1="146.233" x2="96.0959" y2="159.577" gradientUnits="userSpaceOnUse">
<stop stop-color="#C64D68"/>
<stop offset="1" stop-color="#9F3C52"/>
</linearGradient>
<linearGradient id="paint26_linear_40_354" x1="205.39" y1="142.978" x2="189.769" y2="179.324" gradientUnits="userSpaceOnUse">
<stop stop-color="#C64D68"/>
<stop offset="1" stop-color="#9F3C52"/>
</linearGradient>
<linearGradient id="paint27_linear_40_354" x1="152.239" y1="282.402" x2="146.822" y2="295.005" gradientUnits="userSpaceOnUse">
<stop stop-color="#C64D68"/>
<stop offset="1" stop-color="#9F3C52"/>
</linearGradient>
<linearGradient id="paint28_linear_40_354" x1="256.688" y1="165.729" x2="250.016" y2="181.253" gradientUnits="userSpaceOnUse">
<stop stop-color="#C64D68"/>
<stop offset="1" stop-color="#9F3C52"/>
</linearGradient>
<linearGradient id="paint29_linear_40_354" x1="144.929" y1="254.811" x2="136.625" y2="274.132" gradientUnits="userSpaceOnUse">
<stop stop-color="#C64D68"/>
<stop offset="1" stop-color="#9F3C52"/>
</linearGradient>
<linearGradient id="paint30_linear_40_354" x1="157.394" y1="216.423" x2="148.848" y2="236.307" gradientUnits="userSpaceOnUse">
<stop stop-color="#C64D68"/>
<stop offset="1" stop-color="#9F3C52"/>
</linearGradient>
<linearGradient id="paint31_linear_40_354" x1="282.955" y1="117.15" x2="274.239" y2="137.43" gradientUnits="userSpaceOnUse">
<stop stop-color="#C64D68"/>
<stop offset="1" stop-color="#9F3C52"/>
</linearGradient>
<linearGradient id="paint32_linear_40_354" x1="63.8437" y1="130.198" x2="58.9219" y2="141.65" gradientUnits="userSpaceOnUse">
<stop stop-color="#C64D68"/>
<stop offset="1" stop-color="#9F3C52"/>
</linearGradient>
<linearGradient id="paint33_linear_40_354" x1="105.389" y1="161.17" x2="101.4" y2="170.451" gradientUnits="userSpaceOnUse">
<stop stop-color="#C64D68"/>
<stop offset="1" stop-color="#9F3C52"/>
</linearGradient>
<linearGradient id="paint34_linear_40_354" x1="126.268" y1="150.421" x2="118.861" y2="167.655" gradientUnits="userSpaceOnUse">
<stop stop-color="#C64D68"/>
<stop offset="1" stop-color="#9F3C52"/>
</linearGradient>
<linearGradient id="paint35_linear_40_354" x1="267.99" y1="171.935" x2="266.14" y2="176.239" gradientUnits="userSpaceOnUse">
<stop stop-color="#C64D68"/>
<stop offset="1" stop-color="#9F3C52"/>
</linearGradient>
<linearGradient id="paint36_linear_40_354" x1="10.8684" y1="381.593" x2="5.68951" y2="393.643" gradientUnits="userSpaceOnUse">
<stop stop-color="#C64D68"/>
<stop offset="1" stop-color="#9F3C52"/>
</linearGradient>
<linearGradient id="paint37_linear_40_354" x1="310.97" y1="85.8492" x2="306.995" y2="95.0972" gradientUnits="userSpaceOnUse">
<stop stop-color="#C64D68"/>
<stop offset="1" stop-color="#9F3C52"/>
</linearGradient>
<linearGradient id="paint38_linear_40_354" x1="271.046" y1="140.342" x2="267.276" y2="149.115" gradientUnits="userSpaceOnUse">
<stop stop-color="#C64D68"/>
<stop offset="1" stop-color="#9F3C52"/>
</linearGradient>
<linearGradient id="paint39_linear_40_354" x1="82.4102" y1="221.072" x2="78.0868" y2="231.132" gradientUnits="userSpaceOnUse">
<stop stop-color="#C64D68"/>
<stop offset="1" stop-color="#9F3C52"/>
</linearGradient>
<linearGradient id="paint40_linear_40_354" x1="112.232" y1="343.863" x2="107.561" y2="354.731" gradientUnits="userSpaceOnUse">
<stop stop-color="#C64D68"/>
<stop offset="1" stop-color="#9F3C52"/>
</linearGradient>
<linearGradient id="paint41_linear_40_354" x1="119.071" y1="216.72" x2="116.282" y2="223.209" gradientUnits="userSpaceOnUse">
<stop stop-color="#C64D68"/>
<stop offset="1" stop-color="#9F3C52"/>
</linearGradient>
<linearGradient id="paint42_linear_40_354" x1="10.0941" y1="331.628" x2="-1.70275" y2="359.076" gradientUnits="userSpaceOnUse">
<stop stop-color="#C64D68"/>
<stop offset="1" stop-color="#9F3C52"/>
</linearGradient>
<linearGradient id="paint43_linear_40_354" x1="272.68" y1="157.738" x2="268.97" y2="166.371" gradientUnits="userSpaceOnUse">
<stop stop-color="#C64D68"/>
<stop offset="1" stop-color="#9F3C52"/>
</linearGradient>
<linearGradient id="paint44_linear_40_354" x1="88.0166" y1="317.733" x2="84.0107" y2="327.053" gradientUnits="userSpaceOnUse">
<stop stop-color="#C64D68"/>
<stop offset="1" stop-color="#9F3C52"/>
</linearGradient>
<linearGradient id="paint45_linear_40_354" x1="220.226" y1="232.511" x2="214.878" y2="244.954" gradientUnits="userSpaceOnUse">
<stop stop-color="#C64D68"/>
<stop offset="1" stop-color="#9F3C52"/>
</linearGradient>
<linearGradient id="paint46_linear_40_354" x1="230.4" y1="185.541" x2="227.636" y2="191.972" gradientUnits="userSpaceOnUse">
<stop stop-color="#C64D68"/>
<stop offset="1" stop-color="#9F3C52"/>
</linearGradient>
<linearGradient id="paint47_linear_40_354" x1="260.956" y1="145.777" x2="257.758" y2="153.219" gradientUnits="userSpaceOnUse">
<stop stop-color="#C64D68"/>
<stop offset="1" stop-color="#9F3C52"/>
</linearGradient>
<linearGradient id="paint48_linear_40_354" x1="73.2026" y1="218.669" x2="70.2689" y2="225.495" gradientUnits="userSpaceOnUse">
<stop stop-color="#C64D68"/>
<stop offset="1" stop-color="#9F3C52"/>
</linearGradient>
<linearGradient id="paint49_linear_40_354" x1="221.309" y1="166.837" x2="218.782" y2="172.715" gradientUnits="userSpaceOnUse">
<stop stop-color="#C64D68"/>
<stop offset="1" stop-color="#9F3C52"/>
</linearGradient>
<linearGradient id="paint50_linear_40_354" x1="262.032" y1="159.131" x2="258.934" y2="166.339" gradientUnits="userSpaceOnUse">
<stop stop-color="#C64D68"/>
<stop offset="1" stop-color="#9F3C52"/>
</linearGradient>
<linearGradient id="paint51_linear_40_354" x1="190.446" y1="244.658" x2="186.98" y2="252.721" gradientUnits="userSpaceOnUse">
<stop stop-color="#C64D68"/>
<stop offset="1" stop-color="#9F3C52"/>
</linearGradient>
<linearGradient id="paint52_linear_40_354" x1="234.881" y1="192.592" x2="232.253" y2="198.706" gradientUnits="userSpaceOnUse">
<stop stop-color="#C64D68"/>
<stop offset="1" stop-color="#9F3C52"/>
</linearGradient>
<linearGradient id="paint53_linear_40_354" x1="83.3611" y1="306.51" x2="79.9235" y2="314.508" gradientUnits="userSpaceOnUse">
<stop stop-color="#C64D68"/>
<stop offset="1" stop-color="#9F3C52"/>
</linearGradient>
<linearGradient id="paint54_linear_40_354" x1="19.7619" y1="342.69" x2="16.7707" y2="349.65" gradientUnits="userSpaceOnUse">
<stop stop-color="#C64D68"/>
<stop offset="1" stop-color="#9F3C52"/>
</linearGradient>
<linearGradient id="paint55_linear_40_354" x1="149.078" y1="210.564" x2="147.628" y2="213.938" gradientUnits="userSpaceOnUse">
<stop stop-color="#C64D68"/>
<stop offset="1" stop-color="#9F3C52"/>
</linearGradient>
<linearGradient id="paint56_linear_40_354" x1="60.3608" y1="248.599" x2="57.0152" y2="256.383" gradientUnits="userSpaceOnUse">
<stop stop-color="#C64D68"/>
<stop offset="1" stop-color="#9F3C52"/>
</linearGradient>
<linearGradient id="paint57_linear_40_354" x1="200.614" y1="214.493" x2="198.278" y2="219.927" gradientUnits="userSpaceOnUse">
<stop stop-color="#C64D68"/>
<stop offset="1" stop-color="#9F3C52"/>
</linearGradient>
<linearGradient id="paint58_linear_40_354" x1="32.7254" y1="216.038" x2="30.8341" y2="220.439" gradientUnits="userSpaceOnUse">
<stop stop-color="#C64D68"/>
<stop offset="1" stop-color="#9F3C52"/>
</linearGradient>
<linearGradient id="paint59_linear_40_354" x1="38.6694" y1="322.09" x2="37.512" y2="324.784" gradientUnits="userSpaceOnUse">
<stop stop-color="#C64D68"/>
<stop offset="1" stop-color="#9F3C52"/>
</linearGradient>
<linearGradient id="paint60_linear_40_354" x1="67.002" y1="279.817" x2="64.7748" y2="284.999" gradientUnits="userSpaceOnUse">
<stop stop-color="#C64D68"/>
<stop offset="1" stop-color="#9F3C52"/>
</linearGradient>
<linearGradient id="paint61_linear_40_354" x1="207.082" y1="188.021" x2="203.659" y2="195.987" gradientUnits="userSpaceOnUse">
<stop stop-color="#C64D68"/>
<stop offset="1" stop-color="#9F3C52"/>
</linearGradient>
<linearGradient id="paint62_linear_40_354" x1="31.0028" y1="355.196" x2="29.0792" y2="359.671" gradientUnits="userSpaceOnUse">
<stop stop-color="#C64D68"/>
<stop offset="1" stop-color="#9F3C52"/>
</linearGradient>
<linearGradient id="paint63_linear_40_354" x1="49.3699" y1="367.145" x2="48.1597" y2="369.96" gradientUnits="userSpaceOnUse">
<stop stop-color="#C64D68"/>
<stop offset="1" stop-color="#9F3C52"/>
</linearGradient>
<linearGradient id="paint64_linear_40_354" x1="170.919" y1="184.371" x2="169.915" y2="186.707" gradientUnits="userSpaceOnUse">
<stop stop-color="#C64D68"/>
<stop offset="1" stop-color="#9F3C52"/>
</linearGradient>
<linearGradient id="paint65_linear_40_354" x1="163.835" y1="163.358" x2="162.51" y2="166.441" gradientUnits="userSpaceOnUse">
<stop stop-color="#C64D68"/>
<stop offset="1" stop-color="#9F3C52"/>
</linearGradient>
<linearGradient id="paint66_linear_40_354" x1="276.451" y1="113.916" x2="275.262" y2="116.682" gradientUnits="userSpaceOnUse">
<stop stop-color="#C64D68"/>
<stop offset="1" stop-color="#9F3C52"/>
</linearGradient>
<linearGradient id="paint67_linear_40_354" x1="97.1495" y1="231.682" x2="95.179" y2="236.267" gradientUnits="userSpaceOnUse">
<stop stop-color="#C64D68"/>
<stop offset="1" stop-color="#9F3C52"/>
</linearGradient>
<linearGradient id="paint68_linear_40_354" x1="333.273" y1="141.313" x2="331.025" y2="146.544" gradientUnits="userSpaceOnUse">
<stop stop-color="#C64D68"/>
<stop offset="1" stop-color="#9F3C52"/>
</linearGradient>
<linearGradient id="paint69_linear_40_354" x1="213.1" y1="244.798" x2="212.462" y2="246.281" gradientUnits="userSpaceOnUse">
<stop stop-color="#C64D68"/>
<stop offset="1" stop-color="#9F3C52"/>
</linearGradient>
<linearGradient id="paint70_linear_40_354" x1="36.0168" y1="197.169" x2="33.5456" y2="202.919" gradientUnits="userSpaceOnUse">
<stop stop-color="#C64D68"/>
<stop offset="1" stop-color="#9F3C52"/>
</linearGradient>
<linearGradient id="paint71_linear_40_354" x1="162.433" y1="132.92" x2="159.727" y2="139.216" gradientUnits="userSpaceOnUse">
<stop stop-color="#C64D68"/>
<stop offset="1" stop-color="#9F3C52"/>
</linearGradient>
<linearGradient id="paint72_linear_40_354" x1="51.336" y1="229.345" x2="45.8437" y2="242.125" gradientUnits="userSpaceOnUse">
<stop stop-color="#C64D68"/>
<stop offset="1" stop-color="#9F3C52"/>
</linearGradient>
<linearGradient id="paint73_linear_40_354" x1="40.0799" y1="251.042" x2="39.0341" y2="253.475" gradientUnits="userSpaceOnUse">
<stop stop-color="#C64D68"/>
<stop offset="1" stop-color="#9F3C52"/>
</linearGradient>
<clipPath id="clip0_40_354">
<rect width="261.058" height="403.364" fill="white" transform="translate(111.272) rotate(23.2572)"/>
</clipPath>
</defs>
</svg>
