<svg width="200" height="200" viewBox="0 0 200 200" fill="none" xmlns="http://www.w3.org/2000/svg">
  <!-- Rose Flower Ornament for Bottom Left Corner -->
  <g opacity="0.8">
    <!-- Main Rose -->
    <ellipse cx="50" cy="160" rx="28" ry="22" fill="#C64D68" opacity="0.7"/>
    <ellipse cx="55" cy="165" rx="20" ry="16" fill="#DB6F84" opacity="0.8"/>
    <ellipse cx="58" cy="168" rx="14" ry="11" fill="#E296A3" opacity="0.9"/>
    <ellipse cx="60" cy="170" rx="7" ry="5" fill="#C64D68"/>
    
    <!-- Second Rose -->
    <ellipse cx="25" cy="140" rx="22" ry="17" fill="#C64D68" opacity="0.6"/>
    <ellipse cx="28" cy="143" rx="15" ry="12" fill="#DB6F84" opacity="0.7"/>
    <ellipse cx="30" cy="145" rx="10" ry="8" fill="#E296A3" opacity="0.8"/>
    
    <!-- Third Rose (smaller) -->
    <ellipse cx="70" cy="130" rx="16" ry="13" fill="#C64D68" opacity="0.5"/>
    <ellipse cx="72" cy="132" rx="11" ry="9" fill="#DB6F84" opacity="0.6"/>
    <ellipse cx="74" cy="134" rx="7" ry="5" fill="#E296A3" opacity="0.7"/>
    
    <!-- Small Rose -->
    <ellipse cx="40" cy="185" rx="12" ry="9" fill="#C64D68" opacity="0.5"/>
    <ellipse cx="42" cy="183" rx="8" ry="6" fill="#DB6F84" opacity="0.6"/>
    
    <!-- Vines and Swirls -->
    <path d="M85 115 Q70 130 65 145 Q75 155 50 175" stroke="#C64D68" stroke-width="1.5" fill="none" opacity="0.6"/>
    <path d="M90 120 Q80 135 75 145 Q70 155 60 165" stroke="#DB6F84" stroke-width="1" fill="none" opacity="0.5"/>
    <path d="M75 125 Q65 140 60 150" stroke="#E296A3" stroke-width="0.8" fill="none" opacity="0.5"/>
    
    <!-- Decorative Leaves -->
    <ellipse cx="80" cy="120" rx="9" ry="3.5" transform="rotate(30 80 120)" fill="#C64D68" opacity="0.5"/>
    <ellipse cx="75" cy="115" rx="7" ry="2.5" transform="rotate(40 75 115)" fill="#DB6F84" opacity="0.5"/>
    <ellipse cx="35" cy="150" rx="8" ry="3" transform="rotate(-45 35 150)" fill="#C64D68" opacity="0.4"/>
    <ellipse cx="55" cy="140" rx="6" ry="2.5" transform="rotate(-30 55 140)" fill="#E296A3" opacity="0.4"/>
    
    <!-- Small Dots/Buds -->
    <circle cx="90" cy="110" r="2.5" fill="#E296A3" opacity="0.6"/>
    <circle cx="18" cy="160" r="2" fill="#DB6F84" opacity="0.5"/>
    <circle cx="75" cy="180" r="2" fill="#E296A3" opacity="0.5"/>
    <circle cx="95" cy="125" r="1.5" fill="#C64D68" opacity="0.6"/>
    
    <!-- Curly Vine Details -->
    <path d="M95 108 Q88 112 90 120" stroke="#C64D68" stroke-width="0.8" fill="none" opacity="0.4"/>
    <path d="M20 175 Q15 168 18 160" stroke="#DB6F84" stroke-width="0.8" fill="none" opacity="0.4"/>
    <path d="M80 185 Q85 180 82 172" stroke="#E296A3" stroke-width="0.8" fill="none" opacity="0.4"/>
  </g>
</svg>
