<svg width="14" height="14" viewBox="0 0 14 14" fill="none" xmlns="http://www.w3.org/2000/svg">
<path d="M6.99992 1.1665C4.54992 1.1665 2.33325 3.04484 2.33325 5.94984C2.33325 7.80484 3.76242 9.9865 6.61492 12.5007C6.83659 12.6932 7.16909 12.6932 7.39075 12.5007C10.2374 9.9865 11.6666 7.80484 11.6666 5.94984C11.6666 3.04484 9.44992 1.1665 6.99992 1.1665ZM6.99992 6.99984C6.35825 6.99984 5.83325 6.47484 5.83325 5.83317C5.83325 5.1915 6.35825 4.6665 6.99992 4.6665C7.64159 4.6665 8.16658 5.1915 8.16658 5.83317C8.16658 6.47484 7.64159 6.99984 6.99992 6.99984Z" fill="white"/>
</svg>
