<svg width="150" height="65" viewBox="0 0 150 65" fill="none" xmlns="http://www.w3.org/2000/svg">
<path d="M132.579 9.71907C132.381 10.9257 131.664 11.831 130.693 12.489C129.862 13.044 128.973 13.5073 128.042 13.8707C127.479 14.0945 126.814 14.0861 126.191 14.1147C126.068 14.1147 125.804 13.8135 125.819 13.6738C126.009 11.9455 126.629 10.4663 128.15 9.43467C128.964 8.90227 129.882 8.54839 130.843 8.39635C131.383 8.31432 131.89 8.08587 132.31 7.73579C132.729 7.3857 133.045 6.92738 133.222 6.41058C133.345 6.07401 133.631 5.80812 133.843 5.51025C134.144 5.79297 134.568 6.01511 134.716 6.37019C134.915 6.8313 134.927 7.37991 134.949 7.89991C134.949 7.99415 134.572 8.23648 134.452 8.18431C133.575 7.84774 132.909 8.33408 132.207 8.68917C131.058 9.27816 129.937 9.93447 128.752 10.4444C127.84 10.8365 127.135 11.3447 126.785 12.2955C126.833 12.3199 126.884 12.3386 126.937 12.351C127.61 11.4894 128.619 11.2808 129.574 10.9324C130.392 10.6125 131.193 10.2514 131.975 9.85033C132.143 9.73848 132.296 9.60431 132.428 9.4515C132.482 9.53901 132.53 9.63156 132.579 9.71907Z" fill="url(#paint0_linear_40_460)"/>
<path d="M125.299 11.663C125.05 10.1115 124.059 9.14718 122.8 8.4875C121.9 8.0163 121.573 7.38187 121.701 6.3772C123.145 7.47611 124.478 6.71377 125.855 6.20892C126.799 5.86225 127.734 5.41293 128.811 5.60646C129.484 5.72594 130.353 6.63468 130.326 7.31624C130.318 7.38165 130.294 7.44412 130.256 7.49833C130.219 7.55254 130.169 7.59688 130.11 7.62757C127.79 8.05838 126.317 9.4787 125.442 11.6008C125.432 11.6058 125.405 11.6109 125.299 11.663Z" fill="url(#paint1_linear_40_460)"/>
<path d="M124.762 13.3154C123.729 11.7655 122.023 11.6679 120.48 11.2085C118.944 10.7782 117.541 9.96794 116.4 8.85247C115.559 8.01945 115.517 8.06489 115.914 6.94243C116.134 6.2379 116.55 5.61081 117.114 5.13504C117.538 4.79847 117.856 4.32559 118.262 3.95704C118.421 3.81232 118.691 3.78876 118.91 3.7063C118.93 3.90992 119.005 4.12533 118.96 4.31381C118.766 5.14514 118.519 5.96301 118.326 6.79433C118.045 7.99421 118.529 9.05777 119.631 9.60302C120.673 10.118 121.755 10.5555 122.795 11.0705C123.62 11.4794 124.438 11.927 124.692 12.93C124.724 13.0545 124.739 13.1858 124.762 13.3154Z" fill="url(#paint2_linear_40_460)"/>
<path d="M122.226 5.7427C121.578 5.37584 121.316 4.75823 121.649 4.13726C122.078 3.33959 122.639 2.60923 123.152 1.85699C123.32 1.6214 123.52 1.41945 123.67 1.18385C124.512 -0.177574 125.829 0.258283 126.98 0.416471C129.203 0.726116 130.445 2.22554 131.034 4.27357C131.203 4.83732 131.019 5.49869 130.997 6.11629L130.843 6.12471C130.479 5.54076 130.126 4.94671 129.749 4.3779C129.131 3.43197 128.267 2.67261 127.25 2.18178C126.925 2.00484 126.566 1.89907 126.197 1.8715C125.829 1.84394 125.458 1.89521 125.111 2.02191C123.764 2.52677 122.587 3.21169 122.289 4.78516C122.249 5.10287 122.229 5.42259 122.226 5.7427Z" fill="url(#paint3_linear_40_460)"/>
<path d="M122.942 1.07099C122.571 1.4429 122.228 1.74413 121.932 2.09416C120.375 3.86284 120.008 5.91087 121.038 7.87476C121.415 8.59334 122.316 9.03425 122.974 9.6081C123.383 9.96487 123.783 10.3334 124.187 10.6969C124.141 10.7558 124.094 10.813 124.049 10.8652C123.941 10.8508 123.834 10.8237 123.733 10.7844C122.667 10.2291 121.58 9.70907 120.554 9.0881C120.031 8.74571 119.564 8.3245 119.17 7.83942C118.709 7.30427 119.209 6.70349 119.197 6.12964C119.197 5.93611 119.322 5.74091 119.366 5.54401C119.636 4.52084 119.87 3.48756 120.177 2.47617C120.545 1.28134 121.605 0.742831 122.942 1.07099Z" fill="url(#paint4_linear_40_460)"/>
<path d="M131.687 6.92569C131.733 5.96815 131.766 5.07455 131.822 4.19442C131.903 2.89358 131.423 1.89565 130.287 1.22587C129.712 0.889304 129.148 0.527488 128.604 0.187552C129.58 -0.512515 132.372 0.901082 132.944 1.89733C133.794 3.38161 133.193 5.87728 131.687 6.92569Z" fill="url(#paint5_linear_40_460)"/>
<path d="M129.863 14.0729C130.555 13.4789 131.209 12.9084 131.882 12.3446C131.954 12.2736 132.047 12.2276 132.147 12.2134C133.651 12.2605 135.137 12.3817 136.283 13.5411C136.32 13.5782 136.325 13.6472 136.394 13.839C135.068 13.181 134.018 13.9619 132.899 14.2782C131.893 14.5607 130.821 14.4882 129.863 14.0729Z" fill="url(#paint6_linear_40_460)"/>
<path d="M119.355 11.3901C120.934 12.0717 122.735 12.0751 123.943 13.4533C124.119 13.6894 124.276 13.9393 124.412 14.2005C122.714 15.0638 119.679 13.3894 119.355 11.3901Z" fill="url(#paint7_linear_40_460)"/>
<path d="M128.731 4.70597L126.163 5.10144C126.06 4.54778 126.1 3.99244 125.851 3.63904C125.626 3.3193 125.086 3.22001 124.635 2.99956C124.99 2.6226 125.486 2.63101 126.014 2.62428C127.455 2.60577 128.089 3.58687 128.731 4.70597Z" fill="url(#paint8_linear_40_460)"/>
<path d="M117.493 16.4811C117.558 16.4184 117.632 16.3662 117.713 16.3263C118.668 16.0109 119.53 15.4626 120.221 14.7309C120.557 14.3674 120.862 14.3052 121.318 14.6771C121.681 14.9749 122.227 15.0524 122.75 15.2509C122.607 15.6346 122.245 15.8315 121.85 15.9476C121.591 16.0057 121.327 16.0317 121.062 16.025C120.002 16.057 118.945 16.0823 117.959 16.5585C117.816 16.5945 117.668 16.6047 117.521 16.5888L117.493 16.4811Z" fill="url(#paint9_linear_40_460)"/>
<path d="M122.267 19.0726C122.408 17.8559 122.534 16.651 123.292 15.6161C123.628 15.1684 124.047 15.1802 124.483 15.2206C124.567 15.229 124.722 15.5959 124.67 15.7254C124.545 16.0914 124.341 16.4253 124.073 16.7032C123.315 17.3746 122.652 18.105 122.267 19.0726Z" fill="url(#paint10_linear_40_460)"/>
<path d="M125.779 15.0455C126.62 14.8873 127.394 14.7375 128.167 14.6012C128.589 14.5288 128.672 14.7173 128.53 15.0926C128.305 15.6799 127.566 16.284 126.95 16.247C126.258 16.2033 126.008 15.6378 125.779 15.0455Z" fill="url(#paint11_linear_40_460)"/>
<path d="M123.441 4.50415C123.317 5.57781 123.317 5.57781 124.136 5.96992C123.561 6.16008 122.854 6.03218 122.741 5.66869C122.553 5.06286 123.016 4.82726 123.441 4.50415Z" fill="url(#paint12_linear_40_460)"/>
<path d="M124.237 5.20398C124.237 4.63686 124.559 4.42145 125.006 4.43492C125.138 4.43492 125.398 4.79336 125.365 4.85563C125.114 5.30159 124.688 5.26288 124.237 5.20398Z" fill="url(#paint13_linear_40_460)"/>
<path d="M11.2994 36.6026C7.59717 36.6026 5.24118 35.5206 4.32571 33.385C4.09904 32.8064 3.98867 32.1888 4.00092 31.5675C4.00092 30.8237 4.356 30.053 5.05775 29.2519C6.12636 28.0655 7.614 27.4647 9.48029 27.4647C10.5819 27.4517 11.6778 27.6252 12.7215 27.978C13.916 28.4272 15.0754 28.965 16.1898 29.5868C17.3173 30.196 18.2092 30.6672 18.8437 30.9937C19.9173 29.888 21.0432 28.3836 22.1926 26.5122C23.3964 24.5617 24.5017 22.5521 25.5044 20.491C26.4636 18.5052 27.7022 16.2654 29.1882 13.8353C30.52 11.6103 32.0551 9.51343 33.7739 7.57174L35.4703 5.63478C33.4636 5.34971 31.4388 5.21135 29.412 5.2208C26.9012 5.2208 24.0942 5.55737 21.0684 6.22041C16.9925 7.08203 13.822 8.84734 11.6444 11.4692C10.352 13.0141 9.69906 14.4832 9.69906 15.8362C9.69906 17.5729 10.522 18.6718 12.2233 19.2019C12.7523 19.3612 13.3001 19.4489 13.8523 19.4628C14.4097 19.4483 14.9626 19.3594 15.4965 19.1986C16.1567 18.987 16.7552 18.6172 17.2399 18.1215C17.7521 17.6567 18.1822 17.1089 18.5122 16.501C18.8487 15.8278 18.8824 15.5451 18.8824 15.4525C18.8824 14.8888 19.2391 14.5236 19.7928 14.5236H19.8433C20.3582 14.5758 20.6948 14.9611 20.7403 15.5535V15.6713V15.7083C20.4205 17.8287 19.2745 19.4611 17.3358 20.5617C16.2428 21.1737 15.014 21.5023 13.7615 21.5175H13.7177L11.53 21.1406L11.4913 21.1254C8.42177 20.0551 6.86513 18.0172 6.86513 15.0672C6.86513 13.0865 7.74022 11.1209 9.46346 9.22767C12.1712 6.18844 16.1949 4.2683 21.4117 3.52616C24.0069 3.16777 26.6239 2.9912 29.2437 2.99775C31.9498 3.00639 34.6479 3.29114 37.2962 3.84759C37.8722 3.33836 38.5269 2.92578 39.2348 2.62584C40.1015 2.28927 40.2765 2.26907 40.4044 2.26907C40.5156 2.2663 40.6264 2.28457 40.7309 2.32293C40.8191 2.33576 40.9035 2.36809 40.9777 2.41758C41.0519 2.46706 41.1142 2.53246 41.16 2.60901C41.2219 2.71792 41.2521 2.84192 41.2474 2.96709C41.2426 3.09225 41.203 3.2136 41.1331 3.31749C41.0371 3.48578 40.8318 3.75672 40.0729 4.24979C39.9668 4.31879 39.8777 4.38106 39.8002 4.43996C43.1458 5.39413 45.628 6.73032 47.1863 8.41822C48.1354 9.48514 48.6133 10.6059 48.6133 11.7318C48.5933 12.8995 48.2628 14.0408 47.6558 15.0386C46.8144 16.4808 45.4546 17.5813 43.6018 18.3083C42.5276 18.7322 41.4144 19.0496 40.2782 19.2558C41.2984 19.6977 42.2792 20.2257 43.2097 20.8343C45.4529 22.3017 46.5922 24.2942 46.5922 26.7563C46.5922 28.4071 45.9948 29.9537 44.8168 31.3673C43.1979 33.3194 41.0102 34.7464 38.3143 35.6081C36.4364 36.2241 34.4746 36.5459 32.4983 36.5622C31.8154 36.5627 31.1332 36.5211 30.4554 36.4377C26.3155 35.9093 22.7412 34.9972 19.8214 33.725C17.1356 35.635 14.2663 36.6026 11.2994 36.6026ZM21.5648 32.2424C24.443 33.3427 27.4569 34.0486 30.5244 34.3409C30.9911 34.3916 31.4601 34.418 31.9295 34.42C34.8156 34.42 37.2928 33.5886 39.2937 31.9462C41.4528 30.2179 42.545 28.3516 42.545 26.3928C42.545 24.3733 41.4881 22.8823 39.3122 21.8322C38.3041 21.3754 37.2669 20.9858 36.2074 20.666C34.9604 20.2773 33.9338 19.9424 33.158 19.6698C32.2055 19.3332 31.7242 19.0252 31.5492 18.6298L31.5055 18.5322V18.4245C31.5055 18.0475 31.6737 17.164 33.1664 17.1118H33.1833C33.705 17.1118 34.5077 17.1522 35.5679 17.2347C36.4514 17.302 37.2373 17.3373 37.902 17.3373H38.2285C38.9016 17.3256 39.7514 17.0714 40.7443 16.5801C41.7181 16.1071 42.593 15.4532 43.3225 14.6532C44.4432 13.4079 45.0053 12.2417 45.0053 11.1899C45.0053 8.9887 42.8529 7.34456 38.6105 6.30119C37.1632 8.34922 34.6558 12.4352 31.1504 18.4598C27.4481 24.8126 24.562 29.1358 22.5527 31.3084L22.5409 31.3202L21.5648 32.2424ZM9.58126 29.7332C9.28339 29.7186 8.98619 29.7731 8.71291 29.8925C8.43964 30.0119 8.19772 30.193 8.00611 30.4215C7.60222 30.9045 7.39691 31.3269 7.39691 31.6752C7.39539 32.0672 7.48771 32.4538 7.66617 32.8027C8.17103 33.8411 9.243 34.3442 10.936 34.3442C13.118 34.3405 15.2494 33.6867 17.0582 32.4662C14.3808 31.1939 12.6474 30.4148 11.8985 30.1489C11.1555 29.8792 10.3717 29.7386 9.58126 29.7332Z" fill="url(#paint14_linear_40_460)"/>
<path d="M46.0724 26.7566C46.0724 28.2925 45.5193 29.7213 44.4131 31.0429C42.8492 32.931 40.7602 34.2924 38.1462 35.1271C36.3183 35.7294 34.4078 36.0433 32.4834 36.0578C31.8212 36.0585 31.1597 36.018 30.5026 35.9366C26.2753 35.3913 22.692 34.4613 19.7526 33.1464C17.0836 35.1142 14.2659 36.0981 11.2996 36.0981C7.79366 36.0981 5.62335 35.1277 4.78865 33.1868C4.58967 32.6708 4.49362 32.1208 4.50593 31.5679C4.50593 30.9486 4.81614 30.2884 5.43655 29.5872C6.40587 28.509 7.75216 27.97 9.4754 27.97C10.5198 27.9559 11.5589 28.1198 12.5483 28.4546C13.7197 28.8947 14.8566 29.4218 15.9493 30.0315C17.2956 30.7607 18.293 31.2869 18.9414 31.61C20.1284 30.4511 21.3552 28.84 22.6218 26.7768C23.8355 24.8123 24.9487 22.7874 25.9573 20.7101C26.9142 18.73 28.1343 16.526 29.6175 14.0982C30.9324 11.8996 32.449 9.82802 34.1477 7.91036L36.4515 5.28175C34.126 4.88852 31.7706 4.69932 29.4121 4.71631C26.8508 4.71631 24.0338 5.05288 20.9609 5.72602C16.7537 6.61457 13.5182 8.42083 11.2542 11.1448C9.87984 12.7884 9.19268 14.3518 9.19268 15.8349C9.19268 17.8039 10.1497 19.0845 12.0636 19.6769C12.6409 19.8518 13.2393 19.9475 13.8424 19.9613C14.4455 19.9475 15.0439 19.8518 15.6212 19.6769C16.3635 19.4475 17.0375 19.0383 17.5834 18.4854C18.138 17.9807 18.6029 17.3855 18.9583 16.7251C19.241 16.1597 19.3823 15.7339 19.3823 15.4512C19.3823 15.1685 19.517 15.0271 19.7879 15.0271C20.0572 15.0541 20.2053 15.2426 20.2322 15.5926V15.633C19.936 17.6019 18.8848 19.0985 17.0785 20.1228C16.0645 20.6916 14.9242 20.9977 13.7616 21.0131L11.6631 20.6462C8.80562 19.6499 7.37688 17.7898 7.37688 15.0659C7.37688 13.2046 8.19923 11.3714 9.84394 9.56629C12.486 6.6011 16.3684 4.75389 21.491 4.02466C24.0559 3.66893 26.6426 3.49348 29.2321 3.4996C31.9854 3.5078 34.7301 3.80619 37.4208 4.38983C38.177 3.74138 38.8378 3.31 39.4032 3.09572C39.7219 2.95593 40.0533 2.84716 40.3928 2.77093C40.4569 2.76346 40.5217 2.77831 40.5762 2.813C40.7377 2.813 40.7714 2.90051 40.6772 3.07553C40.5829 3.25054 40.2862 3.49961 39.7869 3.82271C39.2866 4.14807 38.9831 4.44481 38.8765 4.71294C42.544 5.65759 45.1861 7.00387 46.8027 8.75179C47.6655 9.72224 48.0969 10.7129 48.0969 11.7237C48.078 12.8028 47.7713 13.8573 47.2083 14.7781C46.423 16.1244 45.1558 17.1419 43.4068 17.8308C41.7167 18.5051 39.9266 18.8946 38.1091 18.9835C39.8101 19.5119 41.4294 20.2742 42.9204 21.2486C45.0217 22.6297 46.0724 24.4657 46.0724 26.7566ZM18.0529 32.3774C14.8992 30.8684 12.9045 29.9653 12.0687 29.668C11.2708 29.3804 10.4295 29.2319 9.58142 29.2287C9.2097 29.2136 8.83948 29.2841 8.49928 29.4346C8.15908 29.5852 7.85799 29.8118 7.61921 30.0971C7.13455 30.6771 6.89222 31.2033 6.89222 31.6756C6.89193 32.1463 7.00263 32.6104 7.21533 33.0303C7.80769 34.242 9.04795 34.8483 10.9361 34.8495C13.4929 34.8461 15.8652 34.0221 18.0529 32.3774ZM31.9246 34.9252C34.9437 34.9252 37.505 34.0625 39.6086 32.337C41.8984 30.5049 43.0433 28.5236 43.0433 26.3931C43.0433 24.1819 41.8709 22.5102 39.5261 21.3782C38.4956 20.9096 37.4347 20.511 36.3506 20.1851C35.0974 19.7947 34.0877 19.4643 33.3214 19.1939C32.5552 18.9235 32.1171 18.6672 32.0071 18.4248C32.0071 17.9132 32.3998 17.644 33.1851 17.6171C33.6967 17.6171 34.4787 17.6574 35.531 17.7382C36.5833 17.819 37.4865 17.8527 38.2404 17.8392C38.9943 17.8257 39.9042 17.5559 40.97 17.0297C42.0017 16.5297 42.9283 15.8368 43.6996 14.9884C44.9123 13.6422 45.5187 12.375 45.5187 11.1869C45.5187 8.6525 43.1465 6.83278 38.402 5.7277C36.9726 7.6944 34.4113 11.8527 30.718 18.2027C27.0247 24.5527 24.1774 28.8058 22.1759 30.9621L20.6411 32.4262C23.7792 33.7163 27.0911 34.534 30.469 34.8528C30.9526 34.9024 31.4385 34.9265 31.9246 34.9252Z" fill="url(#paint15_linear_40_460)"/>
<path d="M51.6106 35.1875C50.4643 35.2108 49.3542 34.785 48.5175 34.0011C47.6592 33.2034 47.2234 32.113 47.2234 30.7599C47.2511 29.3606 47.5607 27.9812 48.1338 26.7043C48.746 25.2786 49.5704 23.9538 50.579 22.7748C51.5558 21.5964 52.7996 20.6682 54.2072 20.0671C54.828 19.786 55.4999 19.6354 56.1812 19.6245C56.8415 19.6247 57.4865 19.8235 58.0324 20.195L58.0542 20.2085L58.0744 20.2253C58.6516 20.7015 58.9445 21.2535 58.9445 21.8678C58.9445 23.6448 57.8994 25.3445 55.8345 26.9163C55.2035 27.4043 54.3099 27.8469 53.1824 28.2273C52.4472 28.4952 51.6848 28.6814 50.9088 28.7826C50.6237 29.6142 50.4831 30.4884 50.4932 31.3675C50.4932 32.0069 50.6278 32.5101 50.8954 32.8618C51.0152 33.0195 51.1724 33.1449 51.3528 33.2266C51.5332 33.3083 51.7311 33.3437 51.9286 33.3297C54.15 33.3297 56.2401 31.1066 58.1384 26.7194C58.4564 25.9924 58.8923 25.8393 59.2019 25.8393C59.2646 25.8397 59.3272 25.8459 59.3887 25.8578H59.4123C59.5686 25.893 59.708 25.981 59.807 26.107C59.906 26.233 59.9586 26.3892 59.9559 26.5494C59.9559 26.6959 59.9559 26.8221 59 28.8853C58.4859 30.0393 57.8495 31.135 57.1017 32.1534C55.6461 34.1644 53.7932 35.1875 51.6106 35.1875ZM56.7063 21.5177C56.437 21.5177 55.6023 21.7718 53.6586 24.1261C52.9475 25.0086 52.3135 25.9505 51.7637 26.9416C52.0128 26.8742 52.3107 26.7733 52.6691 26.6471C53.4449 26.3685 54.1676 25.9599 54.8063 25.4388C56.1526 24.281 56.8476 23.0626 56.8476 21.8223C56.8584 21.7225 56.8409 21.6216 56.7971 21.5312C56.7681 21.5205 56.7372 21.5159 56.7063 21.5177Z" fill="url(#paint16_linear_40_460)"/>
<path d="M50.5587 28.2931C50.1703 29.2703 49.9782 30.3145 49.9933 31.3659C49.9933 32.1221 50.1615 32.7223 50.4981 33.1666C50.6645 33.3872 50.8822 33.5639 51.1324 33.6812C51.3825 33.7985 51.6576 33.8529 51.9336 33.8397C54.3872 33.8397 56.6114 31.5348 58.6061 26.9249C58.7946 26.4941 59.0251 26.3056 59.2944 26.3595C59.343 26.365 59.3877 26.3891 59.419 26.4267C59.4504 26.4643 59.466 26.5125 59.4627 26.5614C59.4627 26.6736 59.1592 27.3809 58.5522 28.6835C58.0552 29.8051 57.4385 30.8698 56.7129 31.859C55.3374 33.7461 53.6389 34.6896 51.6172 34.6896C50.5982 34.7129 49.6108 34.3352 48.8674 33.6378C48.1113 32.9377 47.7337 31.9807 47.7349 30.7668C47.7597 29.431 48.0557 28.1142 48.6049 26.8963C49.1957 25.5162 49.9936 24.2342 50.971 23.0947C51.8948 21.9764 53.0732 21.0958 54.4074 20.5267C54.9668 20.271 55.5729 20.1335 56.1878 20.1228C56.7502 20.1219 57.2998 20.2909 57.7647 20.6075C58.2224 20.9867 58.4513 21.4046 58.4513 21.8612C58.4513 23.4779 57.4808 25.0283 55.5399 26.5126C54.9476 26.9703 54.1118 27.3815 53.0325 27.7461C51.9532 28.1107 51.1286 28.2931 50.5587 28.2931ZM57.3473 21.8242C57.3473 21.2857 57.1319 21.0147 56.7011 21.0147C55.9449 21.0147 54.7989 21.9453 53.263 23.8066C52.3195 24.982 51.5059 26.256 50.8364 27.6064C51.2963 27.6064 51.9639 27.4449 52.839 27.1218C53.6693 26.8246 54.4423 26.3868 55.1243 25.8277C56.6063 24.5599 57.3473 23.2254 57.3473 21.8242Z" fill="url(#paint17_linear_40_460)"/>
<path d="M63.7509 50.1498C62.8421 50.1735 61.936 50.0414 61.0718 49.7593C58.8841 48.9533 57.7852 47.8274 57.7852 46.4138C57.7974 45.9458 57.9123 45.4863 58.1217 45.0675C58.9059 43.3224 60.8681 41.7708 64.116 40.3303C66.5207 39.2549 69.0631 38.5186 71.6704 38.1426C74.4994 37.7512 77.35 37.5354 80.2058 37.4964C81.9139 34.5665 83.1474 31.6485 83.8811 28.8045C82.8546 29.6536 81.7611 30.4184 80.6114 31.0915C78.9538 32.0625 77.4829 32.7524 76.2359 33.1395C74.2586 33.7706 72.5959 34.092 71.2934 34.092C70.1123 34.1131 68.9369 33.9245 67.8217 33.535C66.0025 32.9089 64.4964 31.6401 63.3604 29.7637C62.1572 27.8116 61.5547 25.4505 61.5547 22.7529C61.5547 20.1681 62.2178 17.3678 63.522 14.4413C61.8139 12.5902 60.9489 10.5909 60.9489 8.49748C60.9489 6.30977 61.8358 4.22303 63.5859 2.27092C63.9579 1.86704 64.2591 1.68866 64.562 1.68866C64.6954 1.68889 64.8261 1.7268 64.939 1.79804C65.0163 1.84727 65.0827 1.91177 65.1342 1.98758C65.1857 2.0634 65.2212 2.14893 65.2385 2.23895C65.2924 2.51493 65.1863 2.81953 64.9019 3.2251C63.7542 4.75481 63.177 6.29967 63.177 7.82433C63.177 9.349 63.6819 10.8265 64.6916 12.1998C64.8414 11.9355 65.0282 11.6309 65.2385 11.2809C67.3394 7.80341 70.3814 4.99131 74.0129 3.16956C76.899 1.68361 79.7346 0.929688 82.4507 0.929688C83.2061 0.930658 83.9603 0.986904 84.7074 1.09797C88.3407 1.66173 90.833 3.19313 92.112 5.65009C92.6316 6.64177 92.8981 7.7465 92.8878 8.86602C92.8878 10.012 92.526 11.2439 91.8124 12.5279C90.2373 15.2609 87.4707 17.181 83.5799 18.2648C81.5493 18.8403 79.4488 19.1319 77.3382 19.1314C73.1462 19.1314 69.619 18.2715 66.8423 16.5752C65.7417 19.091 65.1847 21.3696 65.1847 23.3571C65.1847 27.7039 66.6016 30.2837 69.5146 31.2446C70.3857 31.4706 71.2821 31.5837 72.182 31.5812C73.1148 31.5831 74.0445 31.4712 74.9502 31.248C76.7489 30.7867 78.4587 30.031 80.0106 29.0114C81.4578 28.0472 82.375 27.1283 82.7385 26.2802C83.9165 23.5439 85.2039 22.2144 86.6797 22.2144C87.5212 22.2144 88.127 22.7075 88.4097 23.6028C88.5457 23.9634 88.5817 24.3542 88.514 24.7336C88.2229 26.931 87.6253 29.0768 86.7386 31.1083C85.7595 33.3121 84.6432 35.4523 83.3965 37.5166C86.1261 37.5685 88.8418 37.9207 91.4944 38.5667C92.3089 38.7602 92.7245 39.117 92.7245 39.6235C92.7245 39.982 92.4772 40.3993 91.7821 40.3993C91.4939 40.391 91.2075 40.3492 90.9289 40.2748C89.1098 39.8002 86.4458 39.5612 82.9993 39.5612H82.2101C80.5525 41.8886 78.3496 43.9737 75.657 45.7659C72.8871 47.607 70.1474 48.8893 67.5171 49.5742C66.053 49.9546 64.7858 50.1498 63.7509 50.1498ZM78.8191 39.6319C76.7003 39.7063 74.5879 39.9081 72.4933 40.2361C69.4317 40.7082 66.5058 41.8275 63.9107 43.5193C61.2636 45.219 60.8681 46.2371 60.8681 46.6932C60.8681 47.1492 61.3865 47.5228 62.408 47.7365H62.4265C62.8503 47.8378 63.2849 47.8869 63.7206 47.883C65.5498 47.883 67.9277 47.2098 70.7886 45.8635C74.0617 44.3742 76.7627 42.2757 78.8191 39.6319ZM67.7914 14.6332C68.9617 15.4463 70.2748 16.0315 71.662 16.3581C73.2724 16.7502 74.5733 16.9504 75.5325 16.9504C81.0506 16.9504 85.2678 15.4645 88.0681 12.5363C89.4144 11.0807 90.1111 9.61826 90.1111 8.19456C90.1111 5.94122 88.8641 4.45863 86.3011 3.66096C85.356 3.35858 84.3702 3.20251 83.378 3.19817C81.1633 3.19817 78.7754 3.96387 76.278 5.4717C72.6767 7.60893 69.8293 10.6885 67.7914 14.6332Z" fill="url(#paint18_linear_40_460)"/>
<path d="M66.6216 15.8363C65.328 18.6411 64.6807 21.1486 64.6796 23.3587C64.6796 27.9159 66.2435 30.7066 69.3714 31.7309C70.2884 31.9734 71.2332 32.0956 72.1817 32.0944C73.1567 32.0921 74.1277 31.9701 75.0729 31.7309C76.9276 31.2568 78.6906 30.4777 80.2897 29.4254C81.8267 28.4 82.7972 27.4161 83.2011 26.4737C84.2792 23.9662 85.4387 22.7125 86.6795 22.7125C87.2988 22.7125 87.7167 23.0631 87.9332 23.7643C88.0422 24.0472 88.0702 24.3549 88.014 24.6528C87.7309 26.8069 87.1457 28.9104 86.2756 30.9012C85.386 32.9644 84.1322 35.3299 82.5145 37.9978C85.7489 38.0248 88.7012 38.3754 91.3713 39.0496C91.9323 39.1842 92.2127 39.3733 92.2127 39.6167C92.2127 39.9129 91.8201 39.969 91.0347 39.785C89.1757 39.2992 86.4933 39.0563 82.9873 39.0563H81.9372C80.2914 41.4292 78.1003 43.5254 75.364 45.3452C72.6277 47.1649 69.9694 48.4119 67.389 49.0861C65.9597 49.4631 64.7469 49.6516 63.7506 49.6516C62.9002 49.674 62.0522 49.5511 61.2432 49.2881C59.2743 48.56 58.2898 47.603 58.2898 46.4171C58.3006 46.0234 58.3977 45.6367 58.5742 45.2846C59.3012 43.6668 61.2152 42.1707 64.3161 40.7964C66.6779 39.7395 69.1759 39.0178 71.7375 38.6525C74.6378 38.2515 77.5606 38.0351 80.4883 38.0046C82.4842 34.6389 83.8456 31.3231 84.5726 28.0572L84.7409 27.3689C83.4115 28.6353 81.9385 29.7417 80.352 30.6656C78.7207 31.6226 77.2987 32.2896 76.086 32.6666C74.1439 33.287 72.5464 33.5972 71.2932 33.5972C70.1724 33.619 69.0567 33.4412 67.9982 33.0721C66.2716 32.4775 64.8692 31.2911 63.791 29.5129C62.6366 27.6225 62.0594 25.3691 62.0594 22.7529C62.0594 20.1366 62.7471 17.3318 64.1226 14.3386C62.3443 12.5065 61.4547 10.5589 61.4536 8.49574C61.4524 6.43256 62.2882 4.46923 63.961 2.60576C64.2841 2.25572 64.5197 2.12783 64.6678 2.22207C64.8159 2.31631 64.7553 2.55247 64.4861 2.93055C63.2733 4.54833 62.6669 6.17901 62.6669 7.8226C62.6669 9.71076 63.3675 11.4766 64.7688 13.1202C65.0376 12.5793 65.3348 12.053 65.659 11.5434C67.7113 8.14165 70.6876 5.39289 74.2416 3.61715C77.0721 2.15868 79.8084 1.42944 82.4505 1.42944C83.1829 1.43165 83.9141 1.4879 84.6382 1.59773C88.1161 2.13624 90.462 3.56498 91.6759 5.88395C92.1548 6.8041 92.3977 7.82877 92.3827 8.86597C92.3827 9.93178 92.0461 11.0711 91.373 12.2838C89.8618 14.899 87.2197 16.7322 83.4468 17.7834C81.4594 18.346 79.4035 18.6297 77.338 18.6265C72.9716 18.6265 69.3994 17.6965 66.6216 15.8363ZM60.353 46.6931C60.353 47.4471 60.9997 47.9592 62.2933 48.2296C62.757 48.3433 63.2328 48.3998 63.7103 48.3979C65.6242 48.3979 68.0503 47.7107 70.9886 46.3364C74.7088 44.6367 77.6611 42.2246 79.8454 39.1001C77.3533 39.1503 74.8672 39.3668 72.4039 39.748C69.2727 40.228 66.2804 41.3721 63.6278 43.1036C61.4457 44.4993 60.3541 45.6958 60.353 46.6931ZM83.3643 2.69327C81.0453 2.69327 78.5917 3.47523 76.0035 5.03916C72.2047 7.30428 69.2525 10.5533 67.1466 14.7862C68.4488 15.7727 69.9434 16.475 71.5338 16.8477C73.1931 17.2483 74.5226 17.4485 75.5222 17.4485C81.2102 17.4485 85.5099 15.925 88.4213 12.8779C89.8797 11.314 90.609 9.75059 90.609 8.18778C90.609 5.70726 89.2206 4.03562 86.4439 3.17288C85.4481 2.85582 84.4094 2.69405 83.3643 2.69327Z" fill="url(#paint19_linear_40_460)"/>
<path d="M94.6058 35.0258C93.0289 35.0258 91.1492 34.292 91.1492 30.8001C91.1492 29.6002 91.4639 28.3044 92.0832 26.9497C92.8845 25.0529 94.0906 23.354 95.6171 21.9719C97.1755 20.5717 98.6984 19.8616 100.141 19.8616C101.717 19.8616 103.597 20.5936 103.597 24.0872C103.597 25.2871 103.283 26.5812 102.662 27.9359C101.902 29.6698 100.816 31.2419 99.4641 32.5671C99.6779 32.7993 100.041 33.0047 100.711 33.0047C101.292 33.0047 101.844 32.7034 102.394 32.0824L102.409 32.0656C103.048 31.4394 103.606 30.7349 104.068 29.9688C104.418 29.3383 104.674 28.8744 104.834 28.5771C104.989 28.2943 105.196 27.8753 105.447 27.3318C105.697 26.7882 105.856 26.4483 105.909 26.322C105.97 26.1813 106.07 26.0611 106.197 25.9759C106.324 25.8908 106.473 25.8444 106.626 25.8424H106.737C106.845 25.834 106.953 25.8485 107.055 25.885C107.157 25.9214 107.25 25.9789 107.328 26.0538C107.405 26.1287 107.467 26.2191 107.507 26.3193C107.547 26.4195 107.566 26.5271 107.562 26.6351C107.559 26.807 107.515 26.9758 107.436 27.1281L107.199 27.6835C107.03 28.0722 106.909 28.3448 106.822 28.5249C106.734 28.705 106.601 28.9742 106.399 29.3899C106.197 29.8055 106.009 30.1623 105.851 30.4232C105.692 30.684 105.497 30.9936 105.24 31.4009C105.021 31.7572 104.779 32.0995 104.518 32.4257C104.304 32.6799 104.043 32.9643 103.739 33.2672C103.455 33.5585 103.137 33.8145 102.791 34.0295C102.145 34.4461 101.398 34.6788 100.63 34.7026C99.5584 34.7026 98.6715 34.4014 97.9883 33.804C96.7951 34.6135 95.6592 35.0258 94.6058 35.0258ZM100.597 22.125C100.018 22.125 99.2504 22.5794 98.3619 23.4376C97.4127 24.3615 96.5494 25.6439 95.7972 27.2527C94.8885 29.1223 94.429 30.6537 94.429 31.8115C94.429 33.1578 95.0214 33.1578 95.3395 33.1578C95.8023 33.1578 96.3408 32.9239 96.9432 32.4611C96.6223 31.8896 96.4537 31.2452 96.4535 30.5898V30.5746C96.5427 28.6427 97.6955 28.3532 98.3737 28.3532C98.6046 28.3497 98.8338 28.3944 99.0465 28.4845C99.2592 28.5747 99.4508 28.7082 99.6089 28.8766C99.6692 28.9415 99.7254 29.0101 99.7772 29.0819C100.042 28.604 100.322 28.0526 100.619 27.4277C101.228 26.2427 101.558 24.9334 101.581 23.6009C101.583 22.125 100.913 22.125 100.597 22.125Z" fill="url(#paint20_linear_40_460)"/>
<path d="M100.146 20.3667C102.112 20.3667 103.096 21.607 103.097 24.0875C103.097 25.2206 102.801 26.4339 102.209 27.7275C101.415 29.5336 100.258 31.1574 98.8111 32.4984C99.1612 33.1715 99.795 33.5081 100.713 33.5081C101.44 33.5081 102.127 33.144 102.774 32.4159C103.446 31.7584 104.03 31.0175 104.513 30.2114C104.864 29.5786 105.12 29.1136 105.282 28.8163C105.443 28.519 105.652 28.0944 105.908 27.5424C106.166 26.9904 106.321 26.6538 106.374 26.5327C106.396 26.4764 106.435 26.4285 106.486 26.3959C106.536 26.3633 106.596 26.3475 106.657 26.3509C106.926 26.324 107.06 26.4182 107.06 26.6336C107.055 26.7328 107.028 26.8295 106.98 26.9164L106.737 27.4818C106.576 27.861 106.455 28.1308 106.374 28.2912C106.293 28.4517 106.151 28.7417 105.948 29.1613C105.746 29.5786 105.571 29.9085 105.423 30.1508C105.275 30.3931 105.073 30.7168 104.817 31.1218C104.608 31.458 104.379 31.7812 104.131 32.0894C103.929 32.3318 103.679 32.6016 103.382 32.8989C103.13 33.1608 102.847 33.3913 102.54 33.5855C101.867 33.9894 101.233 34.1913 100.639 34.1913C99.5325 34.1913 98.6698 33.8413 98.0505 33.1412C96.8108 34.0567 95.6653 34.515 94.6141 34.5161C92.6451 34.5161 91.6612 33.2759 91.6624 30.7953C91.6624 29.6633 91.9585 28.45 92.5509 27.1553C93.3235 25.3198 94.4903 23.6766 95.9688 22.3424C97.4317 21.0264 98.824 20.3678 100.146 20.3667ZM100.59 21.6204C99.8629 21.6204 99.0002 22.1056 98.0017 23.0761C97.0032 24.0465 96.1135 25.3681 95.3327 27.0409C94.3903 28.9829 93.9185 30.5738 93.9174 31.8135C93.9163 33.0532 94.388 33.6702 95.3327 33.6646C96.0058 33.6646 96.7608 33.3005 97.5978 32.5724C97.181 31.9958 96.955 31.3032 96.9516 30.5917C97.0054 29.4328 97.4772 28.8528 98.3668 28.8516C98.5292 28.8474 98.6906 28.8778 98.8403 28.9407C98.9901 29.0037 99.1247 29.0978 99.2352 29.2168C99.4313 29.3894 99.5546 29.63 99.5802 29.89C99.5782 30.1017 99.551 30.3124 99.4994 30.5177C100.093 29.5989 100.62 28.6389 101.076 27.645C101.719 26.3942 102.064 25.0122 102.086 23.6062C102.087 22.2835 101.591 21.6215 100.597 21.6204H100.59Z" fill="url(#paint21_linear_40_460)"/>
<path d="M110.176 35.0258C108.597 35.0258 106.717 34.292 106.717 30.8001C106.717 29.6002 107.032 28.3044 107.653 26.9497C108.454 25.0529 109.66 23.354 111.187 21.9719C112.745 20.5717 114.267 19.8616 115.71 19.8616C117.287 19.8616 119.167 20.5936 119.167 24.0872C119.167 25.2871 118.852 26.5812 118.231 27.9359C117.471 29.6698 116.386 31.2419 115.034 32.5671C115.248 32.7993 115.609 33.0047 116.279 33.0047C116.862 33.0047 117.413 32.7034 117.962 32.0824L117.976 32.0656C118.615 31.4394 119.173 30.7348 119.637 29.9688C119.985 29.3383 120.241 28.8744 120.402 28.5771C120.557 28.2943 120.762 27.8753 121.015 27.3318C121.267 26.7882 121.424 26.4483 121.478 26.322C121.538 26.1812 121.637 26.0608 121.765 25.9756C121.892 25.8905 122.041 25.8442 122.194 25.8424H122.306C122.413 25.834 122.522 25.8485 122.623 25.885C122.725 25.9214 122.818 25.9789 122.896 26.0538C122.974 26.1287 123.035 26.2191 123.075 26.3193C123.116 26.4195 123.134 26.5271 123.13 26.6351C123.126 26.8069 123.083 26.9755 123.004 27.1281L122.767 27.6835C122.598 28.0722 122.476 28.3448 122.39 28.5249C122.304 28.705 122.169 28.9742 121.967 29.3899C121.765 29.8055 121.577 30.1623 121.419 30.4232C121.26 30.684 121.065 30.9936 120.808 31.4009C120.588 31.7572 120.345 32.0989 120.081 32.4241C119.869 32.6782 119.606 32.9626 119.302 33.2655C119.019 33.5571 118.701 33.8131 118.356 34.0278C117.71 34.4444 116.963 34.6771 116.195 34.701C115.123 34.701 114.236 34.3997 113.553 33.8023C112.365 34.6135 111.229 35.0258 110.176 35.0258ZM116.16 22.125C115.579 22.125 114.813 22.5794 113.923 23.4376C112.974 24.3615 112.113 25.6439 111.36 27.2527C110.452 29.1223 109.992 30.6537 109.992 31.8115C109.992 33.1578 110.584 33.1578 110.903 33.1578C111.365 33.1578 111.912 32.9239 112.505 32.4611C112.184 31.8893 112.016 31.2451 112.015 30.5898V30.5746C112.104 28.6427 113.255 28.3532 113.935 28.3532C114.166 28.3497 114.395 28.3944 114.608 28.4845C114.821 28.5747 115.012 28.7082 115.17 28.8766C115.23 28.9419 115.286 29.0105 115.339 29.0819C115.601 28.604 115.884 28.052 116.18 27.4277C116.789 26.2423 117.117 24.9332 117.141 23.6009C117.151 22.125 116.481 22.125 116.16 22.125Z" fill="url(#paint22_linear_40_460)"/>
<path d="M115.716 20.3667C117.682 20.3667 118.666 21.607 118.667 24.0875C118.667 25.2206 118.371 26.4339 117.777 27.7275C116.984 29.5339 115.828 31.1579 114.381 32.4984C114.731 33.1715 115.364 33.5081 116.281 33.5081C117.009 33.5081 117.697 33.144 118.344 32.4159C119.016 31.7584 119.6 31.0175 120.083 30.2114C120.433 29.5786 120.689 29.1136 120.852 28.8163C121.014 28.519 121.223 28.0944 121.478 27.5424C121.733 26.9904 121.889 26.6538 121.944 26.5327C121.966 26.4763 122.005 26.4282 122.055 26.3956C122.106 26.3629 122.166 26.3472 122.227 26.3509C122.496 26.324 122.63 26.4182 122.63 26.6336C122.625 26.7328 122.598 26.8295 122.55 26.9164L122.306 27.4835C122.144 27.8627 122.023 28.1325 121.942 28.2929C121.861 28.4534 121.719 28.7434 121.516 29.163C121.314 29.5803 121.139 29.9102 120.991 30.1525C120.843 30.3948 120.641 30.7185 120.384 31.1235C120.176 31.4612 119.946 31.7855 119.697 32.0945C119.495 32.3368 119.245 32.5994 118.948 32.9039C118.697 33.1658 118.414 33.3963 118.107 33.5906C117.434 33.9944 116.8 34.1964 116.205 34.1964C115.099 34.1964 114.236 33.8463 113.617 33.1463C112.377 34.0618 111.232 34.5201 110.181 34.5212C108.212 34.5212 107.227 33.2809 107.227 30.8004C107.227 29.6684 107.524 28.455 108.118 27.1604C108.89 25.3248 110.057 23.6817 111.535 22.3474C113.002 21.0281 114.395 20.3678 115.716 20.3667ZM116.16 21.6204C115.433 21.6204 114.57 22.1056 113.572 23.0761C112.573 24.0465 111.683 25.3681 110.903 27.0409C109.959 28.9829 109.487 30.5738 109.487 31.8135C109.487 33.0532 109.959 33.6702 110.903 33.6646C111.576 33.6646 112.331 33.3005 113.168 32.5724C112.75 31.9963 112.523 31.3035 112.52 30.5917C112.574 29.4328 113.046 28.8528 113.937 28.8516C114.099 28.8474 114.261 28.8778 114.41 28.9407C114.56 29.0037 114.695 29.0978 114.805 29.2168C114.998 29.3906 115.119 29.6311 115.142 29.89C115.141 30.1017 115.113 30.3125 115.061 30.5177C115.656 29.5994 116.183 28.6393 116.639 27.645C117.282 26.3942 117.627 25.0122 117.649 23.6062C117.654 22.2835 117.157 21.6215 116.16 21.6204Z" fill="url(#paint23_linear_40_460)"/>
<path d="M133.345 35.0258C132.913 35.0292 132.487 34.9208 132.109 34.7112C131.73 34.5016 131.413 34.1978 131.186 33.8293C130.777 33.248 130.528 32.5698 130.463 31.8621C129.295 33.4944 128.25 34.4452 127.289 34.7532C126.933 34.9028 126.552 34.9817 126.166 34.9854C125.814 34.9855 125.464 34.9386 125.125 34.8458C124.053 34.5613 122.769 33.698 122.769 31.2041C122.769 29.9571 123.088 28.5637 123.718 27.0659C124.382 25.5174 125.274 24.0771 126.365 22.7932C127.463 21.4483 128.941 20.4655 130.606 19.9727C131.302 19.7572 132.029 19.6538 132.758 19.6664C133.574 19.6875 134.377 19.8807 135.114 20.2335C136.837 16.9688 138.333 13.901 139.562 11.1108C139.977 10.1314 140.403 9.49863 140.846 9.18394C141.22 8.89402 141.674 8.72704 142.147 8.706H142.714C142.996 8.72524 143.277 8.7612 143.555 8.81371C143.794 8.85276 144.035 8.87469 144.277 8.87933C144.337 8.88031 144.396 8.8775 144.455 8.87092L146 8.70264L144.856 9.73927C144.461 10.0994 143.301 11.8008 140.025 17.8574C136.659 24.1108 134.601 28.3297 133.912 30.3929C133.694 30.9635 133.567 31.5649 133.535 32.1751C133.535 32.9643 133.85 32.9643 134.081 32.9643C134.675 32.9643 136.061 32.1751 138.685 26.896C138.759 26.7462 138.83 26.593 138.892 26.4399C138.946 26.3014 139.029 26.1761 139.136 26.0722C139.242 25.9683 139.37 25.8883 139.51 25.8374C139.604 25.8016 139.705 25.7828 139.806 25.7819C139.943 25.7812 140.077 25.8212 140.191 25.8967C140.305 25.9722 140.394 26.0798 140.447 26.206C140.597 26.5426 140.477 26.9279 140.373 27.1854C138.094 32.4645 135.799 35.0258 133.345 35.0258ZM133.527 21.5176C133.177 21.5176 132.489 21.7431 131.201 22.8167C129.407 24.3294 127.922 26.1738 126.826 28.249C126.087 29.6222 125.714 30.7531 125.714 31.6147C125.707 31.942 125.778 32.2663 125.922 32.5604C125.949 32.6373 126.001 32.7031 126.069 32.7478C126.137 32.7925 126.218 32.8136 126.299 32.8078C126.717 32.8078 127.657 32.4712 129.286 30.1876C130.574 28.3853 132.273 25.5278 134.343 21.6892C134.088 21.5695 133.809 21.5107 133.527 21.5176Z" fill="url(#paint24_linear_40_460)"/>
<path d="M133.022 32.1753C133.022 33.038 133.372 33.4694 134.072 33.4694C135.34 33.4694 137.022 31.3529 139.12 27.12C139.201 26.9584 139.275 26.7969 139.343 26.6353C139.37 26.5611 139.413 26.4938 139.469 26.438C139.525 26.3822 139.593 26.3393 139.667 26.3122C139.815 26.2584 139.916 26.2903 139.97 26.4132C140.024 26.536 139.997 26.7296 139.889 26.9988C137.732 32.0137 135.548 34.5212 133.338 34.5212C132.989 34.5257 132.644 34.4383 132.339 34.2679C132.034 34.0975 131.779 33.85 131.6 33.5502C131.196 32.9897 130.97 32.3206 130.952 31.63C130.947 31.0372 131.015 30.4461 131.154 29.8698C129.591 32.458 128.245 33.9277 127.115 34.2788C126.815 34.4086 126.491 34.4772 126.164 34.4808C125.857 34.4811 125.552 34.4404 125.255 34.3596C123.935 34.0096 123.274 32.9578 123.273 31.2043C123.273 30.0173 123.576 28.703 124.183 27.2614C124.827 25.7588 125.692 24.3615 126.751 23.1165C127.786 21.8428 129.181 20.9123 130.755 20.4475C131.403 20.247 132.078 20.1516 132.756 20.1648C133.524 20.1648 134.38 20.4071 135.324 20.8918C137.158 17.4419 138.722 14.2473 140.016 11.3079C140.393 10.4182 140.763 9.84551 141.128 9.58972C141.417 9.36061 141.77 9.22606 142.138 9.20435H142.705C142.772 9.20435 143.028 9.23968 143.472 9.30531C143.812 9.3691 144.159 9.38946 144.504 9.3659C143.885 9.93246 142.24 12.6811 139.571 17.6119C136.173 23.9215 134.124 28.1286 133.424 30.2333C133.186 30.8548 133.051 31.5105 133.022 32.1753ZM135.002 21.5397C134.652 21.1896 134.161 21.0129 133.527 21.0129C132.892 21.0129 132.012 21.4858 130.878 22.4282C129.036 23.9819 127.512 25.8775 126.39 28.0102C125.604 29.4687 125.212 30.6686 125.212 31.6098C125.204 32.0178 125.294 32.4217 125.474 32.7878C125.543 32.9489 125.659 33.0854 125.807 33.1794C125.954 33.2734 126.127 33.3205 126.302 33.3146C127.22 33.3146 128.352 32.3711 129.7 30.484C131.047 28.597 132.815 25.6155 135.002 21.5397Z" fill="url(#paint25_linear_40_460)"/>
<path d="M122.151 27.778C122.011 27.7785 121.873 27.7441 121.75 27.6778C121.626 27.6116 121.522 27.5157 121.445 27.3987C121.368 27.2817 121.321 27.1474 121.309 27.008C121.298 26.8685 121.321 26.7283 121.377 26.6C121.397 26.5563 123.305 22.0731 124.423 17.9249C124.448 17.8149 124.496 17.7112 124.562 17.62C124.629 17.5288 124.713 17.4519 124.81 17.3939C124.907 17.3359 125.014 17.298 125.126 17.2824C125.238 17.2669 125.352 17.274 125.461 17.3034C125.57 17.3328 125.672 17.3838 125.761 17.4534C125.85 17.5231 125.924 17.6099 125.978 17.7087C126.033 17.8075 126.067 17.9163 126.079 18.0287C126.091 18.141 126.08 18.2545 126.047 18.3625C124.899 22.6285 123.004 27.0746 122.925 27.2614C122.861 27.4141 122.753 27.5446 122.616 27.6365C122.478 27.7284 122.316 27.7776 122.151 27.778Z" fill="url(#paint26_linear_40_460)"/>
<path d="M0.729059 61.1523V55.5923H4.00106V56.3363H1.64106V57.9763H3.48106V58.7203H1.64106V61.1523H0.729059ZM5.56625 61.1523V56.7443H6.47825V61.1523H5.56625ZM6.03025 56.1603C5.70225 56.1603 5.44625 55.9043 5.44625 55.5763C5.44625 55.2483 5.70225 54.9923 6.03025 54.9923C6.35025 54.9923 6.60625 55.2483 6.60625 55.5763C6.60625 55.9043 6.35025 56.1603 6.03025 56.1603ZM11.5236 61.1523V58.6883C11.5236 57.8803 11.0836 57.4643 10.4196 57.4643C9.74762 57.4643 9.30762 57.8803 9.30762 58.6883V61.1523H8.39562V56.7443H9.30762V57.2483C9.60362 56.8883 10.0916 56.6723 10.6196 56.6723C11.6516 56.6723 12.4276 57.3203 12.4276 58.5523V61.1523H11.5236ZM14.0069 58.9283C14.0069 57.5683 14.9269 56.6723 16.0949 56.6723C16.6709 56.6723 17.2789 56.9443 17.6149 57.3603V55.2323H18.5349V61.1523H17.6149V60.4883C17.3349 60.8883 16.8069 61.2243 16.0869 61.2243C14.9269 61.2243 14.0069 60.2883 14.0069 58.9283ZM17.6149 58.9443C17.6149 58.0003 16.9669 57.4643 16.2789 57.4643C15.5989 57.4643 14.9429 57.9763 14.9429 58.9283C14.9429 59.8803 15.5989 60.4323 16.2789 60.4323C16.9669 60.4323 17.6149 59.8963 17.6149 58.9443ZM24.9869 60.1043L26.2749 56.7443H27.2189L24.5149 63.2243H23.5709L24.4669 61.0803L22.7309 56.7443H23.7469L24.9869 60.1043ZM32.8272 58.9443C32.8272 60.3283 31.8032 61.2243 30.5392 61.2243C29.2832 61.2243 28.3312 60.3283 28.3312 58.9443C28.3312 57.5603 29.3232 56.6723 30.5792 56.6723C31.8352 56.6723 32.8272 57.5603 32.8272 58.9443ZM29.2592 58.9443C29.2592 59.9443 29.8512 60.4323 30.5392 60.4323C31.2192 60.4323 31.8912 59.9443 31.8912 58.9443C31.8912 57.9443 31.2432 57.4643 30.5632 57.4643C29.8752 57.4643 29.2592 57.9443 29.2592 58.9443ZM38.4407 56.7443V61.1523H37.5287V60.6243C37.2407 61.0003 36.7447 61.2163 36.2247 61.2163C35.1927 61.2163 34.4087 60.5683 34.4087 59.3363V56.7443H35.3127V59.2003C35.3127 60.0083 35.7527 60.4243 36.4167 60.4243C37.0887 60.4243 37.5287 60.0083 37.5287 59.2003V56.7443H38.4407ZM41.2761 58.8323V61.1523H40.3641V56.7443H41.2761V57.3843C41.5321 56.9443 41.9721 56.6723 42.5961 56.6723V57.6163H42.3641C41.6921 57.6163 41.2761 57.8963 41.2761 58.8323ZM46.6485 58.9283C46.6485 57.5683 47.5685 56.6723 48.7285 56.6723C49.4485 56.6723 49.9845 57.0083 50.2565 57.3843V56.7443H51.1765V61.2243C51.1765 62.4243 50.4005 63.3283 49.0245 63.3283C47.8485 63.3283 46.9765 62.7443 46.8645 61.7683H47.7685C47.9045 62.2243 48.3925 62.5363 49.0245 62.5363C49.7285 62.5363 50.2565 62.1043 50.2565 61.2243V60.4883C49.9765 60.8643 49.4485 61.2243 48.7285 61.2243C47.5685 61.2243 46.6485 60.2883 46.6485 58.9283ZM50.2565 58.9443C50.2565 58.0003 49.6085 57.4643 48.9205 57.4643C48.2405 57.4643 47.5845 57.9763 47.5845 58.9283C47.5845 59.8803 48.2405 60.4323 48.9205 60.4323C49.6085 60.4323 50.2565 59.8963 50.2565 58.9443ZM57.2944 58.9443C57.2944 60.3283 56.2704 61.2243 55.0064 61.2243C53.7504 61.2243 52.7984 60.3283 52.7984 58.9443C52.7984 57.5603 53.7904 56.6723 55.0464 56.6723C56.3024 56.6723 57.2944 57.5603 57.2944 58.9443ZM53.7264 58.9443C53.7264 59.9443 54.3184 60.4323 55.0064 60.4323C55.6864 60.4323 56.3584 59.9443 56.3584 58.9443C56.3584 57.9443 55.7104 57.4643 55.0304 57.4643C54.3424 57.4643 53.7264 57.9443 53.7264 58.9443ZM63.1159 58.9443C63.1159 60.3283 62.0919 61.2243 60.8279 61.2243C59.5719 61.2243 58.6199 60.3283 58.6199 58.9443C58.6199 57.5603 59.6119 56.6723 60.8679 56.6723C62.1239 56.6723 63.1159 57.5603 63.1159 58.9443ZM59.5479 58.9443C59.5479 59.9443 60.1399 60.4323 60.8279 60.4323C61.5079 60.4323 62.1799 59.9443 62.1799 58.9443C62.1799 57.9443 61.5319 57.4643 60.8519 57.4643C60.1639 57.4643 59.5479 57.9443 59.5479 58.9443ZM64.4335 58.9283C64.4335 57.5683 65.3535 56.6723 66.5215 56.6723C67.0975 56.6723 67.7055 56.9443 68.0415 57.3603V55.2323H68.9615V61.1523H68.0415V60.4883C67.7615 60.8883 67.2335 61.2243 66.5135 61.2243C65.3535 61.2243 64.4335 60.2883 64.4335 58.9283ZM68.0415 58.9443C68.0415 58.0003 67.3935 57.4643 66.7055 57.4643C66.0255 57.4643 65.3695 57.9763 65.3695 58.9283C65.3695 59.8803 66.0255 60.4323 66.7055 60.4323C67.3935 60.4323 68.0415 59.8963 68.0415 58.9443ZM73.3735 58.9283C73.3735 57.5683 74.2935 56.6723 75.4535 56.6723C76.1735 56.6723 76.7095 57.0083 76.9815 57.3843V56.7443H77.9015V61.2243C77.9015 62.4243 77.1255 63.3283 75.7495 63.3283C74.5735 63.3283 73.7015 62.7443 73.5895 61.7683H74.4935C74.6295 62.2243 75.1175 62.5363 75.7495 62.5363C76.4535 62.5363 76.9815 62.1043 76.9815 61.2243V60.4883C76.7015 60.8643 76.1735 61.2243 75.4535 61.2243C74.2935 61.2243 73.3735 60.2883 73.3735 58.9283ZM76.9815 58.9443C76.9815 58.0003 76.3335 57.4643 75.6455 57.4643C74.9655 57.4643 74.3095 57.9763 74.3095 58.9283C74.3095 59.8803 74.9655 60.4323 75.6455 60.4323C76.3335 60.4323 76.9815 59.8963 76.9815 58.9443ZM79.8194 61.1523V56.7443H80.7314V61.1523H79.8194ZM80.2834 56.1603C79.9554 56.1603 79.6994 55.9043 79.6994 55.5763C79.6994 55.2483 79.9554 54.9923 80.2834 54.9923C80.6034 54.9923 80.8594 55.2483 80.8594 55.5763C80.8594 55.9043 80.6034 56.1603 80.2834 56.1603ZM83.5607 58.8323V61.1523H82.6487V56.7443H83.5607V57.3843C83.8167 56.9443 84.2567 56.6723 84.8807 56.6723V57.6163H84.6487C83.9767 57.6163 83.5607 57.8963 83.5607 58.8323ZM86.4391 61.1523V55.2323H87.3511V61.1523H86.4391ZM96.2666 58.9443C96.2666 60.3283 95.2426 61.2243 93.9786 61.2243C92.7226 61.2243 91.7706 60.3283 91.7706 58.9443C91.7706 57.5603 92.7626 56.6723 94.0186 56.6723C95.2746 56.6723 96.2666 57.5603 96.2666 58.9443ZM92.6986 58.9443C92.6986 59.9443 93.2906 60.4323 93.9786 60.4323C94.6586 60.4323 95.3306 59.9443 95.3306 58.9443C95.3306 57.9443 94.6826 57.4643 94.0026 57.4643C93.3146 57.4643 92.6986 57.9443 92.6986 58.9443ZM98.8001 58.8323V61.1523H97.8881V56.7443H98.8001V57.3843C99.0561 56.9443 99.4961 56.6723 100.12 56.6723V57.6163H99.8881C99.2161 57.6163 98.8001 57.8963 98.8001 58.8323ZM104.173 58.9283C104.173 57.5683 105.093 56.6723 106.253 56.6723C106.973 56.6723 107.509 57.0083 107.781 57.3843V56.7443H108.701V61.2243C108.701 62.4243 107.925 63.3283 106.549 63.3283C105.373 63.3283 104.501 62.7443 104.389 61.7683H105.293C105.429 62.2243 105.917 62.5363 106.549 62.5363C107.253 62.5363 107.781 62.1043 107.781 61.2243V60.4883C107.501 60.8643 106.973 61.2243 106.253 61.2243C105.093 61.2243 104.173 60.2883 104.173 58.9283ZM107.781 58.9443C107.781 58.0003 107.133 57.4643 106.445 57.4643C105.765 57.4643 105.109 57.9763 105.109 58.9283C105.109 59.8803 105.765 60.4323 106.445 60.4323C107.133 60.4323 107.781 59.8963 107.781 58.9443ZM114.818 58.9443C114.818 60.3283 113.794 61.2243 112.53 61.2243C111.274 61.2243 110.322 60.3283 110.322 58.9443C110.322 57.5603 111.314 56.6723 112.57 56.6723C113.826 56.6723 114.818 57.5603 114.818 58.9443ZM111.25 58.9443C111.25 59.9443 111.842 60.4323 112.53 60.4323C113.21 60.4323 113.882 59.9443 113.882 58.9443C113.882 57.9443 113.234 57.4643 112.554 57.4643C111.866 57.4643 111.25 57.9443 111.25 58.9443ZM120.64 58.9443C120.64 60.3283 119.616 61.2243 118.352 61.2243C117.096 61.2243 116.144 60.3283 116.144 58.9443C116.144 57.5603 117.136 56.6723 118.392 56.6723C119.648 56.6723 120.64 57.5603 120.64 58.9443ZM117.072 58.9443C117.072 59.9443 117.664 60.4323 118.352 60.4323C119.032 60.4323 119.704 59.9443 119.704 58.9443C119.704 57.9443 119.056 57.4643 118.376 57.4643C117.688 57.4643 117.072 57.9443 117.072 58.9443ZM121.958 58.9283C121.958 57.5683 122.878 56.6723 124.046 56.6723C124.622 56.6723 125.23 56.9443 125.566 57.3603V55.2323H126.486V61.1523H125.566V60.4883C125.286 60.8883 124.758 61.2243 124.038 61.2243C122.878 61.2243 121.958 60.2883 121.958 58.9283ZM125.566 58.9443C125.566 58.0003 124.918 57.4643 124.23 57.4643C123.55 57.4643 122.894 57.9763 122.894 58.9283C122.894 59.8803 123.55 60.4323 124.23 60.4323C124.918 60.4323 125.566 59.8963 125.566 58.9443ZM132.114 57.4003C132.402 57.0003 132.954 56.6723 133.65 56.6723C134.818 56.6723 135.722 57.5683 135.722 58.9283C135.722 60.2883 134.81 61.2243 133.65 61.2243C132.922 61.2243 132.402 60.8963 132.114 60.5123V61.1523H131.202V55.2323H132.114V57.4003ZM134.794 58.9283C134.794 57.9763 134.138 57.4643 133.45 57.4643C132.77 57.4643 132.114 58.0003 132.114 58.9443C132.114 59.8963 132.77 60.4323 133.45 60.4323C134.138 60.4323 134.794 59.8803 134.794 58.9283ZM141.543 58.9443C141.543 60.3283 140.519 61.2243 139.255 61.2243C137.999 61.2243 137.047 60.3283 137.047 58.9443C137.047 57.5603 138.039 56.6723 139.295 56.6723C140.551 56.6723 141.543 57.5603 141.543 58.9443ZM137.975 58.9443C137.975 59.9443 138.567 60.4323 139.255 60.4323C139.935 60.4323 140.607 59.9443 140.607 58.9443C140.607 57.9443 139.959 57.4643 139.279 57.4643C138.591 57.4643 137.975 57.9443 137.975 58.9443ZM144.901 60.1043L146.189 56.7443H147.133L144.429 63.2243H143.485L144.381 61.0803L142.645 56.7443H143.661L144.901 60.1043ZM149.485 60.6243C149.485 60.9523 149.229 61.2083 148.909 61.2083C148.581 61.2083 148.325 60.9523 148.325 60.6243C148.325 60.2963 148.581 60.0403 148.909 60.0403C149.229 60.0403 149.485 60.2963 149.485 60.6243Z" fill="#E296A3"/>
<defs>
<linearGradient id="paint0_linear_40_460" x1="130.384" y1="5.51025" x2="130.384" y2="14.1147" gradientUnits="userSpaceOnUse">
<stop stop-color="#E296A3"/>
<stop offset="1" stop-color="#DB6F84"/>
</linearGradient>
<linearGradient id="paint1_linear_40_460" x1="126.001" y1="5.55981" x2="126.001" y2="11.663" gradientUnits="userSpaceOnUse">
<stop stop-color="#E296A3"/>
<stop offset="1" stop-color="#DB6F84"/>
</linearGradient>
<linearGradient id="paint2_linear_40_460" x1="120.217" y1="3.7063" x2="120.217" y2="13.3154" gradientUnits="userSpaceOnUse">
<stop stop-color="#E296A3"/>
<stop offset="1" stop-color="#DB6F84"/>
</linearGradient>
<linearGradient id="paint3_linear_40_460" x1="126.305" y1="0.223145" x2="126.305" y2="6.12471" gradientUnits="userSpaceOnUse">
<stop stop-color="#E296A3"/>
<stop offset="1" stop-color="#DB6F84"/>
</linearGradient>
<linearGradient id="paint4_linear_40_460" x1="121.581" y1="0.976318" x2="121.581" y2="10.8652" gradientUnits="userSpaceOnUse">
<stop stop-color="#E296A3"/>
<stop offset="1" stop-color="#DB6F84"/>
</linearGradient>
<linearGradient id="paint5_linear_40_460" x1="130.968" y1="0" x2="130.968" y2="6.92569" gradientUnits="userSpaceOnUse">
<stop stop-color="#E296A3"/>
<stop offset="1" stop-color="#DB6F84"/>
</linearGradient>
<linearGradient id="paint6_linear_40_460" x1="133.129" y1="12.2134" x2="133.129" y2="14.4476" gradientUnits="userSpaceOnUse">
<stop stop-color="#E296A3"/>
<stop offset="1" stop-color="#DB6F84"/>
</linearGradient>
<linearGradient id="paint7_linear_40_460" x1="121.884" y1="11.3901" x2="121.884" y2="14.4331" gradientUnits="userSpaceOnUse">
<stop stop-color="#E296A3"/>
<stop offset="1" stop-color="#DB6F84"/>
</linearGradient>
<linearGradient id="paint8_linear_40_460" x1="126.683" y1="2.62402" x2="126.683" y2="5.10144" gradientUnits="userSpaceOnUse">
<stop stop-color="#E296A3"/>
<stop offset="1" stop-color="#DB6F84"/>
</linearGradient>
<linearGradient id="paint9_linear_40_460" x1="120.121" y1="14.4265" x2="120.121" y2="16.5961" gradientUnits="userSpaceOnUse">
<stop stop-color="#E296A3"/>
<stop offset="1" stop-color="#DB6F84"/>
</linearGradient>
<linearGradient id="paint10_linear_40_460" x1="123.474" y1="15.2024" x2="123.474" y2="19.0726" gradientUnits="userSpaceOnUse">
<stop stop-color="#E296A3"/>
<stop offset="1" stop-color="#DB6F84"/>
</linearGradient>
<linearGradient id="paint11_linear_40_460" x1="127.186" y1="14.5859" x2="127.186" y2="16.2486" gradientUnits="userSpaceOnUse">
<stop stop-color="#E296A3"/>
<stop offset="1" stop-color="#DB6F84"/>
</linearGradient>
<linearGradient id="paint12_linear_40_460" x1="123.417" y1="4.50415" x2="123.417" y2="6.05753" gradientUnits="userSpaceOnUse">
<stop stop-color="#E296A3"/>
<stop offset="1" stop-color="#DB6F84"/>
</linearGradient>
<linearGradient id="paint13_linear_40_460" x1="124.803" y1="4.43433" x2="124.803" y2="5.23911" gradientUnits="userSpaceOnUse">
<stop stop-color="#E296A3"/>
<stop offset="1" stop-color="#DB6F84"/>
</linearGradient>
<linearGradient id="paint14_linear_40_460" x1="26.3067" y1="2.2688" x2="26.3067" y2="36.6026" gradientUnits="userSpaceOnUse">
<stop stop-color="#C64D68"/>
<stop offset="1" stop-color="#DB6F84"/>
</linearGradient>
<linearGradient id="paint15_linear_40_460" x1="26.3009" y1="2.76904" x2="26.3009" y2="36.0981" gradientUnits="userSpaceOnUse">
<stop stop-color="#C64D68"/>
<stop offset="1" stop-color="#DB6F84"/>
</linearGradient>
<linearGradient id="paint16_linear_40_460" x1="53.5897" y1="19.6245" x2="53.5897" y2="35.1884" gradientUnits="userSpaceOnUse">
<stop stop-color="#C64D68"/>
<stop offset="1" stop-color="#DB6F84"/>
</linearGradient>
<linearGradient id="paint17_linear_40_460" x1="53.599" y1="20.1228" x2="53.599" y2="34.6906" gradientUnits="userSpaceOnUse">
<stop stop-color="#C64D68"/>
<stop offset="1" stop-color="#DB6F84"/>
</linearGradient>
<linearGradient id="paint18_linear_40_460" x1="75.3366" y1="0.929687" x2="75.3366" y2="50.1525" gradientUnits="userSpaceOnUse">
<stop stop-color="#C64D68"/>
<stop offset="1" stop-color="#DB6F84"/>
</linearGradient>
<linearGradient id="paint19_linear_40_460" x1="75.3366" y1="1.42944" x2="75.3366" y2="49.6542" gradientUnits="userSpaceOnUse">
<stop stop-color="#C64D68"/>
<stop offset="1" stop-color="#DB6F84"/>
</linearGradient>
<linearGradient id="paint20_linear_40_460" x1="99.3559" y1="19.8616" x2="99.3559" y2="35.0258" gradientUnits="userSpaceOnUse">
<stop stop-color="#C64D68"/>
<stop offset="1" stop-color="#DB6F84"/>
</linearGradient>
<linearGradient id="paint21_linear_40_460" x1="99.3614" y1="20.3667" x2="99.3614" y2="34.5161" gradientUnits="userSpaceOnUse">
<stop stop-color="#C64D68"/>
<stop offset="1" stop-color="#DB6F84"/>
</linearGradient>
<linearGradient id="paint22_linear_40_460" x1="114.924" y1="19.8616" x2="114.924" y2="35.0258" gradientUnits="userSpaceOnUse">
<stop stop-color="#C64D68"/>
<stop offset="1" stop-color="#DB6F84"/>
</linearGradient>
<linearGradient id="paint23_linear_40_460" x1="114.929" y1="20.3667" x2="114.929" y2="34.5212" gradientUnits="userSpaceOnUse">
<stop stop-color="#C64D68"/>
<stop offset="1" stop-color="#DB6F84"/>
</linearGradient>
<linearGradient id="paint24_linear_40_460" x1="134.384" y1="8.70264" x2="134.384" y2="35.0259" gradientUnits="userSpaceOnUse">
<stop stop-color="#C64D68"/>
<stop offset="1" stop-color="#DB6F84"/>
</linearGradient>
<linearGradient id="paint25_linear_40_460" x1="133.888" y1="9.20435" x2="133.888" y2="34.5213" gradientUnits="userSpaceOnUse">
<stop stop-color="#C64D68"/>
<stop offset="1" stop-color="#DB6F84"/>
</linearGradient>
<linearGradient id="paint26_linear_40_460" x1="123.695" y1="17.2744" x2="123.695" y2="27.778" gradientUnits="userSpaceOnUse">
<stop stop-color="#C64D68"/>
<stop offset="1" stop-color="#DB6F84"/>
</linearGradient>
</defs>
</svg>
