<svg width="27" height="27" viewBox="0 0 27 27" fill="none" xmlns="http://www.w3.org/2000/svg">
<path d="M3.37501 19.1252H23.625C23.9438 19.1252 24.2111 19.2332 24.4271 19.4492C24.6431 19.6652 24.7508 19.9322 24.75 20.2502C24.7493 20.5682 24.6413 20.8356 24.426 21.0523C24.2108 21.2691 23.9438 21.3767 23.625 21.3752H3.37501C3.05626 21.3752 2.78926 21.2672 2.57401 21.0512C2.35876 20.8352 2.25076 20.5682 2.25001 20.2502C2.24926 19.9322 2.35726 19.6652 2.57401 19.4492C2.79076 19.2332 3.05776 19.1252 3.37501 19.1252ZM4.50001 12.8814L3.96563 13.8377C3.85313 14.0439 3.68438 14.1752 3.45938 14.2314C3.23438 14.2877 3.01876 14.2596 2.81251 14.1471C2.60626 14.0346 2.47501 13.8658 2.41876 13.6408C2.36251 13.4158 2.39063 13.2002 2.50313 12.9939L3.03751 12.0377H1.96876C1.72501 12.0377 1.52363 11.9582 1.36463 11.7992C1.20563 11.6402 1.12576 11.4384 1.12501 11.1939C1.12426 10.9494 1.20413 10.7481 1.36463 10.5898C1.52513 10.4316 1.72651 10.3517 1.96876 10.3502H3.03751L2.50313 9.45019C2.39063 9.24394 2.36251 9.02832 2.41876 8.80332C2.47501 8.57832 2.60626 8.40957 2.81251 8.29707C3.01876 8.18457 3.23438 8.15645 3.45938 8.2127C3.68438 8.26895 3.85313 8.4002 3.96563 8.60645L4.50001 9.50644L5.03438 8.60645C5.14688 8.4002 5.31563 8.26895 5.54063 8.2127C5.76563 8.15645 5.98126 8.18457 6.18751 8.29707C6.39376 8.40957 6.52501 8.57832 6.58126 8.80332C6.63751 9.02832 6.60938 9.24394 6.49688 9.45019L5.96251 10.3502H7.03126C7.27501 10.3502 7.47676 10.4301 7.63651 10.5898C7.79626 10.7496 7.87576 10.9509 7.87501 11.1939C7.87426 11.4369 7.79438 11.6387 7.63538 11.7992C7.47638 11.9597 7.27501 12.0392 7.03126 12.0377H5.96251L6.49688 12.9939C6.60938 13.2002 6.63751 13.4158 6.58126 13.6408C6.52501 13.8658 6.39376 14.0346 6.18751 14.1471C5.98126 14.2596 5.76563 14.2877 5.54063 14.2314C5.31563 14.1752 5.14688 14.0439 5.03438 13.8377L4.50001 12.8814ZM13.5 12.8814L12.9656 13.8377C12.8531 14.0439 12.6844 14.1752 12.4594 14.2314C12.2344 14.2877 12.0188 14.2596 11.8125 14.1471C11.6063 14.0346 11.475 13.8658 11.4188 13.6408C11.3625 13.4158 11.3906 13.2002 11.5031 12.9939L12.0375 12.0377H10.9688C10.725 12.0377 10.5236 11.9582 10.3646 11.7992C10.2056 11.6402 10.1258 11.4384 10.125 11.1939C10.1243 10.9494 10.2041 10.7481 10.3646 10.5898C10.5251 10.4316 10.7265 10.3517 10.9688 10.3502H12.0375L11.5031 9.45019C11.3906 9.24394 11.3625 9.02832 11.4188 8.80332C11.475 8.57832 11.6063 8.40957 11.8125 8.29707C12.0188 8.18457 12.2344 8.15645 12.4594 8.2127C12.6844 8.26895 12.8531 8.4002 12.9656 8.60645L13.5 9.50644L14.0344 8.60645C14.1469 8.4002 14.3156 8.26895 14.5406 8.2127C14.7656 8.15645 14.9813 8.18457 15.1875 8.29707C15.3938 8.40957 15.525 8.57832 15.5813 8.80332C15.6375 9.02832 15.6094 9.24394 15.4969 9.45019L14.9625 10.3502H16.0313C16.275 10.3502 16.4764 10.4301 16.6354 10.5898C16.7944 10.7496 16.8743 10.9509 16.875 11.1939C16.8758 11.4369 16.7959 11.6387 16.6354 11.7992C16.4749 11.9597 16.2735 12.0392 16.0313 12.0377H14.9625L15.4969 12.9939C15.6094 13.2002 15.6375 13.4158 15.5813 13.6408C15.525 13.8658 15.3938 14.0346 15.1875 14.1471C14.9813 14.2596 14.7656 14.2877 14.5406 14.2314C14.3156 14.1752 14.1469 14.0439 14.0344 13.8377L13.5 12.8814ZM22.5 12.8814L21.9656 13.8377C21.8531 14.0439 21.6844 14.1752 21.4594 14.2314C21.2344 14.2877 21.0188 14.2596 20.8125 14.1471C20.6063 14.0346 20.475 13.8658 20.4188 13.6408C20.3625 13.4158 20.3906 13.2002 20.5031 12.9939L21.0375 12.0377H19.9688C19.725 12.0377 19.5236 11.9582 19.3646 11.7992C19.2056 11.6402 19.1258 11.4384 19.125 11.1939C19.1243 10.9494 19.2041 10.7481 19.3646 10.5898C19.5251 10.4316 19.7265 10.3517 19.9688 10.3502H21.0375L20.5031 9.45019C20.3906 9.24394 20.3625 9.02832 20.4188 8.80332C20.475 8.57832 20.6063 8.40957 20.8125 8.29707C21.0188 8.18457 21.2344 8.15645 21.4594 8.2127C21.6844 8.26895 21.8531 8.4002 21.9656 8.60645L22.5 9.50644L23.0344 8.60645C23.1469 8.4002 23.3156 8.26895 23.5406 8.2127C23.7656 8.15645 23.9813 8.18457 24.1875 8.29707C24.3938 8.40957 24.525 8.57832 24.5813 8.80332C24.6375 9.02832 24.6094 9.24394 24.4969 9.45019L23.9625 10.3502H25.0313C25.275 10.3502 25.4768 10.4301 25.6365 10.5898C25.7963 10.7496 25.8758 10.9509 25.875 11.1939C25.8743 11.4369 25.7944 11.6387 25.6354 11.7992C25.4764 11.9597 25.275 12.0392 25.0313 12.0377H23.9625L24.4969 12.9939C24.6094 13.2002 24.6375 13.4158 24.5813 13.6408C24.525 13.8658 24.3938 14.0346 24.1875 14.1471C23.9813 14.2596 23.7656 14.2877 23.5406 14.2314C23.3156 14.1752 23.1469 14.0439 23.0344 13.8377L22.5 12.8814Z" fill="#DB6F84"/>
</svg>
