<svg width="408" height="444" viewBox="0 0 408 444" fill="none" xmlns="http://www.w3.org/2000/svg">
<g clip-path="url(#clip0_40_279)">
<path d="M176.546 107.999C170.483 106.763 168.224 102.503 167.162 97.1874C166.246 92.5714 165.113 88.0001 164.29 83.3744C163.588 79.3135 162.634 75.173 162.698 71.0879C162.787 66.0477 165.327 61.8679 169.237 58.5433C178.296 50.8756 189.187 45.6855 200.849 43.4789C202.323 43.1865 203.782 42.8364 205.241 42.4863C205.582 42.3621 205.91 42.2042 206.219 42.015C204.672 37.2218 203.361 32.3537 201.416 27.7522C200.978 26.7052 198.251 25.8896 196.758 26.1308C185.526 27.9172 178.454 34.7656 174.548 45.1972L171.999 51.9918C167.301 38.4361 184.446 20.3174 200.52 21.2448C200.767 20.0915 200.992 18.878 201.292 17.6849C202.63 12.4165 207.774 9.54001 212.963 10.3C218.152 11.0599 223.48 10.9526 228.738 11.3305C231.467 11.5309 234.422 11.3639 236.848 12.3705C248.876 17.38 259.261 24.3765 264.502 37.0976C264.836 37.9649 266.085 38.6112 267.049 38.9658C270.079 40.1025 273.19 41.0247 276.284 42.0298C284.032 44.5287 288.975 50.0548 291.787 57.3477C295.2 66.1887 298.283 75.1508 301.037 84.2339C302.008 87.4389 302.513 91.3518 301.548 94.4167C300.458 97.8945 297.486 100.777 295.016 104.375C299.064 109.521 301.734 116.301 303.063 123.712C304.497 131.593 302.358 138.066 295.959 143.061C291.768 146.324 287.852 149.981 283.441 152.902C277.731 156.694 271.545 158.452 264.982 154.833C268.649 153.62 272.427 152.782 275.76 151.133C277.922 150.075 279.687 148 281.309 146.109C284.229 142.695 286.628 138.811 289.743 135.611C295.566 129.637 294.151 122.653 293.03 115.698C292.582 113.54 291.842 111.454 290.832 109.496C289.426 106.483 287.45 104.236 283.79 103.494C280.602 102.839 277.603 101.284 274.521 100.127L274.853 99.2431C279.372 99.4551 283.91 99.6745 288.458 99.7711C293.231 99.9002 293.734 99.3696 294.472 94.714C295.024 91.2645 294.253 88.2603 292.685 85.0837C288.257 76.1089 282.755 67.5843 281.062 57.3883C280.282 52.6455 276.406 50.0269 272.255 48.2617C267.141 46.0761 261.92 44.1766 256.65 42.4072C250.13 40.2133 248.174 40.9185 243.831 46.3278C243.488 46.748 243.159 47.1884 242.593 47.9256C241.25 44.5287 243.205 42.3401 244.495 40.0498C246.121 37.2183 249.093 37.0871 251.824 36.9623C254.556 36.8376 257.317 37.2282 260.802 37.4303C259.922 36.0394 259.479 34.8868 258.663 34.1357C250.245 26.3047 241.074 20.4829 228.797 21.0987C224.18 21.3248 219.429 20.1504 214.83 19.1816C210.563 18.278 207.23 19.8681 207.241 24.167C207.376 28.7489 207.988 33.3043 209.069 37.7589C209.611 40.2689 211.488 41.811 214.332 42.6113C217.496 43.5091 220.36 45.4659 223.16 47.5698C208.95 43.2769 197.856 50.6855 186.49 56.6643C182.316 58.9183 178.352 61.5422 174.648 64.5044C170.747 67.5656 169.191 71.8919 170.013 76.8582C170.614 80.6142 171.464 84.3378 172.071 88.0963C172.435 90.3689 172.995 92.7521 172.665 94.9945C171.953 99.9192 172.099 104.432 176.546 107.999Z" fill="url(#paint0_linear_40_279)"/>
<path d="M327.575 215.825C329.669 216.61 331.997 217.046 333.787 218.267C335.874 219.702 337.836 219.593 339.558 218.444C342.664 216.479 345.549 214.184 348.163 211.6C350.971 208.663 349.958 206.043 346.637 203.647C343.479 201.342 340.584 198.696 338.004 195.758C331.949 188.903 323.997 187.818 315.606 187.785C314.853 187.867 314.105 187.992 313.366 188.161C319.042 193.198 323.69 197.968 317.398 204.953C317.125 204.435 316.89 204.191 316.946 204.042C319.143 197.85 315.619 194.769 310.669 192.482C307.312 190.933 304.063 188.936 300.533 188.064C297.779 187.433 294.899 187.627 292.254 188.622C284.568 191.672 277.081 195.279 269.537 198.701C268.146 199.218 266.834 199.926 265.639 200.806C260.614 205.107 260.569 206.589 265.023 211.404C266.717 213.234 268.437 215.037 270.747 217.498C268.511 216.815 266.984 216.457 265.544 215.887C263.562 215.099 261.397 213.1 259.765 213.497C256.225 214.439 252.871 215.974 249.844 218.037C244.417 221.608 241.318 226.706 241.535 233.463C241.496 234.39 241.341 235.308 241.072 236.197C238.677 246.772 238.677 246.773 242.828 255.755C241.385 255.497 240.036 254.857 238.923 253.902C237.81 252.947 236.973 251.712 236.499 250.324C233.346 242.339 233.749 233.931 235.011 225.742C236.07 218.67 241.843 215.006 247.737 212.047C250.901 210.453 254.369 209.455 258.201 207.999C258.227 208.128 257.958 208.331 258.201 207.999C257.141 199.851 261.846 195.319 268.299 191.917C273.302 189.277 278.465 186.905 283.359 184.061C291.977 179.061 300.278 179.156 308.355 185.028C310.29 186.436 311.808 186.323 314.009 185.458C323.501 181.787 332.661 183.666 341.47 187.942C342.925 188.651 343.945 190.28 345.114 191.535C347.56 194.129 349.714 197.066 352.464 199.306C356.9 202.921 357.79 206.719 354.67 211.594C354.243 212.257 353.887 212.969 353.527 213.612C361.862 223.029 360.061 241.668 349.746 248.382C351.415 244.469 353.052 241.152 354.271 237.686C355.342 234.741 355.775 231.602 355.54 228.477C355.306 225.352 354.41 222.313 352.913 219.56C351.541 216.91 350.069 216.009 347.215 217.942C344.489 219.79 341.37 221.067 338.461 222.572C340.524 227.552 342.912 232.319 344.454 237.341C345.698 241.786 346.538 246.334 346.966 250.929C348.05 260.081 343.606 266.35 336.079 270.973C332.237 273.307 328.597 275.909 324.937 278.49C321.276 281.07 317.915 281.389 313.996 278.768C319.353 279.554 321.362 276.177 324.112 273.552C327.505 270.3 331.505 267.684 335.296 264.856C340.209 261.189 341.662 256.23 340.64 250.433C339.561 244.294 338.502 238.141 337.059 232.082C335.588 225.9 333.008 220.244 326.841 217.011L327.575 215.825Z" fill="url(#paint1_linear_40_279)"/>
<path d="M228.323 238.845C221.287 238.757 214.7 236.701 208.378 233.506L207.882 234.195L209.851 237.211C219.817 252.462 227.856 268.517 229.712 286.94C230.099 290.839 229.8 294.776 228.826 298.572C225.28 312.076 214.678 317.066 200.133 319.182C193.526 320.145 187.476 318.261 182.009 314.704C180.007 313.397 178.93 313.697 177.311 315.166C169.606 322.141 160.708 325.04 150.402 322.442C148.717 321.914 147.063 321.293 145.447 320.583L145.602 319.024C146.953 318.923 148.605 318.274 149.611 318.815C157.2 322.886 165.845 322.242 172.606 316.835C173.326 316.26 173.984 315.594 174.755 315.06C177.234 313.276 177.46 311.625 175.185 309.229C171.027 304.85 169.61 295.581 172.113 291.499C177.297 283.059 184.373 279.499 192.268 281.704C195.1 282.5 196.883 282.434 197.568 279.124C201.205 261.522 202.484 243.978 195.035 227.039C191.442 218.823 186.765 211.045 182.568 203.077C182.219 202.608 181.825 202.175 181.392 201.783C181.135 202.433 180.948 203.109 180.835 203.799C180.464 221.06 169.75 230.103 155.209 236.084C153.604 236.743 151.876 237.059 150.283 237.767C147.365 239.039 146.252 237.657 145.708 234.441C147.919 233.787 150.201 233.16 152.42 232.368C160.481 229.644 167.98 225.53 172.929 218.486C178.593 210.39 179.86 200.904 177.055 191.574C171.113 171.826 174.667 153.199 182.34 134.865C182.795 133.789 184.103 133.071 185.022 132.162C185.265 133.492 186.021 134.977 185.688 136.121C183.823 142.556 181.357 148.833 179.709 155.321C175.577 171.631 177.844 187.019 186.222 201.778C191.898 211.777 198.378 220.78 207.767 227.662C213.094 231.566 219.248 234.192 225.752 235.337C226.972 235.565 228.016 236.757 229.146 237.5C228.86 237.986 228.592 238.405 228.323 238.845ZM180.712 312.37C190.731 319.096 200.59 318.537 210.797 314.126C219.998 310.161 225.095 303.417 226.564 293.51C228.034 283.603 225.613 274.002 222.188 265.063C218.762 256.123 213.451 247.781 208.67 239.312C206.797 236.021 204.075 233.212 201.186 229.466C201.724 234.221 202.236 237.818 202.519 241.433C203.567 254.732 203.62 267.976 199.409 280.86C198.762 282.842 199.388 283.545 201.252 284.429C203.41 285.419 205.326 286.866 206.869 288.671C208.412 290.475 209.543 292.594 210.185 294.879C210.75 296.775 211.444 299.216 208.009 300.323C207.456 298.434 206.778 296.583 205.978 294.784C204.616 292.167 203.294 289.423 201.379 287.273C199.687 285.378 197.753 285.372 196.526 288.486C193.668 295.728 189.851 302.441 184.352 308.084C183.054 309.407 181.967 310.883 180.718 312.373L180.712 312.37ZM195.55 285.057C189.901 282.678 182.534 284.461 178.207 288.897C174.745 292.449 172.886 301.735 174.836 305.79C177.394 311.111 178.611 311.285 182.62 306.908C183.55 305.892 184.523 304.899 185.47 303.897C190.512 298.565 193.087 291.958 195.557 285.059L195.55 285.057Z" fill="url(#paint2_linear_40_279)"/>
<path d="M349.516 47.0455C342.835 44.1753 337.514 39.6943 332.979 34.1658C332.443 33.5196 330.832 33.2861 329.883 33.5233C322.287 35.4427 314.624 37.2631 307.188 39.6654C304.65 40.5005 302.477 42.9118 300.519 44.9662C297.842 47.774 295.531 50.9273 292.536 54.5804C292.142 46.793 287.664 42.4202 281.434 39.3339C281.576 38.9568 281.659 38.5577 281.774 38.1709L330.187 28.4604C327.802 19.6957 327.593 10.702 333.653 2.81395C335.435 0.515635 338.081 -1.19897 340.347 -3.16722L341.578 -2.06001C340.231 -0.266377 339.161 1.85405 337.499 3.27782C329.416 10.2138 328.601 18.6529 332.003 27.3983C332.247 28.0315 333.706 28.6901 334.454 28.5553C349.828 25.7714 364.788 21.8381 376.493 10.5867C381.156 6.06829 383.542 0.102727 385.438 -6.03928C386.037 -8.01023 386.876 -9.90017 387.935 -11.6667C388.263 -6.29244 386.223 -1.54682 384.083 3.1687C376.938 18.8903 363.399 25.819 347.631 29.6497C343.378 30.687 339.085 31.5317 334.335 32.5681C335.011 33.6744 335.319 34.532 335.913 35.1035C337.685 36.9265 339.591 38.6156 341.613 40.1567C344.334 42.0972 347.288 45.0376 350.162 45.0478C352.454 45.0473 354.597 41.134 357.072 39.2812C362.035 35.5431 366.987 31.7343 372.255 28.4668C380.778 23.1865 387.819 16.7568 390.565 6.78743C391.691 2.70004 392.034 -1.61421 392.744 -5.82032C392.774 -6.19445 392.901 -6.55441 393.111 -6.86536C393.321 -7.1763 393.608 -7.42772 393.944 -7.5953C393.146 -2.02776 392.655 3.61054 391.479 9.09592C390.256 14.8081 385.776 18.6234 381.779 22.3381C377.509 26.3064 372.284 29.2414 367.697 32.9056C362.613 36.9688 357.784 41.358 352.161 46.1835C364.059 52.3683 374.889 50.4306 385.68 47.5663C383.074 50.1417 380.25 51.4629 375.431 51.7913C368.241 52.3128 361.068 52.3361 354.311 49.2302C352.263 48.2838 350.948 48.7843 349.663 50.6088C340.151 64.0998 334.367 78.8634 334.247 95.5143C334.151 109.133 347.844 124.514 361.972 126.87C364.897 127.359 367.884 127.463 371.725 127.821C365.606 128.493 360.362 130.234 355.009 127.677C353.133 126.763 351.205 125.961 349.235 125.273C343.975 123.478 340.483 119.816 337.955 115.107C335.825 111.156 333.314 107.254 332.109 103.012C331 99.147 331.031 94.8343 331.178 90.7435C331.754 75.1534 338.925 62.1863 347.873 49.9819C348.292 49.3976 348.733 48.8953 349.13 48.3321C349.298 47.9159 349.427 47.4853 349.516 47.0455Z" fill="url(#paint3_linear_40_279)"/>
<path d="M101.555 226.925C101.385 225.281 101.212 224.044 101.137 222.8C100.865 218.307 100.244 217.844 95.648 218.649C89.9257 219.647 85.9921 223.252 82.3281 227.403C84.4373 222.335 87.9224 218.621 93.1238 216.619C93.9868 216.283 94.9001 216.094 95.8256 216.06C99.0833 215.977 102.214 216.232 104.638 212.995C105.412 211.958 108.269 212.132 110.089 212.303C112.36 212.517 114.556 213.564 116.828 213.815C125.331 214.736 129.437 220.556 132.719 227.506C133.43 229.011 134.559 230.807 135.956 231.413C141.893 233.974 144.617 238.319 144.593 244.689C144.587 247.572 144.946 250.451 145.109 253.338C145.385 258.196 144.563 262.464 139.365 263.963C139.661 267.582 140.024 270.885 140.173 274.183C140.292 275.942 139.874 277.696 138.973 279.213C138.073 280.729 136.734 281.937 135.133 282.676C130.7 284.822 126.125 286.659 121.44 288.175C119.94 288.673 118.021 287.916 116.252 287.215C123.728 287.157 128.113 281.637 133.2 277.804C137.941 274.243 136.816 265.951 131.82 262.919C131.226 262.391 130.685 261.805 130.206 261.172C132.406 261.456 133.839 261.63 135.268 261.832C139.054 262.378 141.274 260.377 140.816 256.615C140.165 251.016 139.348 245.443 138.595 239.857C138.555 239.629 138.498 239.405 138.425 239.185C136.945 234.372 125.951 229.61 121.347 231.762C121.085 231.886 120.722 231.787 120.363 231.793C122.059 228.38 122.059 228.38 131.304 228.807C128.159 224.2 124.883 220.813 119.942 219.352C116.319 218.22 112.639 217.28 108.916 216.536C108.216 216.48 107.511 216.579 106.854 216.828C106.197 217.076 105.602 217.467 105.114 217.973C102.367 221.34 103.372 226.116 106.937 228.514C107.668 229.136 108.359 229.804 109.005 230.514C99.2123 228.167 91.2008 231.689 83.0676 234.408C81.3858 234.898 79.8887 235.879 78.7688 237.226C77.6489 238.573 76.9573 240.224 76.7827 241.967C76.1163 246.471 75.3231 250.958 74.5869 255.451L73.6448 255.787C73.2029 254.138 72.4188 252.472 72.406 250.805C72.3805 247.829 72.9198 244.849 73.0528 241.865C73.2803 236.811 75.6372 233 80.3476 231.496C86.1277 229.652 92.1506 228.544 98.0777 227.178C99.2293 227.011 100.391 226.926 101.555 226.925Z" fill="url(#paint4_linear_40_279)"/>
<path d="M219.234 61.5543C220.556 72.5606 229.075 76.8396 236.456 80.8917C245.502 85.8804 250.649 93.5524 255.64 101.662C259.142 107.353 261.965 113.47 264.934 119.472C269.334 128.347 269.338 137.271 264.826 146.134C262.283 151.113 256.731 153.436 251.141 151.828C257.581 147.435 259.057 140.772 257.864 133.909C256.629 127.342 254.652 120.938 251.973 114.817C246.485 101.766 238.858 89.8703 230.051 78.845C227.796 76.0186 224.601 73.8999 221.677 71.6684C218.203 69.0075 217.37 66.6405 219.234 61.5543Z" fill="url(#paint5_linear_40_279)"/>
<path d="M38.2532 293.005C37.9131 289.562 39.9388 288.69 41.8213 288.062C44.0665 287.267 46.465 287.004 48.8291 287.291C51.1933 287.578 53.4588 288.409 55.4484 289.718C57.5948 291.094 58.2337 290.34 59.6133 288.936C64.1266 284.34 68.7846 279.872 73.5507 275.511C74.3335 274.789 75.7941 274.81 76.9467 274.486L77.4675 275.727C75.1093 277.683 72.6625 279.539 70.41 281.609C67.4404 284.345 64.6886 287.31 61.7256 290.048C59.6502 291.962 60.1247 293.267 62.0272 295.056C69.0471 301.651 70.2815 308.404 66.2942 316.936C63.9803 321.898 56.3036 325.99 50.4524 325.374C48.7537 325.197 47.0598 324.947 45.0149 324.684C44.6893 327.529 44.3874 330.153 44.0976 332.744L43.3572 332.74C43.3713 330.854 43.4913 328.97 43.7165 327.097C44.0891 324.878 43.7942 323.588 41.3235 322.661C24.5223 316.358 18.8527 291.89 24.2725 280.884C28.467 272.393 35.5309 267.463 43.9008 264.35C50.6953 261.819 57.8498 260.245 64.8588 258.328C65.6798 258.117 66.582 258.381 67.4394 258.429L67.5368 259.414C66.7847 259.775 65.9946 260.051 65.1812 260.237C56.2013 261.318 47.9289 264.704 40.2563 269.221C29.7004 275.392 23.6023 283.956 25.438 297.113C27.0967 309.002 33.4676 318.335 44.048 322.26C44.4053 321.87 44.6841 321.416 44.8691 320.921C46.1117 311.678 49.7445 303.399 54.8038 295.647C56.6517 292.817 56.1902 291.457 52.7668 290.915C50.1407 290.5 47.3153 291.013 44.616 291.387C42.5823 291.648 40.6437 292.367 38.2532 293.005ZM45.637 322.611C49.2623 323.637 53.1401 323.276 56.5131 321.597C59.8861 319.917 62.5121 317.041 63.8783 313.53C66.5567 306.865 63.9181 297.865 58.1745 294.768C51.6687 302.815 47.3502 312.406 45.637 322.611Z" fill="url(#paint6_linear_40_279)"/>
<path d="M250.907 262.138C247.765 258.808 246.4 255.448 247.898 251.218C250.324 244.355 254.542 238.706 261.315 236.174C270.907 232.592 280.824 229.882 290.665 227.04C292.326 226.566 294.338 227.135 296.133 227.452C299.532 228.06 302.907 228.829 306.291 229.557C310.936 230.558 315.475 230.778 319.769 227.241C318.224 230.845 316.542 232.105 313.429 231.427C306.634 229.946 300.181 231.33 293.646 232.972C283.418 235.543 273.385 238.581 264.122 243.717C258.746 246.699 254.235 250.577 252.169 256.618C251.644 258.216 251.413 259.917 250.907 262.138Z" fill="url(#paint7_linear_40_279)"/>
<path d="M183.77 99.6578C184.455 93.0092 184.851 86.1785 193.512 83.5756L188.098 88.8133L188.756 89.6684C189.65 89.2622 190.575 88.9339 191.473 88.5366C197.502 85.8512 203.319 87.8411 207.203 93.2069C208.913 95.5692 211.744 97.1359 214.247 99.2024C213.495 99.2315 212.126 99.697 211.394 99.2149C209.1 97.7775 206.99 96.0643 205.112 94.1136C202.796 91.5684 200.422 89.7133 196.768 90.2784C192.836 90.8728 189.108 91.8549 187.899 96.2446C185.814 103.777 184.578 111.383 187.469 119.017C188.04 120.664 188.975 122.162 190.202 123.399C191.43 124.637 192.921 125.582 194.563 126.166C202.16 128.95 209.696 131.896 217.345 134.499C222.608 136.287 226.326 134.285 228.13 128.902C228.9 126.602 229.377 124.215 229.551 121.796C229.709 119.555 229.298 117.25 229.133 115L230.28 114.652L233.113 122.917C235.866 121.51 238.646 120.031 241.502 118.588L241.944 119.384C241.115 120.063 240.248 120.697 239.349 121.281C234.834 123.904 231.183 127.229 229.286 132.288C227.215 137.808 221.902 138.663 217.177 137.321C209.733 135.196 202.351 132.849 195.003 130.411C187.861 128.036 183.109 121.15 182.998 113.379C182.954 111.879 183.022 110.377 183.2 108.886C183.667 105.664 182.896 103.113 180.739 100.382C177.106 95.7927 176.096 90.3184 178.756 84.7519C179.902 82.3487 181.651 80.3348 185.383 80.9263C181.969 84.0957 179.974 87.731 180.537 92.1031C180.871 94.6911 181.952 97.1882 182.691 99.7275L183.77 99.6578Z" fill="url(#paint8_linear_40_279)"/>
<path d="M263.748 104.052C264.165 102.109 264.229 100.791 264.722 99.6553C268.241 91.6596 265.088 84.8397 261.212 78.0303C257.728 71.6265 252.809 66.1154 246.841 61.9283C235.4 54.031 224.131 53.8009 212.551 61.1981C209.528 63.1272 206.557 65.1351 203.628 67.1886C202.655 67.9627 201.732 68.7983 200.865 69.69L200.01 68.1529C200.148 67.6341 200.368 67.1408 200.662 66.6916C212.842 53.8602 225.62 48.7228 243.443 56.0399C255.408 60.9811 263.479 69.7353 267.918 81.9629C270.784 89.9214 269.533 96.9356 263.748 104.052Z" fill="url(#paint9_linear_40_279)"/>
<path d="M354.141 176.527C344.34 172.286 336.52 158.256 345.329 146.519C342.894 147.334 340.939 148.217 338.911 148.561C336.883 148.906 334.764 148.8 332.684 148.888L332.583 147.812C333.259 147.65 333.94 147.497 334.612 147.327C337.71 146.561 340.987 146.151 343.872 144.926C347.124 143.573 347.911 140.427 347.798 137.091C347.672 133.335 344.318 133.16 341.951 132.116C340.775 131.546 339.425 131.456 338.184 131.864C336.943 132.272 335.909 133.145 335.301 134.301C333.808 136.916 332.957 139.934 332.095 142.845C331.673 144.326 331.897 145.982 331.806 148.084C327.738 140.876 332.592 131.023 340.082 130.295C341.33 130.237 342.57 130.523 343.667 131.12C347.556 133.128 348.172 132.951 350.065 128.774C352.314 131.539 354.668 132.6 358.43 131.17C362.436 129.647 366.237 131.555 369.002 134.625C370.537 136.486 371.792 138.561 372.728 140.785C374.313 144.153 373.484 145.867 369.904 146.868C364.927 148.272 360.578 146.618 356.655 143.573C355.987 142.992 355.359 142.365 354.777 141.697L353.903 142.17C354.449 143.206 354.737 144.671 355.592 145.2C363.598 150.095 365.78 156.736 361.857 165.314C360.882 167.408 359.721 169.41 358.388 171.297C357.134 173.177 355.556 174.833 354.141 176.527ZM353.451 175.007C355.182 172.371 356.693 169.548 358.744 167.165C362.196 163.164 362.149 158.504 361.713 153.815C361.376 150.225 355.883 145.472 352.944 145.734C345.428 146.393 340.717 154.283 343.351 161.42C345.221 166.889 348.752 171.639 353.451 175.007ZM361.709 131.585C360.535 132.005 357.388 132.189 356.473 133.678C355.904 134.821 355.577 136.069 355.513 137.345C355.449 138.62 355.65 139.895 356.103 141.089C358.234 146.006 367.359 147.76 371.508 144.473C371.799 144.195 372.019 143.851 372.149 143.47C372.279 143.088 372.315 142.682 372.255 142.283C370.486 137.726 367.576 134.134 361.709 131.585ZM350.723 132.655L349.049 132.769C349.16 134.784 349.632 136.867 349.282 138.79C348.87 141.053 347.736 143.187 346.914 145.378L347.48 146.184C349.122 145.108 352.113 144.095 352.158 142.947C352.317 139.595 351.31 136.131 350.748 132.687L350.723 132.655Z" fill="url(#paint10_linear_40_279)"/>
<path d="M300.718 252.418C303.785 252.389 306.547 252.558 309.264 252.294C311.12 252.152 312.972 252.616 314.543 253.614C316.113 254.612 317.319 256.093 317.978 257.833C318.322 259.005 318.935 260.08 319.767 260.974C319.987 259.38 320.217 257.797 320.554 255.336C322.642 261.949 319.035 265.832 315.348 270.479C322.364 268.661 325.175 264.471 325.97 258.458L326.891 258.514C327.033 259.835 327.444 261.191 327.265 262.459C326.606 267.122 321.674 271.784 316.438 272.297C313.946 272.534 312.504 273.669 310.971 275.364C309.178 277.469 307.145 279.358 304.914 280.991C300.623 283.928 295.947 283.857 291.395 281.437C286.704 278.936 282.136 276.206 277.521 273.562C273.863 271.448 271.955 268.21 273.347 264.698C275.466 259.366 276.191 254.053 274.837 248.412L275.753 248.222C276.043 249.287 276.395 250.346 276.612 251.429C276.889 252.668 277.003 253.905 277.243 255.441C279.486 254.265 281.434 253.246 283.386 252.235L283.917 252.894C283.176 253.625 282.421 254.35 281.691 255.092C280.486 256.164 279.364 257.325 278.333 258.565C272.943 265.992 274.098 269.696 282.513 273.343C286.103 274.905 289.504 276.93 292.939 278.827C297.594 281.404 302.068 280.768 305.768 277.35C309.075 274.132 312.117 270.652 314.864 266.945C317.379 263.72 316.874 260.282 314.71 256.955C312.745 253.889 310.063 254.159 307.056 254.7C304.468 255.175 302.133 254.536 300.718 252.418Z" fill="url(#paint11_linear_40_279)"/>
<path d="M325.2 241.569C324.962 239.455 324.953 237.286 324.444 235.24C323.113 229.912 322.58 224.038 319.886 219.475C315.028 211.251 306.233 210.236 297.566 210.722C293.943 210.928 290.319 212.246 286.84 213.374C281.719 215.042 277.523 217.963 275.287 223.132C274.985 223.756 274.627 224.352 274.218 224.912C274.105 225.077 273.839 225.133 273.644 225.238C274.567 216.194 281.243 211.645 287.799 209.254C299.262 205.054 310.017 206.419 319.23 214.66C327.348 221.926 327.581 231.566 326.42 241.381L325.2 241.569Z" fill="url(#paint12_linear_40_279)"/>
<path d="M358.195 213.546C359.863 212.6 360.732 212.043 361.659 211.59C368.999 208.017 374.863 203.104 376.491 194.614C376.816 192.566 376.802 190.478 376.45 188.435C375.811 184.108 376.199 182.362 379.318 178.459C384.369 182.016 382.854 195.703 379.494 201.852C375.555 209.067 364.682 215.394 358.195 213.546Z" fill="url(#paint13_linear_40_279)"/>
<path d="M226.908 83.4661C218.913 83.5445 211.195 83.8311 203.539 83.5991C197.704 83.4016 192.068 81.4296 187.384 77.9461C185.847 76.8429 184.88 74.9522 183.651 73.4231L184.324 72.8746C186.2 74.32 188.003 75.8792 189.958 77.2133C195.406 80.8815 201.486 81.5384 207.884 80.972C212.186 80.598 216.52 80.6295 221.172 80.4685C217.146 77.0444 212.411 76.3804 207.465 77.0096C200.805 77.8563 195.183 75.643 190.016 71.7611C189.421 71.2147 188.879 70.6141 188.397 69.967C188.858 69.8436 189.128 69.6778 189.22 69.7493C194.962 74.0767 201.065 75.1278 208.355 74.1023C215.197 73.1459 221.86 75.5715 226.214 81.8559C226.505 82.3653 226.737 82.9053 226.908 83.4661Z" fill="url(#paint14_linear_40_279)"/>
<path d="M109.238 284.398C118.221 276.746 114.952 267.784 112.904 259.109C111.913 254.91 110.228 250.88 108.607 246.007C112.354 249.327 116.012 251.597 117.059 256.158C118.266 261.424 120.059 266.607 120.782 271.937C121.681 278.853 115.949 285.076 109.238 284.398Z" fill="url(#paint15_linear_40_279)"/>
<path d="M383.224 118.977C386.906 113.631 387.337 107.718 387.179 101.496C386.909 91.0845 380.161 82.0257 370.236 79.637C362.464 77.7745 354.618 84.3545 355.796 92.2063C356.163 94.6285 358.296 96.8526 359.788 99.0222C361.007 100.815 362.459 102.442 364.26 104.72C357.517 103.673 352.79 97.2939 352.999 91.0232C353.181 85.5954 354.583 80.87 360.065 78.6544C366.772 75.9789 372.983 77.4932 378.482 81.8555C388.122 89.4924 390.617 99.7072 388.216 111.267C387.63 114.133 385.633 116.707 384.277 119.432L383.224 118.977Z" fill="url(#paint16_linear_40_279)"/>
<path d="M200.622 137.874C202.292 140.874 203.599 143.501 205.169 145.959C209.189 152.266 215.204 154.5 222.426 154.05C228.949 153.693 235.217 151.395 240.426 147.452C245.528 143.581 250.265 139.217 254.647 135.506C254.002 136.651 253.221 138.909 251.74 140.505C243.631 149.211 234.5 156.288 222.079 157.488C210.86 158.545 201.043 149.759 200.622 137.874Z" fill="url(#paint17_linear_40_279)"/>
<path d="M163.408 54.9622C152.452 60.442 141.143 54.6418 138.188 43.1045C137.09 38.8356 136.846 34.9983 140.758 31.8453C144.788 28.5955 149.148 27.5314 154.028 29.2138C157.528 30.423 159.452 33.1031 159.821 36.7274C160.115 39.6787 159.799 42.5194 155.848 44.6271C155.707 42.6309 155.086 40.9069 155.607 39.656C156.761 36.8553 157.35 34.0797 155.061 31.9377C154.017 30.9218 152.707 30.2212 151.282 29.9163C149.858 29.6114 148.376 29.7147 147.007 30.2141C143.902 31.2744 141.364 32.9402 140.637 36.3985C138.607 46.0209 147.756 54.9867 156.785 55.1994C158.658 55.2273 160.558 55.065 163.408 54.9622Z" fill="url(#paint18_linear_40_279)"/>
<path d="M206.704 101.357C212.615 104.108 215.551 109.171 216.522 116.033C219.419 114.501 222.147 113.062 224.857 111.609L225.384 112.637C220.309 114.56 217.413 120.498 210.964 119.896C210.043 119.866 209.127 119.753 208.227 119.559C201.734 117.709 195.637 106.499 197.745 100.05C198.636 97.3209 200.171 95.0265 203.884 94.8174C199.155 99.2586 197.84 103.987 201.857 109.789C203.07 106.773 204.711 104.614 207.865 106.547C209.711 107.677 211.594 109.34 210.147 111.912C209.824 112.496 208.366 112.446 207.334 111.955C208.05 111.43 208.769 110.899 209.481 110.365C208.475 109.527 207.561 108.465 206.406 107.965C205.938 107.789 204.518 108.666 204.267 109.336C203.269 111.995 205.94 117.054 208.674 117.36C210.216 117.538 212.333 117.057 213.338 116.039C214.142 115.221 214.283 112.789 213.644 111.704C211.575 108.124 209.016 104.783 206.704 101.357Z" fill="url(#paint19_linear_40_279)"/>
<path d="M131.517 175.216C130.739 167.403 133.956 161.757 138.321 156.526C139.538 155.062 140.644 153.496 141.802 151.973C141.938 151.787 142.084 151.609 142.239 151.439C144.145 149.425 154.645 147.534 157.45 148.282C161.31 149.301 164.474 150.695 165.945 154.919C166.716 157.114 168.907 156.771 170.671 155.646C171.717 154.993 172.625 154.154 174.381 153.804C173.836 154.86 173.518 156.106 172.715 156.939C170.4 159.338 168.851 162.372 168.266 165.654C166.479 175.895 157.106 180.752 145.139 180.364C142.826 180.282 140.51 180.111 138.209 179.937L138.28 178.659C141.67 178.818 145.104 179.409 148.438 179.065C158.879 177.983 164.26 174.691 166.774 166.133C167.523 163.603 168.085 161.017 168.723 158.505C165.795 155.753 162.865 153.125 160.078 150.351C157.56 147.849 154.698 148.875 151.94 149.427C150.204 149.784 148.625 150.868 146.939 151.526C141.716 153.587 138.218 157.474 135.81 162.349C134.209 165.59 131.99 168.696 132.571 172.682C132.658 173.301 132.043 174.012 131.517 175.216Z" fill="url(#paint20_linear_40_279)"/>
<path d="M282.296 159.986C293.684 159.623 297.284 168.494 302.24 176.792C298.232 176.03 294.789 175.48 291.409 174.664C290.969 174.498 290.574 174.231 290.256 173.885C289.938 173.539 289.705 173.123 289.575 172.671C288.722 167.552 286.564 163.279 282.296 159.986Z" fill="url(#paint21_linear_40_279)"/>
<path d="M330.308 249.345C325.116 249.919 320.508 247.671 317.36 243.093C315.229 239.994 312.678 237.561 308.188 236.915C311.9 241.415 314.731 246.045 318.692 249.289C321.851 251.898 326.348 252.903 330.563 254.714C328.857 254.735 326.991 255.102 325.305 254.715C320.764 253.659 316.716 251.094 313.822 247.44C310.566 243.466 307.178 239.607 303.872 235.726C307.134 233.656 312.586 234.663 316.642 238.403C317.566 239.261 318.635 240.167 319.108 241.279C321.066 245.945 324.802 248.028 329.567 248.711C329.8 248.761 329.999 249.103 330.308 249.345Z" fill="url(#paint22_linear_40_279)"/>
<path d="M82.6734 244.296L79.9462 251.565L80.9279 252.586C82.0959 247.298 85.7436 248.073 89.2069 248.193C93.6822 248.344 93.7977 252.801 96.2683 254.915L95.6773 255.561C94.6809 254.519 93.4952 253.607 92.7176 252.418C90.4033 248.88 85.7858 248.594 83.3778 252.066C82.3533 253.604 81.5021 255.249 80.8395 256.974C78.4823 262.861 79.5442 265.566 85.1569 268.518C87.0904 269.532 89.0678 270.489 90.9126 271.641C95.7264 274.627 98.7574 273.783 101.219 268.684C101.662 267.76 101.951 266.734 102.483 265.316L104.013 269.028C102.569 270.325 101.105 271.46 99.8622 272.796C97.5063 275.339 94.8225 275.356 91.999 273.985C88.9756 272.554 85.9953 271.028 83.0199 269.489C78.263 267.044 76.7639 263.507 78.691 258.608C79.5622 256.617 79.6081 254.361 78.8187 252.336C77.5814 248.853 79.2009 245.901 82.6734 244.296Z" fill="url(#paint23_linear_40_279)"/>
<path d="M283.866 283.278C274.463 291.618 262.639 287.923 259.399 276.116C257.05 267.529 256.1 258.931 259.226 250.224C259.236 254.961 258.707 259.672 259.39 264.179C260.11 268.981 261.272 273.971 263.473 278.245C267.17 285.455 273.019 287.182 280.738 284.5C281.795 284.133 282.823 283.688 283.866 283.278Z" fill="url(#paint24_linear_40_279)"/>
<path d="M288.189 253.785L289.685 260.71C293.757 258.062 297.82 255.833 302.896 257.722C299.889 258.382 297.072 258.853 294.355 259.651C292.38 260.23 290.487 261.537 291.291 263.864C291.704 265.035 293.674 266.627 294.606 266.435C296.537 266.032 298.263 264.596 299.999 263.467C300.128 263.382 299.808 262.001 299.388 261.814C298.548 261.567 297.674 261.454 296.799 261.48L296.596 263.74L296.046 264.001C295.848 263.185 295.332 261.693 295.523 261.58C296.768 260.949 298.288 260.021 299.48 260.283C302.39 260.93 301.644 263.253 300.788 265.536C306.235 264.323 308.141 260.803 308.006 255.39C309.983 258.208 309.817 260.29 307.876 262.973C305.128 266.778 297.686 269.831 293.685 268.493C286.211 266.037 288.583 259.28 288.189 253.785Z" fill="url(#paint25_linear_40_279)"/>
<path d="M165.025 276.089C165.669 272.533 166.614 270.529 170.191 269.557C177.428 267.584 182.436 262.283 185.383 255.416C188.263 248.708 190.59 241.756 192.705 236.119C192.436 243.635 189.048 251.48 184.758 259.098C181.838 264.292 178.544 269.138 173.558 272.422C171.009 274.136 167.889 274.901 165.025 276.089Z" fill="url(#paint26_linear_40_279)"/>
<path d="M245.977 116.603C239.475 114.163 232.876 111.984 226.52 109.154C224.06 107.942 222.022 106.017 220.671 103.63C217.724 98.222 215.153 92.618 212.975 86.8574C214.816 89.1059 216.874 91.213 218.441 93.6402C220.31 96.5666 221.764 99.7083 223.393 102.76C224.213 104.357 225.366 105.758 226.776 106.869C228.185 107.981 229.818 108.775 231.562 109.199C234.152 109.796 236.681 110.635 239.114 111.706C241.676 112.942 243.98 114.711 246.393 116.247L245.977 116.603Z" fill="url(#paint27_linear_40_279)"/>
<path d="M124.483 260.056C127.21 250.969 124.897 243.967 117.9 238.457C110.455 232.601 103.098 236.612 95.6254 238.519C100.535 234.961 105.839 233.042 111.941 234.174C120.831 235.826 127.613 243.251 127.954 251.753C128.091 254.867 127.339 257.604 124.483 260.056Z" fill="url(#paint28_linear_40_279)"/>
<path d="M249.78 119.95C250.736 126.554 248.28 131.856 243.924 136.408C240.386 140.146 236.064 141.365 230.8 139.598C241.02 136.735 246.062 129.029 249.78 119.95Z" fill="url(#paint29_linear_40_279)"/>
<path d="M233.522 186.791C232.534 188.297 231.745 189.551 230.894 190.79C224.73 185.592 221.651 168.868 225.832 161.343C224.883 170.83 226.6 179.499 233.522 186.791Z" fill="url(#paint30_linear_40_279)"/>
<path d="M87.6069 288.262C86.9385 290.043 86.1897 291.802 85.5993 293.613C83.9518 298.795 83.6292 303.866 85.7579 309.145C86.3494 310.613 84.8616 312.917 84.3053 314.993C78.2067 311.044 81.4655 292.907 86.7901 287.829L87.6069 288.262Z" fill="url(#paint31_linear_40_279)"/>
<path d="M344.026 276.32C344.722 275.098 345.19 273.219 346.174 272.869C346.898 272.702 347.65 272.701 348.374 272.865C349.099 273.029 349.777 273.354 350.359 273.816C353.999 277.162 353.103 282.455 348.734 284.829C343.945 287.431 337.457 285.983 335.035 281.506C334.251 280.055 334.316 278.144 333.968 276.441L335.213 276.248C335.383 277.098 335.507 277.953 335.74 278.797C337.082 283.839 343.636 286.632 348.062 283.813C349.381 282.965 350.928 281.135 350.883 279.812C350.825 277.989 349.333 276.212 348.457 274.415L344.873 276.438L344.026 276.32Z" fill="url(#paint32_linear_40_279)"/>
<path d="M275.039 243.978C276.858 244.289 278.698 244.505 280.488 244.954C281.377 245.219 282.202 245.665 282.911 246.264C288.2 250.473 293.701 249.77 299.481 247.333C302.061 246.246 304.945 245.896 307.69 245.221L308.031 246.29L304.52 247.443C303.092 247.909 301.466 248.07 300.271 248.883C293.947 253.186 288.194 251.598 282.318 247.844C280.153 246.46 277.452 245.929 275 245.009L275.039 243.978Z" fill="url(#paint33_linear_40_279)"/>
<path d="M271.375 243.642C267.685 251.499 265.246 258.713 269.03 266.638C260.787 263.657 264.234 248.224 271.375 243.642Z" fill="url(#paint34_linear_40_279)"/>
<path d="M90.6025 242.338C95.8701 243.639 102.995 241.217 106.217 248.938C98.7233 246.868 90.7698 248.594 85.6454 241.554C90.2419 246.245 96.1355 246.075 101.899 246.391L102.168 245.535L90.6025 242.338Z" fill="url(#paint35_linear_40_279)"/>
<path d="M44.1709 337.808C45.0931 339.541 46.2143 342.484 48.0688 344.856C49.8855 347.284 52.1681 349.325 54.7832 350.861C56.9588 352.04 57.9617 353.144 57.6126 355.497C51.2705 354.49 44.1268 344.43 44.1709 337.808Z" fill="url(#paint36_linear_40_279)"/>
<path d="M83.5481 275.554C90.8679 287.675 99.9704 282.115 108.904 278.962C104.38 283.666 93.6585 285.852 88.2383 283.336C85.0841 281.878 83.8173 279.363 83.5481 275.554Z" fill="url(#paint37_linear_40_279)"/>
<path d="M317.409 179.539C316.913 176.096 316.483 173.131 316.05 170.173L315.209 170.22C314.405 172.916 313.608 175.608 312.816 178.298L312.177 178.162L313.822 164.842C317.831 167.481 319.94 175.126 317.409 179.539Z" fill="url(#paint38_linear_40_279)"/>
<path d="M267.926 32.953C270.423 28.1343 272.433 24.2601 274.419 20.4288L275.92 20.8956C275.428 25.1611 274.931 29.4249 274.429 33.6872L273.749 33.7212C273.648 31.599 273.538 29.4808 273.432 27.231C271.408 28.8302 272.372 32.6855 267.926 32.953Z" fill="url(#paint39_linear_40_279)"/>
<path d="M269.261 180.455L271.733 186.501C269.079 185.668 266.185 178.671 267.648 176.809C267.931 176.448 269.359 176.457 269.809 176.841C271.82 178.56 273.737 180.386 275.552 182.311C275.973 182.751 275.929 183.639 276.104 184.32C275.402 184.213 274.516 184.341 274.019 183.946C272.535 182.722 271.203 181.31 269.813 179.973L269.261 180.455Z" fill="url(#paint40_linear_40_279)"/>
<path d="M392.971 42.8403C402.691 33.4401 403.443 21.5506 402.318 8.31895C406.474 20.3514 402.151 35.789 392.971 42.8403Z" fill="url(#paint41_linear_40_279)"/>
<path d="M95.4325 261.551L96.3831 264.236C92.9203 266.052 89.9277 265.33 88.2246 262.258C86.1094 258.446 86.9358 255.018 90.9505 252.897C85.775 255.858 89.8717 259.212 90.2118 262.359C90.2808 262.985 91.9022 264.061 92.4541 263.875C93.5328 263.53 94.3839 262.448 95.4325 261.551Z" fill="url(#paint42_linear_40_279)"/>
<path d="M298.335 62.749L307.124 56.7007L306.835 56.1472L298.388 57.6658L298.218 56.7343L309.715 54.105L310.121 54.9992C307.414 58.8344 304.1 61.7371 298.335 62.749Z" fill="url(#paint43_linear_40_279)"/>
<path d="M140.675 169.151C146.549 163.678 154.958 164.177 161.526 160.292L162.075 161.24C160.705 162.173 159.263 162.996 157.762 163.701C152.24 165.828 146.661 167.807 141.103 169.831C141.051 169.837 140.999 169.83 140.95 169.812C140.902 169.794 140.858 169.764 140.823 169.726C140.749 169.609 140.744 169.481 140.675 169.151Z" fill="url(#paint44_linear_40_279)"/>
<path d="M139.47 229.282C139.763 228.124 140.051 226.963 140.417 225.513L137.962 226.402L137.387 225.601C138.998 224.351 140.575 223.036 142.254 221.901C142.553 221.805 142.87 221.779 143.181 221.826C143.491 221.873 143.787 221.992 144.044 222.172C144.324 222.373 144.357 223.313 144.167 223.701C143.006 225.728 141.729 227.689 140.486 229.678L139.47 229.282Z" fill="url(#paint45_linear_40_279)"/>
<path d="M101.461 276.896L111.529 270.364C111.675 274.127 105.809 278.06 101.461 276.896Z" fill="url(#paint46_linear_40_279)"/>
<path d="M325.541 175.321L323.382 179.414L322.732 179.17L325.469 171.874C328.227 173.755 328.696 177.469 326.13 181.579C326.146 179.145 326.154 177.324 326.18 175.516L325.541 175.321Z" fill="url(#paint47_linear_40_279)"/>
<path d="M151.691 247.537L149.41 246.4L149.391 245.443C151.524 245.16 153.653 244.871 155.776 244.575L156.442 245.945C154.414 247.528 152.391 249.11 150.373 250.692L149.443 249.653L151.691 247.537Z" fill="url(#paint48_linear_40_279)"/>
<path d="M99.1055 250.95C100.133 257.64 103.011 262.881 110.074 264.834C101.019 262.378 98.9099 259.696 99.1055 250.95Z" fill="url(#paint49_linear_40_279)"/>
<path d="M185.282 146.1C187.706 152.944 187.316 154.221 182.727 156.312C183.511 153.172 184.343 149.85 185.282 146.1Z" fill="url(#paint50_linear_40_279)"/>
<path d="M134.635 221.49L131.043 219.616C133.48 217.63 135.596 215.902 137.72 214.177L138.522 214.827C137.226 217.055 135.924 219.281 134.635 221.49Z" fill="url(#paint51_linear_40_279)"/>
<path d="M310.177 68.868C311.011 68.7803 312.015 68.6529 313.022 68.5783C313.761 68.6074 314.497 68.678 315.227 68.7899C311.403 71.8056 308.41 74.5248 303.13 75.3327C305.554 72.3331 310.698 73.8033 310.177 68.868Z" fill="url(#paint52_linear_40_279)"/>
<path d="M378.163 29.2072C380.595 26.2254 386.066 27.5365 385.171 22.1938C386.751 27.5114 386.161 28.1136 378.163 29.2072Z" fill="url(#paint53_linear_40_279)"/>
<path d="M232.621 192.217C234.565 191.641 235.759 191.109 236.96 191.07C237.275 191.062 238.133 193.105 237.872 193.385C237.088 194.226 236.04 194.772 234.902 194.934C234.389 194.979 233.76 193.63 232.621 192.217Z" fill="url(#paint54_linear_40_279)"/>
<path d="M344.718 136.818C343.221 138.081 341.789 139.428 340.208 140.577C338.626 141.727 336.968 142.589 335.336 143.578L334.789 142.861C337.876 140.603 340.953 138.333 344.019 136.052L344.718 136.818Z" fill="url(#paint55_linear_40_279)"/>
<path d="M175.68 194.055C170.81 190.151 170.518 188.832 173.208 185.599L175.68 194.055Z" fill="url(#paint56_linear_40_279)"/>
<path d="M374.686 176.432C374.976 178.366 375.542 179.586 375.163 180.32C374.784 181.053 373.455 181.273 372.544 181.725C372.261 180.818 371.551 179.765 371.804 179.052C372.08 178.236 373.219 177.691 374.686 176.432Z" fill="url(#paint57_linear_40_279)"/>
<path d="M364.669 54.0062C361.383 57.5056 360.295 57.2234 356.839 52.0405C359.206 53.5811 361.364 56.0523 364.669 54.0062Z" fill="url(#paint58_linear_40_279)"/>
<path d="M329.477 101.031C329.109 102.5 328.739 103.975 328.366 105.457L330.457 107.888L330.042 108.422L326.623 106.524L328.743 100.874L329.477 101.031Z" fill="url(#paint59_linear_40_279)"/>
<path d="M172.857 216.642L164.683 224.137L164.135 223.62L172.097 215.882L172.857 216.642Z" fill="url(#paint60_linear_40_279)"/>
<path d="M364.028 14.9291C364.843 11.9861 364.843 11.9861 372.01 11.723L364.028 14.9291Z" fill="url(#paint61_linear_40_279)"/>
<path d="M342.594 0.471974C344.369 0.0105751 345.456 -0.612675 346.291 -0.366271C346.861 -0.204437 347.077 1.1749 347.455 2.00645C346.576 2.3737 345.662 3.12865 344.863 2.98466C344.208 2.8724 343.707 1.75717 342.594 0.471974Z" fill="url(#paint62_linear_40_279)"/>
<path d="M206.962 224.727C212.409 224.049 212.677 224.223 213.412 228.512L206.962 224.727Z" fill="url(#paint63_linear_40_279)"/>
<path d="M221.618 252.603L218.645 247.698C222.808 248.088 223.481 249.2 221.618 252.603Z" fill="url(#paint64_linear_40_279)"/>
<path d="M86.8851 314.7C88.1768 314.183 89.2864 313.42 89.6196 313.679C90.3345 314.294 90.7775 315.166 90.8522 316.107C90.8708 316.492 89.341 317.446 88.9419 317.244C88.217 316.883 87.7839 315.883 86.8851 314.7Z" fill="url(#paint65_linear_40_279)"/>
<path d="M299.055 168.24C298.818 166.422 298.589 164.601 298.304 162.432L293.025 160.451C298.645 160.676 300.469 162.495 299.055 168.24Z" fill="url(#paint66_linear_40_279)"/>
<path d="M21.0904 281.063L20.5537 288.108C18.0312 285.145 18.3355 282.87 21.0904 281.063Z" fill="url(#paint67_linear_40_279)"/>
<path d="M154.12 154.747L159.958 157.472C159.76 157.901 159.566 158.34 159.367 158.77L153.407 156.133C153.639 155.672 153.878 155.213 154.12 154.747Z" fill="url(#paint68_linear_40_279)"/>
<path d="M373.78 197.943C372.206 200.163 370.831 202.029 369.262 204.214C369.053 200.835 370.104 198.767 373.78 197.943Z" fill="url(#paint69_linear_40_279)"/>
<path d="M224.942 288.741C221.984 285.139 221.828 282.944 224.241 279.755L224.942 288.741Z" fill="url(#paint70_linear_40_279)"/>
<path d="M352.076 167.838C349.251 161.846 353.053 156.515 353.267 150.825L354.258 150.952C353.529 156.583 352.802 162.211 352.076 167.838Z" fill="url(#paint71_linear_40_279)"/>
<path d="M366.394 141.397C362.182 141.375 360.046 139.854 358.942 136.013L366.394 141.397Z" fill="url(#paint72_linear_40_279)"/>
</g>
<defs>
<linearGradient id="paint0_linear_40_279" x1="262.108" y1="21.8422" x2="218.66" y2="137.651" gradientUnits="userSpaceOnUse">
<stop stop-color="#9F3C52"/>
<stop offset="1" stop-color="#C64D68"/>
</linearGradient>
<linearGradient id="paint1_linear_40_279" x1="316.153" y1="178.183" x2="281.546" y2="270.426" gradientUnits="userSpaceOnUse">
<stop stop-color="#9F3C52"/>
<stop offset="1" stop-color="#C64D68"/>
</linearGradient>
<linearGradient id="paint2_linear_40_279" x1="230.883" y1="149.368" x2="164.006" y2="327.624" gradientUnits="userSpaceOnUse">
<stop stop-color="#9F3C52"/>
<stop offset="1" stop-color="#C64D68"/>
</linearGradient>
<linearGradient id="paint3_linear_40_279" x1="365.432" y1="-20.1094" x2="315.524" y2="112.917" gradientUnits="userSpaceOnUse">
<stop stop-color="#9F3C52"/>
<stop offset="1" stop-color="#C64D68"/>
</linearGradient>
<linearGradient id="paint4_linear_40_279" x1="122.637" y1="215.375" x2="98.2183" y2="280.463" gradientUnits="userSpaceOnUse">
<stop stop-color="#9F3C52"/>
<stop offset="1" stop-color="#C64D68"/>
</linearGradient>
<linearGradient id="paint5_linear_40_279" x1="253.228" y1="74.3079" x2="227.475" y2="142.95" gradientUnits="userSpaceOnUse">
<stop stop-color="#9F3C52"/>
<stop offset="1" stop-color="#C64D68"/>
</linearGradient>
<linearGradient id="paint6_linear_40_279" x1="61.3409" y1="256.14" x2="33.9295" y2="329.203" gradientUnits="userSpaceOnUse">
<stop stop-color="#9F3C52"/>
<stop offset="1" stop-color="#C64D68"/>
</linearGradient>
<linearGradient id="paint7_linear_40_279" x1="292.207" y1="216.901" x2="272.233" y2="270.139" gradientUnits="userSpaceOnUse">
<stop stop-color="#9F3C52"/>
<stop offset="1" stop-color="#C64D68"/>
</linearGradient>
<linearGradient id="paint8_linear_40_279" x1="214.324" y1="91.3839" x2="199.101" y2="131.961" gradientUnits="userSpaceOnUse">
<stop stop-color="#9F3C52"/>
<stop offset="1" stop-color="#C64D68"/>
</linearGradient>
<linearGradient id="paint9_linear_40_279" x1="243.901" y1="56.1833" x2="230.607" y2="91.618" gradientUnits="userSpaceOnUse">
<stop stop-color="#9F3C52"/>
<stop offset="1" stop-color="#C64D68"/>
</linearGradient>
<linearGradient id="paint10_linear_40_279" x1="357.007" y1="128.484" x2="340.853" y2="171.542" gradientUnits="userSpaceOnUse">
<stop stop-color="#9F3C52"/>
<stop offset="1" stop-color="#C64D68"/>
</linearGradient>
<linearGradient id="paint11_linear_40_279" x1="303.584" y1="248.969" x2="291.35" y2="281.577" gradientUnits="userSpaceOnUse">
<stop stop-color="#9F3C52"/>
<stop offset="1" stop-color="#C64D68"/>
</linearGradient>
<linearGradient id="paint12_linear_40_279" x1="309.025" y1="208.472" x2="299.146" y2="234.805" gradientUnits="userSpaceOnUse">
<stop stop-color="#9F3C52"/>
<stop offset="1" stop-color="#C64D68"/>
</linearGradient>
<linearGradient id="paint13_linear_40_279" x1="379.832" y1="178.652" x2="365.687" y2="216.357" gradientUnits="userSpaceOnUse">
<stop stop-color="#9F3C52"/>
<stop offset="1" stop-color="#C64D68"/>
</linearGradient>
<linearGradient id="paint14_linear_40_279" x1="207.926" y1="71.3917" x2="202.842" y2="84.9432" gradientUnits="userSpaceOnUse">
<stop stop-color="#9F3C52"/>
<stop offset="1" stop-color="#C64D68"/>
</linearGradient>
<linearGradient id="paint15_linear_40_279" x1="118.816" y1="249.837" x2="106.268" y2="283.284" gradientUnits="userSpaceOnUse">
<stop stop-color="#9F3C52"/>
<stop offset="1" stop-color="#C64D68"/>
</linearGradient>
<linearGradient id="paint16_linear_40_279" x1="377.814" y1="80.3894" x2="365.771" y2="112.489" gradientUnits="userSpaceOnUse">
<stop stop-color="#9F3C52"/>
<stop offset="1" stop-color="#C64D68"/>
</linearGradient>
<linearGradient id="paint17_linear_40_279" x1="231.357" y1="126.768" x2="219.427" y2="158.565" gradientUnits="userSpaceOnUse">
<stop stop-color="#9F3C52"/>
<stop offset="1" stop-color="#C64D68"/>
</linearGradient>
<linearGradient id="paint18_linear_40_279" x1="156.382" y1="30.0929" x2="146.971" y2="55.1775" gradientUnits="userSpaceOnUse">
<stop stop-color="#9F3C52"/>
<stop offset="1" stop-color="#C64D68"/>
</linearGradient>
<linearGradient id="paint19_linear_40_279" x1="214.401" y1="98.763" x2="206.791" y2="119.047" gradientUnits="userSpaceOnUse">
<stop stop-color="#9F3C52"/>
<stop offset="1" stop-color="#C64D68"/>
</linearGradient>
<linearGradient id="paint20_linear_40_279" x1="158.059" y1="147.68" x2="145.001" y2="182.486" gradientUnits="userSpaceOnUse">
<stop stop-color="#9F3C52"/>
<stop offset="1" stop-color="#C64D68"/>
</linearGradient>
<linearGradient id="paint21_linear_40_279" x1="294.274" y1="163.044" x2="290.098" y2="174.173" gradientUnits="userSpaceOnUse">
<stop stop-color="#9F3C52"/>
<stop offset="1" stop-color="#C64D68"/>
</linearGradient>
<linearGradient id="paint22_linear_40_279" x1="319.776" y1="238.403" x2="315.032" y2="251.047" gradientUnits="userSpaceOnUse">
<stop stop-color="#9F3C52"/>
<stop offset="1" stop-color="#C64D68"/>
</linearGradient>
<linearGradient id="paint23_linear_40_279" x1="95.0062" y1="248.923" x2="86.3753" y2="271.928" gradientUnits="userSpaceOnUse">
<stop stop-color="#9F3C52"/>
<stop offset="1" stop-color="#C64D68"/>
</linearGradient>
<linearGradient id="paint24_linear_40_279" x1="275.461" y1="256.316" x2="264.519" y2="285.482" gradientUnits="userSpaceOnUse">
<stop stop-color="#9F3C52"/>
<stop offset="1" stop-color="#C64D68"/>
</linearGradient>
<linearGradient id="paint25_linear_40_279" x1="300.422" y1="252.544" x2="294.342" y2="268.751" gradientUnits="userSpaceOnUse">
<stop stop-color="#9F3C52"/>
<stop offset="1" stop-color="#C64D68"/>
</linearGradient>
<linearGradient id="paint26_linear_40_279" x1="187.806" y1="234.281" x2="171.245" y2="278.423" gradientUnits="userSpaceOnUse">
<stop stop-color="#9F3C52"/>
<stop offset="1" stop-color="#C64D68"/>
</linearGradient>
<linearGradient id="paint27_linear_40_279" x1="232.455" y1="94.1658" x2="226.712" y2="109.472" gradientUnits="userSpaceOnUse">
<stop stop-color="#9F3C52"/>
<stop offset="1" stop-color="#C64D68"/>
</linearGradient>
<linearGradient id="paint28_linear_40_279" x1="115.977" y1="235.358" x2="108.904" y2="254.211" gradientUnits="userSpaceOnUse">
<stop stop-color="#9F3C52"/>
<stop offset="1" stop-color="#C64D68"/>
</linearGradient>
<linearGradient id="paint29_linear_40_279" x1="245.762" y1="118.443" x2="236.958" y2="141.909" gradientUnits="userSpaceOnUse">
<stop stop-color="#9F3C52"/>
<stop offset="1" stop-color="#C64D68"/>
</linearGradient>
<linearGradient id="paint30_linear_40_279" x1="233.329" y1="164.156" x2="224.269" y2="188.304" gradientUnits="userSpaceOnUse">
<stop stop-color="#9F3C52"/>
<stop offset="1" stop-color="#C64D68"/>
</linearGradient>
<linearGradient id="paint31_linear_40_279" x1="89.5954" y1="288.882" x2="80.3551" y2="313.511" gradientUnits="userSpaceOnUse">
<stop stop-color="#9F3C52"/>
<stop offset="1" stop-color="#C64D68"/>
</linearGradient>
<linearGradient id="paint32_linear_40_279" x1="345.679" y1="271.805" x2="340.461" y2="285.713" gradientUnits="userSpaceOnUse">
<stop stop-color="#9F3C52"/>
<stop offset="1" stop-color="#C64D68"/>
</linearGradient>
<linearGradient id="paint33_linear_40_279" x1="293.5" y1="239.897" x2="289.271" y2="251.168" gradientUnits="userSpaceOnUse">
<stop stop-color="#9F3C52"/>
<stop offset="1" stop-color="#C64D68"/>
</linearGradient>
<linearGradient id="paint34_linear_40_279" x1="272.87" y1="244.202" x2="265.017" y2="265.133" gradientUnits="userSpaceOnUse">
<stop stop-color="#9F3C52"/>
<stop offset="1" stop-color="#C64D68"/>
</linearGradient>
<linearGradient id="paint35_linear_40_279" x1="97.0632" y1="242.229" x2="95.102" y2="247.456" gradientUnits="userSpaceOnUse">
<stop stop-color="#9F3C52"/>
<stop offset="1" stop-color="#C64D68"/>
</linearGradient>
<linearGradient id="paint36_linear_40_279" x1="52.9713" y1="341.11" x2="48.7575" y2="352.341" gradientUnits="userSpaceOnUse">
<stop stop-color="#9F3C52"/>
<stop offset="1" stop-color="#C64D68"/>
</linearGradient>
<linearGradient id="paint37_linear_40_279" x1="97.23" y1="274.582" x2="93.233" y2="285.236" gradientUnits="userSpaceOnUse">
<stop stop-color="#9F3C52"/>
<stop offset="1" stop-color="#C64D68"/>
</linearGradient>
<linearGradient id="paint38_linear_40_279" x1="317.855" y1="166.355" x2="313.272" y2="178.572" gradientUnits="userSpaceOnUse">
<stop stop-color="#9F3C52"/>
<stop offset="1" stop-color="#C64D68"/>
</linearGradient>
<linearGradient id="paint39_linear_40_279" x1="275.849" y1="20.8688" x2="270.897" y2="34.0678" gradientUnits="userSpaceOnUse">
<stop stop-color="#9F3C52"/>
<stop offset="1" stop-color="#C64D68"/>
</linearGradient>
<linearGradient id="paint40_linear_40_279" x1="272.83" y1="177.925" x2="269.873" y2="185.806" gradientUnits="userSpaceOnUse">
<stop stop-color="#9F3C52"/>
<stop offset="1" stop-color="#C64D68"/>
</linearGradient>
<linearGradient id="paint41_linear_40_279" x1="405.676" y1="9.57899" x2="393.17" y2="42.9148" gradientUnits="userSpaceOnUse">
<stop stop-color="#9F3C52"/>
<stop offset="1" stop-color="#C64D68"/>
</linearGradient>
<linearGradient id="paint42_linear_40_279" x1="94.2473" y1="254.134" x2="90.3138" y2="264.618" gradientUnits="userSpaceOnUse">
<stop stop-color="#9F3C52"/>
<stop offset="1" stop-color="#C64D68"/>
</linearGradient>
<linearGradient id="paint43_linear_40_279" x1="305.433" y1="52.4987" x2="301.186" y2="63.8187" gradientUnits="userSpaceOnUse">
<stop stop-color="#9F3C52"/>
<stop offset="1" stop-color="#C64D68"/>
</linearGradient>
<linearGradient id="paint44_linear_40_279" x1="154.24" y1="157.559" x2="148.571" y2="172.671" gradientUnits="userSpaceOnUse">
<stop stop-color="#9F3C52"/>
<stop offset="1" stop-color="#C64D68"/>
</linearGradient>
<linearGradient id="paint45_linear_40_279" x1="142.02" y1="221.344" x2="139.089" y2="229.154" gradientUnits="userSpaceOnUse">
<stop stop-color="#9F3C52"/>
<stop offset="1" stop-color="#C64D68"/>
</linearGradient>
<linearGradient id="paint46_linear_40_279" x1="108.331" y1="269.164" x2="104.94" y2="278.202" gradientUnits="userSpaceOnUse">
<stop stop-color="#9F3C52"/>
<stop offset="1" stop-color="#C64D68"/>
</linearGradient>
<linearGradient id="paint47_linear_40_279" x1="327.477" y1="172.628" x2="324.367" y2="180.918" gradientUnits="userSpaceOnUse">
<stop stop-color="#9F3C52"/>
<stop offset="1" stop-color="#C64D68"/>
</linearGradient>
<linearGradient id="paint48_linear_40_279" x1="153.637" y1="243.772" x2="150.959" y2="250.912" gradientUnits="userSpaceOnUse">
<stop stop-color="#9F3C52"/>
<stop offset="1" stop-color="#C64D68"/>
</linearGradient>
<linearGradient id="paint49_linear_40_279" x1="106.196" y1="253.61" x2="102.911" y2="262.365" gradientUnits="userSpaceOnUse">
<stop stop-color="#9F3C52"/>
<stop offset="1" stop-color="#C64D68"/>
</linearGradient>
<linearGradient id="paint50_linear_40_279" x1="187.016" y1="146.751" x2="183.342" y2="156.543" gradientUnits="userSpaceOnUse">
<stop stop-color="#9F3C52"/>
<stop offset="1" stop-color="#C64D68"/>
</linearGradient>
<linearGradient id="paint51_linear_40_279" x1="136.146" y1="213.587" x2="133.361" y2="221.012" gradientUnits="userSpaceOnUse">
<stop stop-color="#9F3C52"/>
<stop offset="1" stop-color="#C64D68"/>
</linearGradient>
<linearGradient id="paint52_linear_40_279" x1="311.001" y1="67.2043" x2="307.357" y2="76.9183" gradientUnits="userSpaceOnUse">
<stop stop-color="#9F3C52"/>
<stop offset="1" stop-color="#C64D68"/>
</linearGradient>
<linearGradient id="paint53_linear_40_279" x1="384.213" y1="21.8345" x2="381.042" y2="30.2871" gradientUnits="userSpaceOnUse">
<stop stop-color="#9F3C52"/>
<stop offset="1" stop-color="#C64D68"/>
</linearGradient>
<linearGradient id="paint54_linear_40_279" x1="236.034" y1="190.716" x2="234.496" y2="194.814" gradientUnits="userSpaceOnUse">
<stop stop-color="#9F3C52"/>
<stop offset="1" stop-color="#C64D68"/>
</linearGradient>
<linearGradient id="paint55_linear_40_279" x1="341.526" y1="135.116" x2="337.979" y2="144.57" gradientUnits="userSpaceOnUse">
<stop stop-color="#9F3C52"/>
<stop offset="1" stop-color="#C64D68"/>
</linearGradient>
<linearGradient id="paint56_linear_40_279" x1="175.403" y1="186.422" x2="172.927" y2="193.022" gradientUnits="userSpaceOnUse">
<stop stop-color="#9F3C52"/>
<stop offset="1" stop-color="#C64D68"/>
</linearGradient>
<linearGradient id="paint57_linear_40_279" x1="374.705" y1="176.439" x2="372.7" y2="181.784" gradientUnits="userSpaceOnUse">
<stop stop-color="#9F3C52"/>
<stop offset="1" stop-color="#C64D68"/>
</linearGradient>
<linearGradient id="paint58_linear_40_279" x1="360.914" y1="52.5975" x2="359.687" y2="55.8681" gradientUnits="userSpaceOnUse">
<stop stop-color="#9F3C52"/>
<stop offset="1" stop-color="#C64D68"/>
</linearGradient>
<linearGradient id="paint59_linear_40_279" x1="330.687" y1="101.484" x2="328.325" y2="107.778" gradientUnits="userSpaceOnUse">
<stop stop-color="#9F3C52"/>
<stop offset="1" stop-color="#C64D68"/>
</linearGradient>
<linearGradient id="paint60_linear_40_279" x1="170.338" y1="215.222" x2="166.708" y2="224.897" gradientUnits="userSpaceOnUse">
<stop stop-color="#9F3C52"/>
<stop offset="1" stop-color="#C64D68"/>
</linearGradient>
<linearGradient id="paint61_linear_40_279" x1="368.999" y1="10.5935" x2="366.96" y2="16.0292" gradientUnits="userSpaceOnUse">
<stop stop-color="#9F3C52"/>
<stop offset="1" stop-color="#C64D68"/>
</linearGradient>
<linearGradient id="paint62_linear_40_279" x1="345.709" y1="-0.585922" x2="344.426" y2="2.83375" gradientUnits="userSpaceOnUse">
<stop stop-color="#9F3C52"/>
<stop offset="1" stop-color="#C64D68"/>
</linearGradient>
<linearGradient id="paint63_linear_40_279" x1="211.027" y1="224.38" x2="209.962" y2="227.218" gradientUnits="userSpaceOnUse">
<stop stop-color="#9F3C52"/>
<stop offset="1" stop-color="#C64D68"/>
</linearGradient>
<linearGradient id="paint64_linear_40_279" x1="220.977" y1="248.092" x2="219.572" y2="251.836" gradientUnits="userSpaceOnUse">
<stop stop-color="#9F3C52"/>
<stop offset="1" stop-color="#C64D68"/>
</linearGradient>
<linearGradient id="paint65_linear_40_279" x1="89.5387" y1="313.638" x2="88.2786" y2="316.997" gradientUnits="userSpaceOnUse">
<stop stop-color="#9F3C52"/>
<stop offset="1" stop-color="#C64D68"/>
</linearGradient>
<linearGradient id="paint66_linear_40_279" x1="297.221" y1="161.199" x2="295.131" y2="166.767" gradientUnits="userSpaceOnUse">
<stop stop-color="#9F3C52"/>
<stop offset="1" stop-color="#C64D68"/>
</linearGradient>
<linearGradient id="paint67_linear_40_279" x1="21.4855" y1="281.211" x2="19.1022" y2="287.564" gradientUnits="userSpaceOnUse">
<stop stop-color="#9F3C52"/>
<stop offset="1" stop-color="#C64D68"/>
</linearGradient>
<linearGradient id="paint68_linear_40_279" x1="157.042" y1="155.843" x2="156.367" y2="157.645" gradientUnits="userSpaceOnUse">
<stop stop-color="#9F3C52"/>
<stop offset="1" stop-color="#C64D68"/>
</linearGradient>
<linearGradient id="paint69_linear_40_279" x1="372.458" y1="197.447" x2="369.838" y2="204.43" gradientUnits="userSpaceOnUse">
<stop stop-color="#9F3C52"/>
<stop offset="1" stop-color="#C64D68"/>
</linearGradient>
<linearGradient id="paint70_linear_40_279" x1="225.814" y1="280.345" x2="222.945" y2="287.992" gradientUnits="userSpaceOnUse">
<stop stop-color="#9F3C52"/>
<stop offset="1" stop-color="#C64D68"/>
</linearGradient>
<linearGradient id="paint71_linear_40_279" x1="355.623" y1="151.464" x2="349.8" y2="166.984" gradientUnits="userSpaceOnUse">
<stop stop-color="#9F3C52"/>
<stop offset="1" stop-color="#C64D68"/>
</linearGradient>
<linearGradient id="paint72_linear_40_279" x1="363.094" y1="137.571" x2="361.985" y2="140.526" gradientUnits="userSpaceOnUse">
<stop stop-color="#9F3C52"/>
<stop offset="1" stop-color="#C64D68"/>
</linearGradient>
<clipPath id="clip0_40_279">
<rect width="311.115" height="480.708" fill="white" transform="translate(291.29 443.359) rotate(-159.435)"/>
</clipPath>
</defs>
</svg>
